<svg width="231" height="19" viewBox="0 0 231 19" fill="none" xmlns="http://www.w3.org/2000/svg">
<path d="M0.064875 9.504C0.064875 7.84 0.408875 6.36 1.09688 5.064C1.80088 3.752 2.79288 2.736 4.07288 2.016C5.35288 1.28 6.82488 0.912 8.48888 0.912C10.6009 0.912 12.3769 1.48 13.8169 2.616C15.2569 3.736 16.1849 5.264 16.6009 7.2H11.5369C11.2329 6.56 10.8089 6.072 10.2649 5.736C9.73688 5.4 9.12088 5.232 8.41688 5.232C7.32888 5.232 6.45688 5.624 5.80088 6.408C5.16088 7.176 4.84088 8.208 4.84088 9.504C4.84088 10.816 5.16088 11.864 5.80088 12.648C6.45688 13.416 7.32888 13.8 8.41688 13.8C9.12088 13.8 9.73688 13.632 10.2649 13.296C10.8089 12.96 11.2329 12.472 11.5369 11.832H16.6009C16.1849 13.768 15.2569 15.304 13.8169 16.44C12.3769 17.56 10.6009 18.12 8.48888 18.12C6.82488 18.12 5.35288 17.76 4.07288 17.04C2.79288 16.304 1.80088 15.288 1.09688 13.992C0.408875 12.68 0.064875 11.184 0.064875 9.504ZM23.5324 6.912C24.0604 6.144 24.7004 5.536 25.4524 5.088C26.2044 4.64 27.0124 4.416 27.8764 4.416V9.432H26.5564C25.5324 9.432 24.7724 9.632 24.2764 10.032C23.7804 10.432 23.5324 11.128 23.5324 12.12V18H18.8284V4.536H23.5324V6.912ZM42.4268 11.112C42.4268 11.48 42.4028 11.848 42.3548 12.216H33.4508C33.4988 12.952 33.6988 13.504 34.0508 13.872C34.4188 14.224 34.8828 14.4 35.4428 14.4C36.2268 14.4 36.7868 14.048 37.1228 13.344H42.1388C41.9308 14.272 41.5228 15.104 40.9148 15.84C40.3228 16.56 39.5708 17.128 38.6588 17.544C37.7468 17.96 36.7388 18.168 35.6348 18.168C34.3068 18.168 33.1228 17.888 32.0828 17.328C31.0588 16.768 30.2508 15.968 29.6588 14.928C29.0828 13.888 28.7948 12.664 28.7948 11.256C28.7948 9.848 29.0828 8.632 29.6588 7.608C30.2348 6.568 31.0348 5.768 32.0588 5.208C33.0988 4.648 34.2908 4.368 35.6348 4.368C36.9628 4.368 38.1388 4.64 39.1628 5.184C40.1868 5.728 40.9868 6.512 41.5628 7.536C42.1388 8.544 42.4268 9.736 42.4268 11.112ZM37.6268 9.936C37.6268 9.36 37.4348 8.912 37.0508 8.592C36.6668 8.256 36.1868 8.088 35.6108 8.088C35.0348 8.088 34.5628 8.248 34.1948 8.568C33.8268 8.872 33.5868 9.328 33.4748 9.936H37.6268ZM43.5838 11.256C43.5838 9.864 43.8318 8.648 44.3278 7.608C44.8398 6.568 45.5278 5.768 46.3918 5.208C47.2718 4.648 48.2478 4.368 49.3198 4.368C50.2478 4.368 51.0478 4.552 51.7198 4.92C52.3918 5.288 52.9118 5.784 53.2798 6.408V4.536H57.9838V18H53.2798V16.128C52.9118 16.752 52.3838 17.248 51.6958 17.616C51.0238 17.984 50.2318 18.168 49.3198 18.168C48.2478 18.168 47.2718 17.888 46.3918 17.328C45.5278 16.768 44.8398 15.968 44.3278 14.928C43.8318 13.872 43.5838 12.648 43.5838 11.256ZM53.2798 11.256C53.2798 10.392 53.0398 9.712 52.5598 9.216C52.0958 8.72 51.5198 8.472 50.8318 8.472C50.1278 8.472 49.5438 8.72 49.0798 9.216C48.6158 9.696 48.3838 10.376 48.3838 11.256C48.3838 12.12 48.6158 12.808 49.0798 13.32C49.5438 13.816 50.1278 14.064 50.8318 14.064C51.5198 14.064 52.0958 13.816 52.5598 13.32C53.0398 12.824 53.2798 12.136 53.2798 11.256ZM68.6083 13.992V18H66.5683C63.1283 18 61.4083 16.296 61.4083 12.888V8.448H59.7523V4.536H61.4083V1.272H66.1363V4.536H68.5843V8.448H66.1363V12.96C66.1363 13.328 66.2163 13.592 66.3763 13.752C66.5523 13.912 66.8403 13.992 67.2403 13.992H68.6083ZM83.6299 11.112C83.6299 11.48 83.6059 11.848 83.5579 12.216H74.6539C74.7019 12.952 74.9019 13.504 75.2539 13.872C75.6219 14.224 76.0859 14.4 76.6459 14.4C77.4299 14.4 77.9899 14.048 78.3259 13.344H83.3419C83.1339 14.272 82.7259 15.104 82.1179 15.84C81.5259 16.56 80.7739 17.128 79.8619 17.544C78.9499 17.96 77.9419 18.168 76.8379 18.168C75.5099 18.168 74.3259 17.888 73.2859 17.328C72.2619 16.768 71.4539 15.968 70.8619 14.928C70.2859 13.888 69.9979 12.664 69.9979 11.256C69.9979 9.848 70.2859 8.632 70.8619 7.608C71.4379 6.568 72.2379 5.768 73.2619 5.208C74.3019 4.648 75.4939 4.368 76.8379 4.368C78.1659 4.368 79.3419 4.64 80.3659 5.184C81.3899 5.728 82.1899 6.512 82.7659 7.536C83.3419 8.544 83.6299 9.736 83.6299 11.112ZM78.8299 9.936C78.8299 9.36 78.6379 8.912 78.2539 8.592C77.8699 8.256 77.3899 8.088 76.8139 8.088C76.2379 8.088 75.7659 8.248 75.3979 8.568C75.0299 8.872 74.7899 9.328 74.6779 9.936H78.8299ZM89.3807 11.256C89.3807 9.864 89.6287 8.648 90.1247 7.608C90.6367 6.568 91.3247 5.768 92.1887 5.208C93.0687 4.648 94.0447 4.368 95.1167 4.368C96.0447 4.368 96.8447 4.552 97.5167 4.92C98.1887 5.288 98.7087 5.784 99.0767 6.408V4.536H103.781V18H99.0767V16.128C98.7087 16.752 98.1807 17.248 97.4927 17.616C96.8207 17.984 96.0287 18.168 95.1167 18.168C94.0447 18.168 93.0687 17.888 92.1887 17.328C91.3247 16.768 90.6367 15.968 90.1247 14.928C89.6287 13.872 89.3807 12.648 89.3807 11.256ZM99.0767 11.256C99.0767 10.392 98.8367 9.712 98.3567 9.216C97.8927 8.72 97.3167 8.472 96.6287 8.472C95.9247 8.472 95.3407 8.72 94.8767 9.216C94.4127 9.696 94.1807 10.376 94.1807 11.256C94.1807 12.12 94.4127 12.808 94.8767 13.32C95.3407 13.816 95.9247 14.064 96.6287 14.064C97.3167 14.064 97.8927 13.816 98.3567 13.32C98.8367 12.824 99.0767 12.136 99.0767 11.256ZM115.269 4.416C116.821 4.416 118.053 4.936 118.965 5.976C119.877 7 120.333 8.392 120.333 10.152V18H115.629V10.776C115.629 10.008 115.429 9.408 115.029 8.976C114.629 8.528 114.093 8.304 113.421 8.304C112.717 8.304 112.165 8.528 111.765 8.976C111.365 9.408 111.165 10.008 111.165 10.776V18H106.461V4.536H111.165V6.456C111.581 5.848 112.141 5.36 112.845 4.992C113.549 4.608 114.357 4.416 115.269 4.416ZM138.212 15.24H132.212L131.3 18H126.356L132.524 1.08H137.948L144.092 18H139.124L138.212 15.24ZM137.036 11.64L135.212 6.168L133.412 11.64H137.036ZM144.857 11.256C144.857 9.864 145.145 8.648 145.721 7.608C146.297 6.568 147.097 5.768 148.121 5.208C149.161 4.648 150.345 4.368 151.673 4.368C153.385 4.368 154.825 4.84 155.993 5.784C157.161 6.712 157.913 8.016 158.249 9.696H153.257C152.969 8.816 152.409 8.376 151.577 8.376C150.985 8.376 150.513 8.624 150.161 9.12C149.825 9.6 149.657 10.312 149.657 11.256C149.657 12.2 149.825 12.92 150.161 13.416C150.513 13.912 150.985 14.16 151.577 14.16C152.425 14.16 152.985 13.72 153.257 12.84H158.249C157.913 14.504 157.161 15.808 155.993 16.752C154.825 17.696 153.385 18.168 151.673 18.168C150.345 18.168 149.161 17.888 148.121 17.328C147.097 16.768 146.297 15.968 145.721 14.928C145.145 13.888 144.857 12.664 144.857 11.256ZM159.435 11.256C159.435 9.864 159.723 8.648 160.299 7.608C160.875 6.568 161.675 5.768 162.699 5.208C163.739 4.648 164.923 4.368 166.251 4.368C167.963 4.368 169.403 4.84 170.571 5.784C171.739 6.712 172.491 8.016 172.827 9.696H167.835C167.547 8.816 166.987 8.376 166.155 8.376C165.563 8.376 165.091 8.624 164.739 9.12C164.403 9.6 164.235 10.312 164.235 11.256C164.235 12.2 164.403 12.92 164.739 13.416C165.091 13.912 165.563 14.16 166.155 14.16C167.003 14.16 167.563 13.72 167.835 12.84H172.827C172.491 14.504 171.739 15.808 170.571 16.752C169.403 17.696 167.963 18.168 166.251 18.168C164.923 18.168 163.739 17.888 162.699 17.328C161.675 16.768 160.875 15.968 160.299 14.928C159.723 13.888 159.435 12.664 159.435 11.256ZM181.046 18.168C179.702 18.168 178.494 17.888 177.422 17.328C176.366 16.768 175.534 15.968 174.926 14.928C174.318 13.888 174.014 12.664 174.014 11.256C174.014 9.864 174.318 8.648 174.926 7.608C175.55 6.568 176.39 5.768 177.446 5.208C178.518 4.648 179.726 4.368 181.07 4.368C182.414 4.368 183.614 4.648 184.67 5.208C185.742 5.768 186.582 6.568 187.19 7.608C187.814 8.648 188.126 9.864 188.126 11.256C188.126 12.648 187.814 13.872 187.19 14.928C186.582 15.968 185.742 16.768 184.67 17.328C183.598 17.888 182.39 18.168 181.046 18.168ZM181.046 14.088C181.702 14.088 182.246 13.848 182.678 13.368C183.126 12.872 183.35 12.168 183.35 11.256C183.35 10.344 183.126 9.648 182.678 9.168C182.246 8.688 181.71 8.448 181.07 8.448C180.43 8.448 179.894 8.688 179.462 9.168C179.03 9.648 178.814 10.344 178.814 11.256C178.814 12.184 179.022 12.888 179.438 13.368C179.854 13.848 180.39 14.088 181.046 14.088ZM203.815 4.536V18H199.087V16.08C198.687 16.688 198.135 17.184 197.431 17.568C196.727 17.936 195.919 18.12 195.007 18.12C193.439 18.12 192.199 17.608 191.287 16.584C190.391 15.544 189.943 14.136 189.943 12.36V4.536H194.623V11.76C194.623 12.528 194.823 13.136 195.223 13.584C195.639 14.016 196.183 14.232 196.855 14.232C197.543 14.232 198.087 14.016 198.487 13.584C198.887 13.136 199.087 12.528 199.087 11.76V4.536H203.815ZM215.3 4.416C216.852 4.416 218.084 4.936 218.996 5.976C219.908 7 220.364 8.392 220.364 10.152V18H215.66V10.776C215.66 10.008 215.46 9.408 215.06 8.976C214.66 8.528 214.124 8.304 213.452 8.304C212.748 8.304 212.196 8.528 211.796 8.976C211.396 9.408 211.196 10.008 211.196 10.776V18H206.492V4.536H211.196V6.456C211.612 5.848 212.172 5.36 212.876 4.992C213.58 4.608 214.388 4.416 215.3 4.416ZM230.89 13.992V18H228.85C225.41 18 223.69 16.296 223.69 12.888V8.448H222.034V4.536H223.69V1.272H228.418V4.536H230.866V8.448H228.418V12.96C228.418 13.328 228.498 13.592 228.658 13.752C228.834 13.912 229.122 13.992 229.522 13.992H230.89Z" fill="url(#paint0_linear_28_2752)"/>
<defs>
<linearGradient id="paint0_linear_28_2752" x1="228" y1="-47.5" x2="1.5" y2="35" gradientUnits="userSpaceOnUse">
<stop offset="0.169647" stop-color="#41C9E2" stop-opacity="0.96"/>
<stop offset="0.808017" stop-color="#008DDA"/>
</linearGradient>
</defs>
</svg>
