<svg width="36" height="36" viewBox="0 0 46 46" fill="none" xmlns="http://www.w3.org/2000/svg">
<path d="M23.4688 18.8184V27.7256H36.0996C35.545 30.5902 33.8806 33.0157 31.3843 34.6466L39.0012 40.4384C43.4391 36.424 45.9995 30.5276 45.9995 23.5231C45.9995 21.8923 45.8502 20.3239 45.5727 18.8186L23.4688 18.8184Z" fill="#4285F4"/>
<path d="M10.3164 27.3779L8.59845 28.6667L2.51758 33.3084C6.37939 40.8147 14.2945 46.0002 23.4689 46.0002C29.8055 46.0002 35.1181 43.9511 39.0014 40.4385L31.3845 34.6466C29.2935 36.0266 26.6265 36.863 23.4689 36.863C17.3668 36.863 12.1823 32.8276 10.3259 27.3912L10.3164 27.3779Z" fill="#34A853"/>
<path d="M2.51747 12.6919C0.917354 15.7863 0 19.2782 0 22.9999C0 26.7217 0.917354 30.2135 2.51747 33.308C2.51747 33.3287 10.3266 27.3698 10.3266 27.3698C9.8572 25.9898 9.57976 24.5262 9.57976 22.9997C9.57976 21.4731 9.8572 20.0096 10.3266 18.6296L2.51747 12.6919Z" fill="#FBBC05"/>
<path d="M23.4694 9.15816C26.9259 9.15816 29.9982 10.329 32.4518 12.5872L39.1726 6.00098C35.0974 2.27923 29.8063 0 23.4694 0C14.295 0 6.37939 5.16453 2.51758 12.6918L10.3265 18.63C12.1826 13.1936 17.3673 9.15816 23.4694 9.15816Z" fill="#EA4335"/>
</svg>
