<svg width="268" height="135" viewBox="0 0 268 135" fill="none" xmlns="http://www.w3.org/2000/svg">
<g clip-path="url(#clip0_30_132)">
<path d="M242.119 109.807H38.3479C35.7429 109.804 33.2455 108.768 31.4035 106.928C29.5615 105.087 28.5254 102.592 28.5225 99.9886V22.725C28.5254 20.122 29.5615 17.6265 31.4035 15.7859C33.2455 13.9453 35.7429 12.9099 38.3479 12.907H242.119C244.724 12.9099 247.221 13.9453 249.063 15.7859C250.905 17.6265 251.941 20.122 251.944 22.725V99.9886C251.941 102.592 250.905 105.087 249.063 106.928C247.221 108.768 244.724 109.804 242.119 109.807Z" fill="white"/>
<path d="M242.119 109.807H38.3479C35.7429 109.804 33.2455 108.768 31.4035 106.928C29.5615 105.087 28.5254 102.592 28.5225 99.9886V22.725C28.5254 20.122 29.5615 17.6265 31.4035 15.7859C33.2455 13.9453 35.7429 12.9099 38.3479 12.907H242.119C244.724 12.9099 247.221 13.9453 249.063 15.7859C250.905 17.6265 251.941 20.122 251.944 22.725V99.9886C251.941 102.592 250.905 105.087 249.063 106.928C247.221 108.768 244.724 109.804 242.119 109.807ZM38.3479 13.7607C35.9686 13.7607 33.6868 14.7052 32.0044 16.3863C30.322 18.0674 29.3768 20.3475 29.3768 22.725V99.9886C29.3768 101.166 29.6089 102.331 30.0597 103.419C30.5106 104.507 31.1714 105.495 32.0044 106.327C32.8374 107.16 33.8264 107.82 34.9148 108.27C36.0032 108.721 37.1698 108.953 38.3479 108.953H242.119C243.297 108.953 244.463 108.721 245.552 108.27C246.64 107.82 247.629 107.16 248.462 106.327C249.295 105.495 249.956 104.507 250.407 103.419C250.858 102.331 251.09 101.166 251.09 99.9886V70.856C251.09 55.7134 245.07 41.191 234.354 30.4836C223.639 19.7761 209.106 13.7607 193.951 13.7607H38.3479Z" fill="#E6E6E6"/>
<path d="M22.2243 126.255C22.3076 125.683 21.7077 125.122 20.8844 125.002C20.061 124.882 19.326 125.249 19.2427 125.821C19.1594 126.394 19.7593 126.955 20.5826 127.074C21.4059 127.194 22.141 126.827 22.2243 126.255Z" fill="white"/>
<path d="M32.027 125.299C32.1104 124.727 31.5105 124.166 30.6871 124.046C29.8638 123.926 29.1288 124.293 29.0454 124.866C28.9621 125.438 29.562 125.999 30.3853 126.119C31.2087 126.238 31.9437 125.871 32.027 125.299Z" fill="#3F3D56"/>
<path d="M19.5397 118.325C19.6231 117.752 19.0232 117.191 18.1998 117.072C17.3765 116.952 16.6415 117.319 16.5581 117.891C16.4748 118.464 17.0747 119.025 17.898 119.144C18.7214 119.264 19.4564 118.897 19.5397 118.325Z" fill="#FF6584"/>
<path d="M15.2801 115.076C15.284 114.551 14.9907 114.123 14.625 114.12C14.2592 114.117 13.9594 114.541 13.9554 115.066C13.9515 115.592 14.2448 116.02 14.6106 116.023C14.9763 116.026 15.2761 115.602 15.2801 115.076Z" fill="#E6E6E6"/>
<path d="M13.8357 109.026C13.8397 108.501 13.5464 108.072 13.1806 108.07C12.8148 108.067 12.5151 108.49 12.5111 109.016C12.5071 109.541 12.8004 109.97 13.1662 109.972C13.532 109.975 13.8318 109.551 13.8357 109.026Z" fill="#3F3D56"/>
<path d="M25.0691 119.674C25.0731 119.149 24.7798 118.721 24.414 118.718C24.0482 118.715 23.7485 119.139 23.7445 119.664C23.7405 120.19 24.0338 120.618 24.3996 120.62C24.7654 120.623 25.0652 120.2 25.0691 119.674Z" fill="#E6E6E6"/>
<path d="M20.3318 122.038C20.3358 121.512 20.0425 121.084 19.6767 121.081C19.3109 121.079 19.0112 121.502 19.0072 122.028C19.0032 122.553 19.2965 122.981 19.6623 122.984C20.0281 122.987 20.3279 122.563 20.3318 122.038Z" fill="#FF6584"/>
<path d="M26.9266 126.406C26.9306 125.88 26.6372 125.452 26.2714 125.449C25.9057 125.447 25.6059 125.87 25.6019 126.396C25.5979 126.921 25.8913 127.349 26.257 127.352C26.6228 127.355 26.9226 126.931 26.9266 126.406Z" fill="#3F3D56"/>
<path d="M259.05 2.86951C259.231 2.15488 258.545 1.36452 257.517 1.10419C256.489 0.843848 255.508 1.21211 255.327 1.92674C255.146 2.64137 255.832 3.43175 256.86 3.69208C257.889 3.95242 258.869 3.58414 259.05 2.86951Z" fill="white"/>
<path d="M246.496 2.78847C246.678 2.07384 245.991 1.28347 244.963 1.02313C243.935 0.762794 242.955 1.13108 242.773 1.84571C242.592 2.56034 243.279 3.35069 244.307 3.61103C245.335 3.87137 246.315 3.5031 246.496 2.78847Z" fill="#3F3D56"/>
<path d="M261.407 13.2775C261.588 12.5628 260.901 11.7725 259.873 11.5121C258.845 11.2518 257.865 11.6201 257.684 12.3347C257.502 13.0493 258.189 13.8397 259.217 14.1C260.245 14.3604 261.225 13.9921 261.407 13.2775Z" fill="#FF6584"/>
<path d="M264.333 17.2021C264.408 16.5365 264.092 15.955 263.629 15.9032C263.166 15.8515 262.73 16.3491 262.655 17.0148C262.581 17.6804 262.896 18.2619 263.36 18.3137C263.823 18.3654 264.259 17.8677 264.333 17.2021Z" fill="#E6E6E6"/>
<path d="M265.368 25.062C265.442 24.3964 265.127 23.8148 264.663 23.7631C264.2 23.7113 263.764 24.209 263.689 24.8746C263.615 25.5402 263.93 26.1218 264.394 26.1735C264.857 26.2253 265.293 25.7276 265.368 25.062Z" fill="#3F3D56"/>
<path d="M252.531 10.082C252.605 9.41638 252.29 8.83484 251.826 8.78311C251.363 8.73137 250.927 9.22902 250.853 9.89464C250.778 10.5603 251.093 11.1418 251.557 11.1935C252.02 11.2453 252.456 10.7476 252.531 10.082Z" fill="#E6E6E6"/>
<path d="M258.848 7.71042C258.922 7.0448 258.607 6.46326 258.144 6.41152C257.68 6.35978 257.244 6.85743 257.17 7.52306C257.095 8.18868 257.411 8.77021 257.874 8.82195C258.338 8.87369 258.774 8.37604 258.848 7.71042Z" fill="#FF6584"/>
<path d="M251.065 1.30271C251.139 0.637083 250.824 0.0555477 250.361 0.0038084C249.897 -0.0479309 249.461 0.449718 249.387 1.11534C249.312 1.78096 249.628 2.3625 250.091 2.41424C250.554 2.46598 250.99 1.96833 251.065 1.30271Z" fill="#3F3D56"/>
<path d="M110.026 59.7844C110.037 67.5166 107.179 74.9783 102.004 80.7267V80.7309C101.272 81.5439 100.499 82.319 99.6883 83.0531C98.8585 83.804 97.9886 84.5094 97.0824 85.1661C96.4501 85.6271 95.8008 86.0625 95.1344 86.4724C94.3441 86.9632 93.531 87.4171 92.6951 87.8341C92.0757 88.1457 91.4434 88.436 90.7984 88.7049C86.9479 90.3219 82.8129 91.1535 78.6362 91.1509C76.2773 91.1535 73.9257 90.89 71.626 90.3654C70.5624 90.1238 69.5128 89.8245 68.4818 89.469C68.0845 89.3366 67.6873 89.1915 67.2942 89.0379C64.9112 88.1174 62.6512 86.9058 60.5659 85.4308C56.1583 82.3298 52.6241 78.1469 50.3038 73.285C47.9835 68.423 46.9553 63.0459 47.3183 57.6717C47.6813 52.2974 49.4233 47.1072 52.3764 42.6009C55.3294 38.0946 59.3941 34.4242 64.1788 31.9432C68.9635 29.4622 74.307 28.2543 79.6945 28.4358C85.0819 28.6173 90.3319 30.1821 94.9385 32.9795C99.5451 35.7769 103.353 39.7126 105.996 44.4074C108.638 49.1022 110.026 54.3979 110.026 59.7844Z" fill="#F2F2F2"/>
<path d="M203.975 36.4682H149.722C149.269 36.4675 148.835 36.2873 148.515 35.9672C148.195 35.647 148.016 35.2131 148.016 34.7607C148.016 34.3083 148.195 33.8744 148.515 33.5542C148.835 33.2341 149.269 33.0539 149.722 33.0532H203.975C204.429 33.0532 204.863 33.2331 205.184 33.5533C205.504 33.8736 205.684 34.3078 205.684 34.7607C205.684 35.2136 205.504 35.6479 205.184 35.9681C204.863 36.2883 204.429 36.4682 203.975 36.4682Z" fill="#41C9E2"/>
<path d="M203.975 59.5192H149.722C149.269 59.5186 148.835 59.3384 148.515 59.0182C148.195 58.6981 148.016 58.2641 148.016 57.8117C148.016 57.3593 148.195 56.9254 148.515 56.6052C148.835 56.2851 149.269 56.1049 149.722 56.1042H203.975C204.428 56.1049 204.862 56.2851 205.182 56.6052C205.502 56.9254 205.682 57.3593 205.682 57.8117C205.682 58.2641 205.502 58.6981 205.182 59.0182C204.862 59.3384 204.428 59.5186 203.975 59.5192Z" fill="#E6E6E6"/>
<path d="M203.975 82.5702H149.722C149.269 82.5696 148.835 82.3894 148.515 82.0692C148.195 81.7491 148.016 81.3152 148.016 80.8628C148.016 80.4103 148.195 79.9764 148.515 79.6563C148.835 79.3361 149.269 79.1559 149.722 79.1553H203.975C204.429 79.1553 204.863 79.3352 205.184 79.6554C205.504 79.9756 205.684 80.4099 205.684 80.8628C205.684 81.3156 205.504 81.7499 205.184 82.0701C204.863 82.3903 204.429 82.5702 203.975 82.5702Z" fill="#E6E6E6"/>
<path d="M68.3381 133.509C62.2132 125.369 58.6732 116.265 58.5572 105.887C58.3599 105.328 58.3926 104.713 58.6483 104.178C58.9039 103.643 59.3616 103.231 59.9208 103.032L80.7975 95.6511C81.3572 95.4539 81.9723 95.4866 82.5079 95.7421C83.0435 95.9975 83.4559 96.4548 83.6544 97.0137L93.4353 124.636C93.6326 125.195 93.5999 125.81 93.3442 126.345C93.0886 126.88 92.631 127.292 92.0717 127.491L71.195 134.872C70.6353 135.069 70.0202 135.036 69.4846 134.781C68.949 134.525 68.5366 134.068 68.3381 133.509Z" fill="#E6E6E6"/>
<path d="M66.9856 124.6C63.3019 120.878 61.725 114.24 60.6976 106.842C60.5127 106.318 60.5434 105.742 60.7828 105.241C61.0222 104.74 61.4508 104.354 61.9746 104.168L79.9163 97.8247C80.4405 97.64 81.0166 97.6706 81.5183 97.9098C82.0199 98.1491 82.4061 98.5774 82.5921 99.1008L91.2957 123.681C91.4805 124.205 91.4498 124.78 91.2104 125.281C90.971 125.783 90.5423 126.169 90.0185 126.354L78.904 130.284C76.5691 131.107 74.0029 130.97 71.7686 129.905C69.5342 128.839 67.8141 126.931 66.9856 124.6Z" fill="white"/>
<path d="M82.8318 112.342L68.8557 117.327C68.7456 117.366 68.6288 117.384 68.512 117.378C68.3953 117.372 68.2808 117.343 68.1751 117.293C68.0694 117.243 67.9747 117.173 67.8962 117.086C67.8178 117 67.7571 116.898 67.7178 116.788C67.6785 116.678 67.6613 116.562 67.6671 116.445C67.6729 116.328 67.7017 116.214 67.7518 116.108C67.8019 116.003 67.8723 115.908 67.9589 115.83C68.0456 115.751 68.1469 115.691 68.2571 115.651L82.2332 110.666C82.4556 110.587 82.7004 110.599 82.9138 110.7C83.1272 110.801 83.2917 110.983 83.3711 111.205C83.4505 111.427 83.4382 111.672 83.3371 111.885C83.236 112.098 83.0542 112.263 82.8318 112.342Z" fill="#41C9E2"/>
<path d="M70.2887 111.635L67.214 112.732C67.1039 112.771 66.987 112.789 66.8701 112.783C66.7533 112.777 66.6387 112.748 66.5329 112.698C66.4272 112.648 66.3323 112.578 66.2538 112.491C66.1753 112.405 66.1146 112.303 66.0752 112.193C66.0359 112.083 66.0187 111.966 66.0246 111.85C66.0304 111.733 66.0592 111.618 66.1094 111.513C66.1596 111.407 66.2301 111.312 66.3169 111.234C66.4037 111.156 66.5051 111.095 66.6154 111.056L69.6901 109.959C69.8002 109.92 69.9171 109.903 70.034 109.908C70.1508 109.914 70.2654 109.943 70.3712 109.993C70.4769 110.043 70.5718 110.113 70.6503 110.2C70.7288 110.286 70.7895 110.388 70.8288 110.498C70.8682 110.608 70.8854 110.725 70.8795 110.842C70.8737 110.958 70.8449 111.073 70.7947 111.178C70.7445 111.284 70.674 111.379 70.5872 111.457C70.5004 111.535 70.399 111.596 70.2887 111.635Z" fill="#41C9E2"/>
<path d="M85.4638 119.71L71.4877 124.695C71.2654 124.774 71.0207 124.761 70.8075 124.66C70.5943 124.559 70.43 124.378 70.3507 124.156C70.2713 123.934 70.2835 123.689 70.3844 123.476C70.4854 123.263 70.6669 123.098 70.889 123.019L84.8651 118.034C85.0875 117.955 85.3321 117.967 85.5453 118.068C85.7585 118.169 85.9228 118.351 86.0022 118.573C86.0815 118.795 86.0693 119.04 85.9684 119.253C85.8674 119.466 85.6859 119.63 85.4638 119.71Z" fill="#41C9E2"/>
<path d="M84.1482 116.026L70.1721 121.011C69.9497 121.09 69.7049 121.078 69.4915 120.977C69.2781 120.876 69.1136 120.694 69.0342 120.472C68.9549 120.25 68.9671 120.005 69.0682 119.792C69.1693 119.579 69.3511 119.414 69.5735 119.335L83.5496 114.35C83.6597 114.311 83.7766 114.293 83.8934 114.299C84.0103 114.305 84.1249 114.334 84.2306 114.384C84.3364 114.434 84.4313 114.504 84.5098 114.591C84.5883 114.677 84.649 114.779 84.6883 114.889C84.7277 114.999 84.7449 115.116 84.739 115.232C84.7332 115.349 84.7043 115.464 84.6542 115.569C84.604 115.675 84.5335 115.77 84.4467 115.848C84.3599 115.926 84.2585 115.987 84.1482 116.026Z" fill="#41C9E2"/>
<path d="M71.4568 45.5937C71.9119 49.263 74.4563 52.2884 78.1565 52.2884C79.9334 52.2884 81.6375 51.5831 82.8939 50.3276C84.1503 49.0721 84.8562 47.3693 84.8562 45.5937C84.8562 41.8964 81.8408 39.2409 78.1565 38.8991C74.2472 38.5364 70.8724 40.8828 71.4568 45.5937Z" fill="#2F2E41"/>
<path d="M83.9889 90.6941C79.8865 91.3988 75.6851 91.2871 71.626 90.3654C73.5526 89.3025 79.3966 89.9557 83.9889 90.6941Z" fill="#2F2E41"/>
<path d="M57.9135 102.47L61.1317 94.6982L63.6673 96.1058L62.136 104.011C62.2894 104.512 62.2999 105.046 62.1664 105.553C62.0328 106.059 61.7606 106.518 61.3802 106.879C60.9998 107.239 60.5263 107.486 60.013 107.592C59.4998 107.698 58.967 107.66 58.4747 107.48C57.9824 107.3 57.55 106.987 57.2261 106.575C56.9023 106.163 56.6998 105.669 56.6415 105.148C56.5832 104.628 56.6714 104.101 56.8961 103.628C57.1208 103.155 57.4731 102.754 57.9135 102.47Z" fill="#FFB6B6"/>
<path d="M91.2043 81.4397V81.444C91.089 84.1504 90.9309 86.7244 90.7985 88.7051C86.9481 90.3221 82.813 91.1537 78.6363 91.151C76.2775 91.1536 73.9258 90.8902 71.6261 90.3656C70.5626 90.124 69.513 89.8247 68.482 89.4692C68.6255 89.3766 68.7806 89.3034 68.9433 89.2515C70.4812 88.7307 68.9604 88.2569 68.9732 87.7617C69.0202 85.9518 69.52 83.779 70.1651 81.6959L67.2943 89.0381L65.7991 92.8543C65.7991 92.8543 65.8504 96.1497 64.9021 95.1423C63.9494 94.1349 64.0178 97.3962 64.0178 97.3962C63.7217 97.607 63.4668 97.8703 63.2659 98.1731C63.1814 98.3093 63.1495 98.4717 63.1762 98.6298V98.6341C63.2191 98.7583 63.3036 98.8638 63.4154 98.9329C64.0605 99.3683 63.1335 100.521 62.7234 100.978C62.6123 101.101 62.5397 101.174 62.5397 101.174L58.5967 100.892V100.815C58.6138 100.35 58.7206 97.8999 59.3315 97.3151C60.0022 96.6705 59.6732 95.6503 59.6732 95.6503C59.6732 95.6503 61.4247 94.1007 60.2499 92.8415C59.78 92.3335 59.9893 89.3241 60.566 85.431C61.8263 76.8424 64.8465 63.9509 66.1537 64.1344C66.4231 62.8268 67.0487 61.6191 67.9616 60.6443C68.8745 59.6696 70.0392 58.9658 71.327 58.6107L75.5862 57.4411L76.3465 54.4402H82.3443L83.3867 56.4123L87.7569 58.3845L87.8124 58.4101L87.9491 58.4698L88.0004 58.6321C88.0004 58.6321 87.9961 58.6363 88.0004 58.6363L90.4311 66.2645C91.5247 67.5195 91.482 74.8531 91.2043 81.4397Z" fill="#41C9E2"/>
<path d="M101.418 96.8108L97.3564 89.4441L100.041 88.3455L105.261 94.4799C105.748 94.6732 106.172 94.9984 106.484 95.4191C106.796 95.8397 106.985 96.3391 107.029 96.861C107.073 97.383 106.97 97.9068 106.732 98.3736C106.494 98.8404 106.131 99.2317 105.683 99.5034C105.235 99.7752 104.72 99.9167 104.196 99.912C103.672 99.9074 103.159 99.7567 102.716 99.4769C102.273 99.1972 101.917 98.7994 101.687 98.3284C101.458 97.8575 101.365 97.3319 101.418 96.8108Z" fill="#FFB6B6"/>
<path d="M87.7578 58.3257C88.4803 59.6228 95.0872 62.9587 93.9422 66.3078C93.9422 66.3078 100.149 85.7121 100.956 85.5855C101.763 85.4588 102.551 87.4631 102.551 87.4631C102.551 87.4631 102.38 88.7713 102.883 88.2277C103.387 87.6841 103.266 89.1091 103.266 89.1091C103.266 89.1091 103.025 90.3668 103.664 90.0249C104.304 89.6829 103.463 92.0899 103.463 92.0899L99.6217 93.8973L98.8917 92.8116C98.8917 92.8116 97.3319 92.5148 98.0658 92.2796C98.7998 92.0445 97.3756 91.2531 97.3756 91.2531C97.3756 91.2531 95.8857 90.2413 96.0933 88.5656C96.301 86.8898 92.2269 83.5956 92.2269 83.5956C89.4263 78.0702 87.8942 72.3973 87.8995 66.5456L87.7578 58.3257Z" fill="#41C9E2"/>
<path d="M78.8971 52.6858C82.1782 52.6858 84.8381 50.028 84.8381 46.7493C84.8381 43.4706 82.1782 40.8127 78.8971 40.8127C75.6159 40.8127 72.9561 43.4706 72.9561 46.7493C72.9561 50.028 75.6159 52.6858 78.8971 52.6858Z" fill="#FFB6B6"/>
<path d="M72.7449 47.396C72.933 48.686 74.0333 50.4859 73.7756 50.4859C73.518 50.4859 71.6858 45.1679 73.518 44.8212C74.8469 44.5696 75.1439 44.7903 76.386 44.2521L76.2107 44.4169C77.0327 45.0143 78.1768 44.6461 79.1148 44.2573C80.0553 43.871 81.1969 43.5028 82.0215 44.0976C82.5394 44.471 82.7584 45.1198 83.0805 45.6709C83.4026 46.2245 83.9979 46.7472 84.6112 46.5772C84.8501 46.485 85.0537 46.3194 85.1926 46.1042C85.3315 45.8891 85.3986 45.6355 85.3842 45.3799C85.3816 44.8701 84.7172 44.3851 84.941 43.9277C85.604 42.5721 85.0078 41.6482 83.5624 41.0104C83.0367 40.9305 82.511 40.849 81.9854 40.7657C82.2608 40.3845 82.5948 40.0491 82.9749 39.7718C82.8143 39.3604 82.5366 39.005 82.1761 38.7496C81.7307 38.5427 81.2343 38.4711 80.7485 38.5436C79.6611 38.6003 78.5745 38.6569 77.4888 38.7136C76.6802 38.6991 75.8777 38.8553 75.1336 39.1719C74.2369 39.6328 73.6494 40.5314 73.2216 41.4455C72.263 43.5002 72.4151 45.1533 72.7449 47.396Z" fill="#2F2E41"/>
<path d="M221.361 43.5023H132.015C131.917 43.5023 131.823 43.4633 131.753 43.3938C131.684 43.3243 131.645 43.23 131.645 43.1317C131.645 43.0334 131.684 42.9391 131.753 42.8696C131.823 42.8 131.917 42.761 132.015 42.761H221.361C221.46 42.761 221.554 42.8 221.623 42.8696C221.693 42.9391 221.732 43.0334 221.732 43.1317C221.732 43.23 221.693 43.3243 221.623 43.3938C221.554 43.4633 221.46 43.5023 221.361 43.5023Z" fill="#E6E6E6"/>
<path d="M221.361 66.4845H132.015C131.917 66.4845 131.823 66.4455 131.753 66.376C131.684 66.3064 131.645 66.2122 131.645 66.1138C131.645 66.0155 131.684 65.9213 131.753 65.8517C131.823 65.7822 131.917 65.7432 132.015 65.7432H221.361C221.46 65.7432 221.554 65.7822 221.623 65.8517C221.693 65.9213 221.732 66.0155 221.732 66.1138C221.732 66.2122 221.693 66.3064 221.623 66.376C221.554 66.4455 221.46 66.4845 221.361 66.4845Z" fill="#E6E6E6"/>
<path d="M221.361 89.4665H132.015C131.917 89.4665 131.823 89.4274 131.753 89.3579C131.684 89.2884 131.645 89.1941 131.645 89.0958C131.645 88.9975 131.684 88.9032 131.753 88.8337C131.823 88.7642 131.917 88.7251 132.015 88.7251H221.361C221.46 88.7251 221.554 88.7642 221.623 88.8337C221.693 88.9032 221.732 88.9975 221.732 89.0958C221.732 89.1941 221.693 89.2884 221.623 89.3579C221.554 89.4274 221.46 89.4665 221.361 89.4665Z" fill="#E6E6E6"/>
<path d="M234.66 87.997C231.389 87.997 228.226 86.8298 225.74 84.7056C224.91 83.9963 224.027 82.7632 223.114 81.0408C222.531 79.9313 222.204 78.7053 222.158 77.4531C222.112 76.2009 222.348 74.9543 222.848 73.8051C222.366 74.2948 221.833 74.7315 221.258 75.1078L220.968 75.301L220.951 74.9528C220.94 74.7264 220.934 74.5007 220.934 74.282C220.934 72.9935 221.91 71.686 221.46 70.4949C219.564 65.4751 213.551 60.4863 222.266 52.7174C223.072 51.9987 221.995 50.5618 221.995 49.4744C221.995 38.8182 237.067 20.3826 241.339 30.1488C246.607 42.1929 255.683 40.9047 259.704 43.3924L259.763 43.5684L259.591 43.6379C258.711 44.0074 257.784 44.2537 256.836 44.3699C257.847 44.5757 258.877 44.662 259.908 44.627L260.067 44.6214L260.106 44.7766C260.49 46.3132 260.683 47.8908 260.683 49.4744L260.682 49.6456C260.679 50.8484 260.929 52.0385 261.416 53.1383C261.904 54.238 262.618 55.2227 263.512 56.0282C264.924 57.3147 266.053 58.8811 266.825 60.6275C267.598 62.374 267.998 64.2621 268 66.1716C268 68.4307 266.464 71.3961 265.175 73.486C264.848 74.0184 264.405 74.4699 263.879 74.8067C263.352 75.1435 262.757 75.3569 262.136 75.4308C261.548 75.5049 260.951 75.4489 260.388 75.267C259.824 75.085 259.307 74.7814 258.874 74.3777C259.484 75.6036 260.279 76.7284 261.231 77.7128L261.407 77.8939L261.189 78.021C259.09 79.2438 256.704 79.8877 254.275 79.8867L254.133 79.8864C252.351 79.868 250.584 80.205 248.935 80.8777C247.286 81.5503 245.788 82.545 244.528 83.8036C243.245 85.1239 241.712 86.1749 240.017 86.895C238.323 87.6151 236.501 87.9898 234.66 87.997Z" fill="#E6E6E6"/>
<path d="M229.938 109.717C229.878 109.717 229.821 109.695 229.776 109.656C229.731 109.617 229.702 109.564 229.693 109.505C229.048 103.753 229.009 97.9498 229.578 92.1902C230.43 83.1042 233.166 70.0172 241.362 59.269C241.382 59.2433 241.406 59.2216 241.434 59.2053C241.463 59.189 241.493 59.1784 241.526 59.1741C241.558 59.1698 241.59 59.1718 241.622 59.1801C241.653 59.1883 241.682 59.2027 241.708 59.2223C241.734 59.242 241.756 59.2665 241.772 59.2945C241.788 59.3225 241.799 59.3534 241.803 59.3855C241.808 59.4176 241.806 59.4503 241.797 59.4816C241.789 59.5129 241.775 59.5423 241.755 59.568C233.63 70.2234 230.916 83.2144 230.07 92.2362C229.504 97.9573 229.542 103.722 230.182 109.435C230.187 109.47 230.185 109.506 230.175 109.54C230.165 109.574 230.147 109.605 230.124 109.632C230.101 109.658 230.072 109.68 230.04 109.694C230.008 109.709 229.973 109.717 229.938 109.717Z" fill="#3F3D56"/>
<path d="M236.626 74.4297C236.574 74.4297 236.523 74.4133 236.481 74.3827C236.439 74.3521 236.407 74.3089 236.391 74.2594C236.375 74.2098 236.375 74.1565 236.391 74.1069C236.407 74.0573 236.438 74.0141 236.481 73.9835C238.816 72.4039 241.339 71.1206 243.991 70.1631C248.135 68.6473 254.436 67.273 260.923 69.336C260.954 69.3458 260.982 69.3616 261.007 69.3825C261.032 69.4034 261.052 69.4289 261.067 69.4577C261.082 69.4865 261.091 69.5179 261.094 69.5502C261.097 69.5824 261.093 69.6149 261.083 69.6458C261.073 69.6767 261.057 69.7053 261.037 69.73C261.016 69.7548 260.99 69.7752 260.961 69.7901C260.933 69.8049 260.901 69.814 260.869 69.8167C260.836 69.8195 260.804 69.8158 260.773 69.806C254.419 67.7854 248.232 69.1369 244.161 70.6264C241.551 71.5675 239.069 72.8292 236.771 74.3826C236.729 74.4132 236.678 74.4297 236.626 74.4297Z" fill="#3F3D56"/>
<path d="M225.329 46.3137C225.325 46.2617 225.338 46.2099 225.365 46.1656C225.393 46.1214 225.434 46.0869 225.482 46.0673C225.53 46.0476 225.583 46.0438 225.634 46.0562C225.685 46.0687 225.73 46.0969 225.764 46.1367C227.509 48.3505 228.971 50.7725 230.118 53.347C231.929 57.3676 233.755 63.5486 232.163 70.1623C232.155 70.1939 232.142 70.2237 232.123 70.2499C232.104 70.2762 232.08 70.2985 232.052 70.3155C232.024 70.3325 231.993 70.3438 231.961 70.3489C231.929 70.354 231.897 70.3527 231.865 70.3451C231.833 70.3375 231.804 70.3238 231.777 70.3047C231.751 70.2856 231.729 70.2615 231.712 70.2338C231.695 70.2061 231.684 70.1753 231.679 70.1433C231.674 70.1112 231.675 70.0785 231.683 70.047C233.242 63.5688 231.448 57.5 229.668 53.5495C228.54 51.0163 227.102 48.6331 225.386 46.4547C225.353 46.415 225.333 46.3656 225.329 46.3137Z" fill="#3F3D56"/>
<path d="M23.4722 83.0626C22.2126 81.804 20.7142 80.8093 19.065 80.1367C17.4158 79.464 15.6488 79.127 13.8676 79.1454L13.7253 79.1458C11.296 79.1467 8.9101 78.5028 6.81155 77.2801L6.59318 77.1529L6.76906 76.9718C7.72126 75.9874 8.51635 74.8626 9.12647 73.6368C8.69315 74.0405 8.17633 74.344 7.61258 74.526C7.04884 74.708 6.45194 74.7639 5.86417 74.6898C5.24362 74.6159 4.64788 74.4026 4.12163 74.0657C3.59538 73.7289 3.15229 73.2774 2.82559 72.745C1.53655 70.6551 0 67.6897 0 65.4306C0.00200607 63.5211 0.402119 61.633 1.17484 59.8866C1.94756 58.1402 3.07594 56.5738 4.48805 55.2872C5.38204 54.4818 6.0961 53.497 6.58369 52.3973C7.07128 51.2976 7.32144 50.1075 7.31788 48.9047L7.31717 48.7335C7.31693 47.1499 7.51059 45.5722 7.89385 44.0356L7.93276 43.8805L8.09253 43.886C9.12281 43.921 10.1536 43.8347 11.1637 43.6289C10.2163 43.5128 9.28939 43.2664 8.40938 42.8969L8.23751 42.8274L8.29584 42.6514C12.3167 40.1637 21.3931 41.452 26.6612 29.4078C30.933 19.6417 46.0052 38.0773 46.0052 48.7335C46.0052 49.8208 44.9283 51.2577 45.7345 51.9764C54.4493 59.7453 48.4362 64.7341 46.5404 69.754C46.0906 70.945 47.0659 72.2525 47.0659 73.5411C47.0659 73.7597 47.0603 73.9854 47.0493 74.2118L47.0325 74.56L46.7419 74.3668C46.1671 73.9905 45.6343 73.5538 45.1525 73.0641C45.6523 74.2134 45.8878 75.4599 45.8418 76.7121C45.7957 77.9643 45.4693 79.1903 44.8865 80.2998C43.9732 82.0222 43.0897 83.2553 42.2604 83.9646C39.604 86.2362 36.1794 87.4079 32.6871 87.2403C29.1948 87.0726 25.8985 85.5782 23.4722 83.0626Z" fill="#E6E6E6"/>
<path d="M38.0622 108.976C38.1216 108.976 38.179 108.954 38.2238 108.915C38.2686 108.876 38.2979 108.823 38.3063 108.764C38.9518 103.012 38.9903 97.2089 38.4214 91.4492C37.5695 82.3632 34.8335 69.2762 26.6375 58.5281C26.6179 58.5023 26.5933 58.4807 26.5653 58.4644C26.5373 58.4481 26.5063 58.4375 26.4742 58.4331C26.4421 58.4288 26.4094 58.4308 26.3781 58.4391C26.3467 58.4474 26.3173 58.4618 26.2916 58.4814C26.2658 58.501 26.2441 58.5255 26.2278 58.5535C26.2115 58.5815 26.2009 58.6125 26.1966 58.6446C26.1922 58.6767 26.1942 58.7093 26.2025 58.7406C26.2108 58.7719 26.2252 58.8013 26.2448 58.8271C34.37 69.4824 37.084 82.4734 37.9299 91.4952C38.4957 97.2164 38.4581 102.981 37.8175 108.694C37.8126 108.729 37.8152 108.765 37.8252 108.799C37.8353 108.833 37.8525 108.864 37.8757 108.891C37.8989 108.917 37.9275 108.939 37.9597 108.954C37.9919 108.968 38.0269 108.976 38.0622 108.976Z" fill="#3F3D56"/>
<path d="M31.3741 73.6887C31.4262 73.6888 31.477 73.6723 31.5192 73.6417C31.5614 73.6111 31.5929 73.5679 31.609 73.5184C31.6251 73.4689 31.6251 73.4155 31.609 73.3659C31.5929 73.3164 31.5616 73.2732 31.5194 73.2426C29.184 71.663 26.6612 70.3797 24.0089 69.4222C19.8652 67.9063 13.5641 66.532 7.07724 68.595C7.04635 68.6048 7.0177 68.6206 6.99293 68.6415C6.96816 68.6624 6.94775 68.688 6.93286 68.7167C6.91797 68.7455 6.90889 68.7769 6.90616 68.8092C6.90342 68.8415 6.90707 68.874 6.9169 68.9048C6.92673 68.9357 6.94254 68.9643 6.96344 68.9891C6.98434 69.0138 7.00992 69.0342 7.03871 69.0491C7.0675 69.064 7.09894 69.073 7.13124 69.0758C7.16353 69.0785 7.19604 69.0749 7.22693 69.065C13.5809 67.0445 19.7678 68.396 23.8391 69.8855C26.4488 70.8265 28.9312 72.0883 31.2292 73.6416C31.2712 73.6722 31.322 73.6888 31.3741 73.6887Z" fill="#3F3D56"/>
<path d="M42.6713 45.5727C42.6751 45.5208 42.6623 45.4689 42.6348 45.4247C42.6073 45.3804 42.5665 45.346 42.5182 45.3263C42.4699 45.3067 42.4166 45.3028 42.366 45.3153C42.3154 45.3278 42.27 45.3559 42.2364 45.3958C40.4915 47.6096 39.0289 50.0315 37.8822 52.606C36.0707 56.6266 34.2452 62.8077 35.8372 69.4214C35.8447 69.4529 35.8584 69.4827 35.8774 69.509C35.8965 69.5353 35.9205 69.5575 35.9482 69.5745C35.9758 69.5915 36.0066 69.6029 36.0387 69.6079C36.0707 69.613 36.1035 69.6117 36.1351 69.6042C36.1666 69.5966 36.1964 69.5828 36.2226 69.5637C36.2489 69.5446 36.2711 69.5205 36.288 69.4928C36.3049 69.4652 36.3162 69.4344 36.3212 69.4023C36.3262 69.3703 36.3248 69.3375 36.3171 69.306C34.7579 62.8278 36.5524 56.759 38.3324 52.8085C39.4596 50.2754 40.8978 47.8922 42.6138 45.7138C42.6474 45.674 42.6675 45.6246 42.6713 45.5727Z" fill="#3F3D56"/>
</g>
<defs>
<clipPath id="clip0_30_132">
<rect width="268" height="135" fill="white"/>
</clipPath>
</defs>
</svg>
