<svg width="202" height="145" viewBox="0 0 202 145" fill="none" xmlns="http://www.w3.org/2000/svg">
<g clip-path="url(#clip0_288_653)">
<path d="M149.606 144.771L149.402 144.694C149.357 144.677 144.893 142.957 142.801 139.058C140.71 135.159 141.734 130.465 141.744 130.418L141.793 130.204L141.997 130.281C142.041 130.298 146.506 132.018 148.598 135.916C150.689 139.816 149.665 144.51 149.654 144.557L149.606 144.771ZM143.136 138.877C144.904 142.174 148.432 143.863 149.326 144.249C149.496 143.286 150.029 139.391 148.263 136.098C146.496 132.805 142.967 131.113 142.072 130.726C141.902 131.689 141.369 135.584 143.136 138.877Z" fill="#E5E5E5"/>
<path d="M144.399 137.691C148.158 139.964 149.605 144.479 149.605 144.479C149.605 144.479 144.959 145.309 141.2 143.036C137.442 140.762 135.994 136.247 135.994 136.247C135.994 136.247 140.641 135.418 144.399 137.691Z" fill="#E5E5E5"/>
<path d="M202 64.6468H88.7266V0H202V64.6468Z" fill="white"/>
<path d="M202 64.6468H88.7266V0H202V64.6468ZM90.0852 63.281H200.641V1.36578H90.0852V63.281Z" fill="#E5E5E5"/>
<path d="M181.827 20.9045H108.899V22.7376H181.827V20.9045Z" fill="#3F3D56"/>
<path d="M181.827 31.3755H108.899V33.2085H181.827V31.3755Z" fill="#3F3D56"/>
<path d="M181.827 41.8464H108.899V43.6795H181.827V41.8464Z" fill="#3F3D56"/>
<path d="M121.2 18.179H118.029V25.4631H121.2V18.179Z" fill="#41C9E2"/>
<path d="M143.618 28.7126H140.447V35.9968H143.618V28.7126Z" fill="#41C9E2"/>
<path d="M171.698 39.1836H168.527V46.4677H171.698V39.1836Z" fill="#41C9E2"/>
<path d="M133.367 74.3975H89.4248V76.2305H133.367V74.3975Z" fill="#CBCBCB"/>
<path d="M133.367 80.5435H89.4248V82.3765H133.367V80.5435Z" fill="#CBCBCB"/>
<path d="M110.949 86.6895H89.4248V88.5225H110.949V86.6895Z" fill="#CBCBCB"/>
<path d="M131.616 100.157H118.256V86.7268H131.616V100.157Z" fill="white"/>
<path d="M131.616 100.157H118.256V86.7268H131.616V100.157ZM118.709 99.7017H131.163V87.1821H118.709V99.7017Z" fill="#CBCBCB"/>
<path d="M201.361 100.157H188.001V86.7268H201.361V100.157Z" fill="white"/>
<path d="M201.361 100.157H188.001V86.7268H201.361V100.157ZM188.454 99.7017H200.908V87.1821H188.454V99.7017Z" fill="#E5E5E5"/>
<path d="M124.341 95.421L122.739 93.3496L123.671 92.6212L124.429 93.6016L126.992 90.8823L127.849 91.6984L124.341 95.421Z" fill="#41C9E2"/>
<path d="M201.302 74.3975H157.359V76.2305H201.302V74.3975Z" fill="#E5E5E5"/>
<path d="M201.302 80.5435H157.359V82.3765H201.302V80.5435Z" fill="#E5E5E5"/>
<path d="M178.884 86.6895H157.359V88.5225H178.884V86.6895Z" fill="#E5E5E5"/>
<path d="M42.244 93.3096C42.4571 93.1425 42.6351 92.9345 42.7677 92.6977C42.9003 92.4609 42.9849 92.2001 43.0165 91.9302C43.0481 91.6603 43.0261 91.3868 42.9518 91.1256C42.8775 90.8643 42.7524 90.6205 42.5837 90.4082C42.513 90.3193 42.4353 90.2362 42.3513 90.1599L41.7424 63.2156L37.3477 64.0044L39.3326 90.3817C39.0464 90.746 38.8911 91.1968 38.892 91.661C38.8928 92.1252 39.0497 92.5754 39.3372 92.9386C39.6756 93.3726 40.1706 93.6549 40.7148 93.7244C41.2589 93.7938 41.8084 93.6448 42.244 93.3096Z" fill="#FFB7B7"/>
<path d="M41.0307 58.2429C40.9775 58.23 40.9239 58.2184 40.8695 58.2081C40.4406 58.1272 39.9997 58.1372 39.5749 58.2375C39.1502 58.3378 38.7509 58.5261 38.4027 58.7904C38.0545 59.0547 37.765 59.3892 37.5527 59.7724C37.3405 60.1556 37.2102 60.5792 37.1702 61.0159L37.0479 62.3515L37.5279 76.7643L42.2046 76.7383L43.1942 64.6881L43.418 61.5287C43.4708 60.7857 43.26 60.0479 42.8229 59.4463C42.3859 58.8448 41.7509 58.4184 41.0307 58.2429Z" fill="#CBCBCB"/>
<path d="M59.8374 142.242L62.4288 142.242L63.6614 132.195H59.8369L59.8374 142.242Z" fill="#FFB7B7"/>
<path d="M59.1768 141.392L64.2799 141.392C65.1423 141.392 65.9697 141.736 66.5796 142.349C67.1894 142.962 67.5321 143.794 67.5322 144.661V144.767L59.1769 144.767L59.1768 141.392Z" fill="#2F2E41"/>
<path d="M19.8135 139.194L22.1588 140.301L27.524 131.734L24.0623 130.1L19.8135 139.194Z" fill="#FFB7B7"/>
<path d="M19.5749 138.141L24.1939 140.322C24.9745 140.691 25.5777 141.356 25.8705 142.172C26.1632 142.987 26.1217 143.886 25.7551 144.671L25.7101 144.767L18.1475 141.197L19.5749 138.141Z" fill="#2F2E41"/>
<path d="M47.1766 53.0319C48.7803 50.0828 47.7021 46.3851 44.7683 44.773C41.8345 43.1608 38.1561 44.2447 36.5523 47.1938C34.9485 50.1429 36.0268 53.8406 38.9606 55.4527C41.8944 57.0649 45.5728 55.981 47.1766 53.0319Z" fill="#FFB8B8"/>
<path d="M43.6139 58.9489L38.108 57.321L34.4158 66.6974L41.282 80.9573L41.4115 83.4967C41.4115 83.4967 36.5811 89.4461 36.1647 98.1473L34.351 103.161L32.2134 107.914L19.3008 134.475L24.6134 137.843L48.0705 98.6531L59.5948 139.158L64.4279 139.43L59.9217 88.2188L54.936 78.1132L52.7293 73.1015C52.7293 73.1015 55.2322 67.6121 50.3867 65.0399L43.6139 58.9489Z" fill="#2F2E41"/>
<path d="M48.3159 43.4314C46.8191 42.1926 44.3892 42.3104 42.7111 43.4062C41.7104 42.8223 40.5509 42.5737 39.4003 42.6962C38.2497 42.8188 37.1678 43.3062 36.3111 44.088C34.6381 45.683 34.2003 48.4365 35.0927 50.5798C35.4662 51.688 35.5635 52.8714 35.3763 54.0262C35.189 55.1811 34.7228 56.2721 34.0186 57.2037C35.6413 57.2989 37.2639 57.3941 38.8905 57.4215C39.2678 57.1818 39.6163 56.8991 39.9293 56.5792C40.5762 57.2793 41.2278 57.6391 41.3576 57.6173C43.0968 57.3967 44.8563 57.3907 46.5969 57.5993C45.7712 54.96 44.9455 52.3207 43.9324 49.9839C45.6384 50.9101 48.0003 50.3246 49.0823 48.7073C50.1643 47.0899 49.8128 44.6702 48.3159 43.4314Z" fill="#2F2E41"/>
<path d="M54.996 93.472C55.1641 93.2592 55.2885 93.0149 55.362 92.7535C55.4355 92.492 55.4566 92.2184 55.4242 91.9486C55.3918 91.6789 55.3064 91.4183 55.1731 91.1819C55.0398 90.9455 54.8611 90.7381 54.6475 90.5716C54.558 90.5019 54.463 90.4396 54.3635 90.3852L47.4688 64.3403L43.3818 66.1458L51.4814 91.3144C51.2884 91.736 51.243 92.2109 51.3523 92.6619C51.4617 93.1129 51.7196 93.5134 52.084 93.7985C52.5144 94.1403 53.0616 94.2977 53.6067 94.2366C54.1519 94.1754 54.6511 93.9007 54.996 93.472Z" fill="#FFB7B7"/>
<path d="M45.6142 59.6755C45.5595 59.6755 45.5047 59.677 45.4494 59.6798C45.0137 59.7026 44.5874 59.8165 44.198 60.0144C43.8086 60.2122 43.4646 60.4897 43.188 60.8289C42.9113 61.1681 42.7082 61.5616 42.5916 61.9842C42.475 62.4069 42.4474 62.8494 42.5107 63.2833L42.7042 64.6104L46.5423 78.5055L51.0817 77.3748L49.2248 65.4286L48.7032 62.3049C48.5807 61.5702 48.2032 60.9029 47.6377 60.4216C47.0722 59.9402 46.3552 59.6759 45.6142 59.6755Z" fill="#CBCBCB"/>
<path d="M86.5025 145H0.226446C0.166389 145 0.108791 144.976 0.0663244 144.933C0.0238575 144.891 0 144.833 0 144.772C0 144.712 0.0238575 144.654 0.0663244 144.611C0.108791 144.569 0.166389 144.545 0.226446 144.545H86.5025C86.5626 144.545 86.6202 144.569 86.6626 144.611C86.7051 144.654 86.729 144.712 86.729 144.772C86.729 144.833 86.7051 144.891 86.6626 144.933C86.6202 144.976 86.5626 145 86.5025 145Z" fill="#CBCBCB"/>
<path d="M162.136 145H128.622C128.562 145 128.504 144.976 128.462 144.933C128.419 144.891 128.396 144.833 128.396 144.772C128.396 144.712 128.419 144.654 128.462 144.611C128.504 144.569 128.562 144.545 128.622 144.545H162.136C162.196 144.545 162.254 144.569 162.296 144.611C162.339 144.654 162.362 144.712 162.362 144.772C162.362 144.833 162.339 144.891 162.296 144.933C162.254 144.976 162.196 145 162.136 145Z" fill="#CBCBCB"/>
</g>
<defs>
<clipPath id="clip0_288_653">
<rect width="202" height="145" fill="white"/>
</clipPath>
</defs>
</svg>
