<svg width="267" height="27" viewBox="0 0 267 27" fill="none" xmlns="http://www.w3.org/2000/svg">
<path d="M5.42691 16.4H10.6829V20H0.722906V3.08H5.42691V16.4ZM18.776 20.168C17.432 20.168 16.224 19.888 15.152 19.328C14.096 18.768 13.264 17.968 12.656 16.928C12.048 15.888 11.744 14.664 11.744 13.256C11.744 11.864 12.048 10.648 12.656 9.608C13.28 8.568 14.12 7.768 15.176 7.208C16.248 6.648 17.456 6.368 18.8 6.368C20.144 6.368 21.344 6.648 22.4 7.208C23.472 7.768 24.312 8.568 24.92 9.608C25.544 10.648 25.856 11.864 25.856 13.256C25.856 14.648 25.544 15.872 24.92 16.928C24.312 17.968 23.472 18.768 22.4 19.328C21.328 19.888 20.12 20.168 18.776 20.168ZM18.776 16.088C19.432 16.088 19.976 15.848 20.408 15.368C20.856 14.872 21.08 14.168 21.08 13.256C21.08 12.344 20.856 11.648 20.408 11.168C19.976 10.688 19.44 10.448 18.8 10.448C18.16 10.448 17.624 10.688 17.192 11.168C16.76 11.648 16.544 12.344 16.544 13.256C16.544 14.184 16.752 14.888 17.168 15.368C17.584 15.848 18.12 16.088 18.776 16.088ZM32.7378 6.368C33.6498 6.368 34.4418 6.552 35.1138 6.92C35.8018 7.288 36.3298 7.784 36.6978 8.408V6.536H41.4018V19.856C41.4018 21.12 41.1618 22.256 40.6818 23.264C40.2018 24.288 39.4498 25.104 38.4258 25.712C37.4178 26.32 36.1378 26.624 34.5858 26.624C32.5058 26.624 30.8418 26.136 29.5938 25.16C28.3458 24.184 27.6338 22.856 27.4578 21.176H32.0898C32.1858 21.608 32.4258 21.944 32.8098 22.184C33.1938 22.424 33.6898 22.544 34.2978 22.544C35.8978 22.544 36.6978 21.648 36.6978 19.856V18.128C36.3298 18.752 35.8018 19.248 35.1138 19.616C34.4418 19.984 33.6498 20.168 32.7378 20.168C31.6658 20.168 30.6898 19.888 29.8098 19.328C28.9458 18.768 28.2578 17.968 27.7458 16.928C27.2498 15.872 27.0018 14.648 27.0018 13.256C27.0018 11.864 27.2498 10.648 27.7458 9.608C28.2578 8.568 28.9458 7.768 29.8098 7.208C30.6898 6.648 31.6658 6.368 32.7378 6.368ZM36.6978 13.256C36.6978 12.392 36.4578 11.712 35.9778 11.216C35.5138 10.72 34.9378 10.472 34.2498 10.472C33.5458 10.472 32.9618 10.72 32.4978 11.216C32.0338 11.696 31.8018 12.376 31.8018 13.256C31.8018 14.12 32.0338 14.808 32.4978 15.32C32.9618 15.816 33.5458 16.064 34.2498 16.064C34.9378 16.064 35.5138 15.816 35.9778 15.32C36.4578 14.824 36.6978 14.136 36.6978 13.256ZM46.4583 5.288C45.6263 5.288 44.9543 5.064 44.4423 4.616C43.9463 4.152 43.6983 3.576 43.6983 2.888C43.6983 2.184 43.9463 1.6 44.4423 1.136C44.9543 0.671999 45.6263 0.439999 46.4583 0.439999C47.2743 0.439999 47.9303 0.671999 48.4263 1.136C48.9383 1.6 49.1943 2.184 49.1943 2.888C49.1943 3.576 48.9383 4.152 48.4263 4.616C47.9303 5.064 47.2743 5.288 46.4583 5.288ZM48.7863 6.536V20H44.0823V6.536H48.7863ZM60.2731 6.416C61.8251 6.416 63.0571 6.936 63.9691 7.976C64.8811 9 65.3371 10.392 65.3371 12.152V20H60.6331V12.776C60.6331 12.008 60.4331 11.408 60.0331 10.976C59.6331 10.528 59.0971 10.304 58.4251 10.304C57.7211 10.304 57.1691 10.528 56.7691 10.976C56.3691 11.408 56.1691 12.008 56.1691 12.776V20H51.4651V6.536H56.1691V8.456C56.5851 7.848 57.1451 7.36 57.8491 6.992C58.5531 6.608 59.3611 6.416 60.2731 6.416ZM80.456 15.992V20H78.416C74.976 20 73.256 18.296 73.256 14.888V10.448H71.6V6.536H73.256V3.272H77.984V6.536H80.432V10.448H77.984V14.96C77.984 15.328 78.064 15.592 78.224 15.752C78.4 15.912 78.688 15.992 79.088 15.992H80.456ZM88.8775 20.168C87.5335 20.168 86.3255 19.888 85.2535 19.328C84.1975 18.768 83.3655 17.968 82.7575 16.928C82.1495 15.888 81.8455 14.664 81.8455 13.256C81.8455 11.864 82.1495 10.648 82.7575 9.608C83.3815 8.568 84.2215 7.768 85.2775 7.208C86.3495 6.648 87.5575 6.368 88.9015 6.368C90.2455 6.368 91.4455 6.648 92.5015 7.208C93.5735 7.768 94.4135 8.568 95.0215 9.608C95.6455 10.648 95.9575 11.864 95.9575 13.256C95.9575 14.648 95.6455 15.872 95.0215 16.928C94.4135 17.968 93.5735 18.768 92.5015 19.328C91.4295 19.888 90.2215 20.168 88.8775 20.168ZM88.8775 16.088C89.5335 16.088 90.0775 15.848 90.5095 15.368C90.9575 14.872 91.1815 14.168 91.1815 13.256C91.1815 12.344 90.9575 11.648 90.5095 11.168C90.0775 10.688 89.5415 10.448 88.9015 10.448C88.2615 10.448 87.7255 10.688 87.2935 11.168C86.8615 11.648 86.6455 12.344 86.6455 13.256C86.6455 14.184 86.8535 14.888 87.2695 15.368C87.6855 15.848 88.2215 16.088 88.8775 16.088ZM116.961 6.536L108.417 26.408H103.305L106.521 19.424L101.001 6.536H106.233L109.065 14.168L111.801 6.536H116.961ZM124.456 20.168C123.112 20.168 121.904 19.888 120.832 19.328C119.776 18.768 118.944 17.968 118.336 16.928C117.728 15.888 117.424 14.664 117.424 13.256C117.424 11.864 117.728 10.648 118.336 9.608C118.96 8.568 119.8 7.768 120.856 7.208C121.928 6.648 123.136 6.368 124.48 6.368C125.824 6.368 127.024 6.648 128.08 7.208C129.152 7.768 129.992 8.568 130.6 9.608C131.224 10.648 131.536 11.864 131.536 13.256C131.536 14.648 131.224 15.872 130.6 16.928C129.992 17.968 129.152 18.768 128.08 19.328C127.008 19.888 125.8 20.168 124.456 20.168ZM124.456 16.088C125.112 16.088 125.656 15.848 126.088 15.368C126.536 14.872 126.76 14.168 126.76 13.256C126.76 12.344 126.536 11.648 126.088 11.168C125.656 10.688 125.12 10.448 124.48 10.448C123.84 10.448 123.304 10.688 122.872 11.168C122.44 11.648 122.224 12.344 122.224 13.256C122.224 14.184 122.432 14.888 122.848 15.368C123.264 15.848 123.8 16.088 124.456 16.088ZM147.225 6.536V20H142.497V18.08C142.097 18.688 141.545 19.184 140.841 19.568C140.137 19.936 139.329 20.12 138.417 20.12C136.849 20.12 135.609 19.608 134.697 18.584C133.801 17.544 133.353 16.136 133.353 14.36V6.536H138.033V13.76C138.033 14.528 138.233 15.136 138.633 15.584C139.049 16.016 139.593 16.232 140.265 16.232C140.953 16.232 141.497 16.016 141.897 15.584C142.297 15.136 142.497 14.528 142.497 13.76V6.536H147.225ZM154.607 8.912C155.135 8.144 155.775 7.536 156.527 7.088C157.279 6.64 158.087 6.416 158.951 6.416V11.432H157.631C156.607 11.432 155.847 11.632 155.351 12.032C154.855 12.432 154.607 13.128 154.607 14.12V20H149.903V6.536H154.607V8.912ZM164.463 13.256C164.463 11.864 164.711 10.648 165.207 9.608C165.719 8.568 166.407 7.768 167.271 7.208C168.151 6.648 169.127 6.368 170.199 6.368C171.127 6.368 171.927 6.552 172.599 6.92C173.271 7.288 173.791 7.784 174.159 8.408V6.536H178.863V20H174.159V18.128C173.791 18.752 173.263 19.248 172.575 19.616C171.903 19.984 171.111 20.168 170.199 20.168C169.127 20.168 168.151 19.888 167.271 19.328C166.407 18.768 165.719 17.968 165.207 16.928C164.711 15.872 164.463 14.648 164.463 13.256ZM174.159 13.256C174.159 12.392 173.919 11.712 173.439 11.216C172.975 10.72 172.399 10.472 171.711 10.472C171.007 10.472 170.423 10.72 169.959 11.216C169.495 11.696 169.263 12.376 169.263 13.256C169.263 14.12 169.495 14.808 169.959 15.32C170.423 15.816 171.007 16.064 171.711 16.064C172.399 16.064 172.975 15.816 173.439 15.32C173.919 14.824 174.159 14.136 174.159 13.256ZM180.775 13.256C180.775 11.864 181.063 10.648 181.639 9.608C182.215 8.568 183.015 7.768 184.039 7.208C185.079 6.648 186.263 6.368 187.591 6.368C189.303 6.368 190.743 6.84 191.911 7.784C193.079 8.712 193.831 10.016 194.167 11.696H189.175C188.887 10.816 188.327 10.376 187.495 10.376C186.903 10.376 186.431 10.624 186.079 11.12C185.743 11.6 185.575 12.312 185.575 13.256C185.575 14.2 185.743 14.92 186.079 15.416C186.431 15.912 186.903 16.16 187.495 16.16C188.343 16.16 188.903 15.72 189.175 14.84H194.167C193.831 16.504 193.079 17.808 191.911 18.752C190.743 19.696 189.303 20.168 187.591 20.168C186.263 20.168 185.079 19.888 184.039 19.328C183.015 18.768 182.215 17.968 181.639 16.928C181.063 15.888 180.775 14.664 180.775 13.256ZM195.353 13.256C195.353 11.864 195.641 10.648 196.217 9.608C196.793 8.568 197.593 7.768 198.617 7.208C199.657 6.648 200.841 6.368 202.169 6.368C203.881 6.368 205.321 6.84 206.489 7.784C207.657 8.712 208.409 10.016 208.745 11.696H203.753C203.465 10.816 202.905 10.376 202.073 10.376C201.481 10.376 201.009 10.624 200.657 11.12C200.321 11.6 200.153 12.312 200.153 13.256C200.153 14.2 200.321 14.92 200.657 15.416C201.009 15.912 201.481 16.16 202.073 16.16C202.921 16.16 203.481 15.72 203.753 14.84H208.745C208.409 16.504 207.657 17.808 206.489 18.752C205.321 19.696 203.881 20.168 202.169 20.168C200.841 20.168 199.657 19.888 198.617 19.328C197.593 18.768 196.793 17.968 196.217 16.928C195.641 15.888 195.353 14.664 195.353 13.256ZM216.963 20.168C215.619 20.168 214.411 19.888 213.339 19.328C212.283 18.768 211.451 17.968 210.843 16.928C210.235 15.888 209.931 14.664 209.931 13.256C209.931 11.864 210.235 10.648 210.843 9.608C211.467 8.568 212.307 7.768 213.363 7.208C214.435 6.648 215.643 6.368 216.987 6.368C218.331 6.368 219.531 6.648 220.587 7.208C221.659 7.768 222.499 8.568 223.107 9.608C223.731 10.648 224.043 11.864 224.043 13.256C224.043 14.648 223.731 15.872 223.107 16.928C222.499 17.968 221.659 18.768 220.587 19.328C219.515 19.888 218.307 20.168 216.963 20.168ZM216.963 16.088C217.619 16.088 218.163 15.848 218.595 15.368C219.043 14.872 219.267 14.168 219.267 13.256C219.267 12.344 219.043 11.648 218.595 11.168C218.163 10.688 217.627 10.448 216.987 10.448C216.347 10.448 215.811 10.688 215.379 11.168C214.947 11.648 214.731 12.344 214.731 13.256C214.731 14.184 214.939 14.888 215.355 15.368C215.771 15.848 216.307 16.088 216.963 16.088ZM239.733 6.536V20H235.005V18.08C234.605 18.688 234.053 19.184 233.349 19.568C232.645 19.936 231.837 20.12 230.925 20.12C229.357 20.12 228.117 19.608 227.205 18.584C226.309 17.544 225.861 16.136 225.861 14.36V6.536H230.541V13.76C230.541 14.528 230.741 15.136 231.141 15.584C231.557 16.016 232.101 16.232 232.773 16.232C233.461 16.232 234.005 16.016 234.405 15.584C234.805 15.136 235.005 14.528 235.005 13.76V6.536H239.733ZM251.218 6.416C252.77 6.416 254.002 6.936 254.914 7.976C255.826 9 256.282 10.392 256.282 12.152V20H251.578V12.776C251.578 12.008 251.378 11.408 250.978 10.976C250.578 10.528 250.042 10.304 249.37 10.304C248.666 10.304 248.114 10.528 247.714 10.976C247.314 11.408 247.114 12.008 247.114 12.776V20H242.41V6.536H247.114V8.456C247.53 7.848 248.09 7.36 248.794 6.992C249.498 6.608 250.306 6.416 251.218 6.416ZM266.808 15.992V20H264.768C261.328 20 259.608 18.296 259.608 14.888V10.448H257.952V6.536H259.608V3.272H264.336V6.536H266.784V10.448H264.336V14.96C264.336 15.328 264.416 15.592 264.576 15.752C264.752 15.912 265.04 15.992 265.44 15.992H266.808Z" fill="url(#paint0_linear_28_2803)"/>
<defs>
<linearGradient id="paint0_linear_28_2803" x1="263.382" y1="-45.5" x2="11.6996" y2="60.3364" gradientUnits="userSpaceOnUse">
<stop offset="0.169647" stop-color="#41C9E2" stop-opacity="0.96"/>
<stop offset="0.808017" stop-color="#008DDA"/>
</linearGradient>
</defs>
</svg>
