<svg width="46" height="39" viewBox="0 0 39 39" fill="none" xmlns="http://www.w3.org/2000/svg">
<rect width="46" height="39" rx="19.5" fill="#1DA1F2"/>
<path d="M29.057 15.2852C29.057 15.4984 29.057 15.7117 29.057 15.8945C29.057 22.2016 24.243 29.4836 15.468 29.4836C12.7562 29.4836 10.2578 28.6914 8.125 27.3508C8.49062 27.3813 8.88672 27.4117 9.25234 27.4117C11.4766 27.4117 13.5484 26.65 15.1937 25.3703C13.0914 25.3398 11.3242 23.9383 10.7453 22.0492C11.05 22.1102 11.3242 22.1406 11.6594 22.1406C12.0859 22.1406 12.5125 22.0797 12.9086 21.9578C10.7148 21.5313 9.06953 19.6117 9.06953 17.2961C9.06953 17.2656 9.06953 17.2656 9.06953 17.2352C9.70937 17.6008 10.4406 17.8141 11.2328 17.8445C9.95312 16.9914 9.1 15.5289 9.1 13.8531C9.1 12.9695 9.34375 12.1469 9.73984 11.4461C12.0859 14.3406 15.6203 16.2297 19.5812 16.443C19.4898 16.1078 19.4594 15.7117 19.4594 15.3461C19.4594 12.6953 21.5922 10.5625 24.243 10.5625C25.6141 10.5625 26.8633 11.1414 27.7164 12.0555C28.8133 11.8422 29.8187 11.4461 30.7633 10.8977C30.3977 12.025 29.6359 12.9391 28.6609 13.5484C29.6359 13.4266 30.55 13.1828 31.4031 12.7867C30.7937 13.7617 30.0016 14.6148 29.057 15.2852Z" fill="white"/>
</svg>
