<svg width="210" height="145" viewBox="0 0 210 145" fill="none" xmlns="http://www.w3.org/2000/svg">
<path d="M87.4812 145.001H17.9314C17.59 145 17.2627 144.864 17.0213 144.621C16.7798 144.379 16.644 144.05 16.6436 143.708V84.0038C16.644 83.661 16.7798 83.3325 17.0213 83.0901C17.2627 82.8477 17.59 82.7114 17.9314 82.7109H87.4812C87.8226 82.7114 88.1499 82.8477 88.3913 83.0901C88.6328 83.3325 88.7686 83.661 88.7691 84.0038V143.707C88.7687 144.05 88.6329 144.379 88.3914 144.621C88.15 144.864 87.8226 145 87.4812 145V145.001ZM17.9314 83.2271C17.7268 83.2275 17.5307 83.3093 17.386 83.4546C17.2413 83.5998 17.1598 83.7967 17.1594 84.0021V143.707C17.1598 143.913 17.2413 144.11 17.386 144.255C17.5307 144.4 17.7268 144.482 17.9314 144.482H87.4812C87.6858 144.482 87.882 144.4 88.0267 144.255C88.1714 144.11 88.2528 143.913 88.2532 143.707V84.0038C88.2528 83.7984 88.1713 83.6015 88.0266 83.4563C87.8819 83.311 87.6858 83.2292 87.4812 83.2288L17.9314 83.2271Z" fill="#E6E6E6"/>
<path d="M28.7376 139.65C31.6351 139.65 33.984 137.292 33.984 134.383C33.984 131.475 31.6351 129.117 28.7376 129.117C25.8401 129.117 23.4912 131.475 23.4912 134.383C23.4912 137.292 25.8401 139.65 28.7376 139.65Z" fill="#E6E6E6"/>
<path d="M40.8548 130.873C40.6229 130.873 40.4005 130.965 40.2366 131.13C40.0726 131.294 39.9805 131.517 39.9805 131.75C39.9805 131.983 40.0726 132.206 40.2366 132.371C40.4005 132.536 40.6229 132.628 40.8548 132.628H82.077C82.3089 132.628 82.5313 132.536 82.6952 132.371C82.8592 132.206 82.9513 131.983 82.9513 131.75C82.9513 131.517 82.8592 131.294 82.6952 131.13C82.5313 130.965 82.3089 130.873 82.077 130.873H40.8548Z" fill="#E6E6E6"/>
<path d="M40.8548 136.139C40.6229 136.139 40.4005 136.232 40.2366 136.396C40.0726 136.561 39.9805 136.784 39.9805 137.017C39.9805 137.25 40.0726 137.473 40.2366 137.638C40.4005 137.802 40.6229 137.895 40.8548 137.895H58.5929C58.8248 137.895 59.0472 137.802 59.2111 137.638C59.3751 137.473 59.4672 137.25 59.4672 137.017C59.4672 136.784 59.3751 136.561 59.2111 136.396C59.0472 136.232 58.8248 136.139 58.5929 136.139H40.8548Z" fill="#E6E6E6"/>
<path d="M104.006 124.177H34.4559C34.1144 124.176 33.7871 124.04 33.5456 123.798C33.3042 123.555 33.1684 123.227 33.168 122.884V92.244C33.1684 91.9013 33.3042 91.5726 33.5456 91.3303C33.7871 91.0879 34.1144 90.9516 34.4559 90.9512H104.006C104.347 90.9516 104.675 91.0879 104.916 91.3303C105.158 91.5726 105.293 91.9013 105.294 92.244V122.884C105.293 123.227 105.158 123.555 104.916 123.798C104.675 124.04 104.347 124.176 104.006 124.177Z" fill="#41C9E2"/>
<path d="M48.6195 101.63C48.3876 101.63 48.1652 101.723 48.0012 101.887C47.8372 102.052 47.7451 102.275 47.7451 102.508C47.7451 102.741 47.8372 102.964 48.0012 103.129C48.1652 103.293 48.3876 103.386 48.6195 103.386H89.8419C90.0738 103.386 90.2962 103.293 90.4601 103.129C90.6241 102.964 90.7162 102.741 90.7162 102.508C90.7162 102.275 90.6241 102.052 90.4601 101.887C90.2962 101.723 90.0738 101.63 89.8419 101.63H48.6195Z" fill="white"/>
<path d="M48.6195 106.717C48.3876 106.717 48.1652 106.809 48.0012 106.974C47.8372 107.138 47.7451 107.362 47.7451 107.595C47.7451 107.827 47.8372 108.051 48.0012 108.215C48.1652 108.38 48.3876 108.472 48.6195 108.472H89.8419C90.0738 108.472 90.2962 108.38 90.4601 108.215C90.6241 108.051 90.7162 107.827 90.7162 107.595C90.7162 107.362 90.6241 107.138 90.4601 106.974C90.2962 106.809 90.0738 106.717 89.8419 106.717H48.6195Z" fill="white"/>
<path d="M48.6195 111.741C48.3876 111.741 48.1652 111.834 48.0012 111.998C47.8372 112.163 47.7451 112.386 47.7451 112.619C47.7451 112.852 47.8372 113.075 48.0012 113.24C48.1652 113.404 48.3876 113.497 48.6195 113.497H66.3575C66.5894 113.497 66.8118 113.404 66.9758 113.24C67.1398 113.075 67.2319 112.852 67.2319 112.619C67.2319 112.386 67.1398 112.163 66.9758 111.998C66.8118 111.834 66.5894 111.741 66.3575 111.741H48.6195Z" fill="white"/>
<path d="M210 144.413H0V144.897H210V144.413Z" fill="#3F3D56"/>
<path d="M182.299 144.414H112.749C112.407 144.413 112.08 144.277 111.839 144.034C111.597 143.792 111.461 143.464 111.461 143.121V125.802C111.461 125.459 111.597 125.13 111.839 124.888C112.08 124.646 112.407 124.509 112.749 124.509H182.299C182.64 124.509 182.967 124.646 183.209 124.888C183.45 125.13 183.586 125.459 183.586 125.802V143.121C183.586 143.463 183.45 143.792 183.209 144.034C182.967 144.277 182.64 144.413 182.299 144.414ZM112.749 125.025C112.544 125.025 112.348 125.107 112.203 125.252C112.059 125.398 111.977 125.595 111.977 125.8V143.119C111.977 143.324 112.059 143.521 112.203 143.666C112.348 143.812 112.544 143.893 112.749 143.894H182.299C182.503 143.893 182.699 143.812 182.844 143.666C182.989 143.521 183.07 143.324 183.071 143.119V125.802C183.07 125.596 182.989 125.399 182.844 125.254C182.699 125.109 182.503 125.027 182.299 125.027L112.749 125.025Z" fill="#E6E6E6"/>
<path d="M123.556 139.063C126.453 139.063 128.802 136.705 128.802 133.796C128.802 130.888 126.453 128.53 123.556 128.53C120.658 128.53 118.31 130.888 118.31 133.796C118.31 136.705 120.658 139.063 123.556 139.063Z" fill="#E6E6E6"/>
<path d="M135.672 130.286C135.44 130.286 135.218 130.378 135.054 130.543C134.89 130.707 134.798 130.931 134.798 131.163C134.798 131.396 134.89 131.619 135.054 131.784C135.218 131.949 135.44 132.041 135.672 132.041H176.894C177.126 132.041 177.349 131.949 177.513 131.784C177.677 131.619 177.769 131.396 177.769 131.163C177.769 130.931 177.677 130.707 177.513 130.543C177.349 130.378 177.126 130.286 176.894 130.286H135.672Z" fill="#E6E6E6"/>
<path d="M135.672 135.552C135.44 135.552 135.218 135.645 135.054 135.809C134.89 135.974 134.798 136.197 134.798 136.43C134.798 136.663 134.89 136.886 135.054 137.051C135.218 137.215 135.44 137.308 135.672 137.308H153.41C153.642 137.308 153.865 137.215 154.029 137.051C154.192 136.886 154.285 136.663 154.285 136.43C154.285 136.197 154.192 135.974 154.029 135.809C153.865 135.645 153.642 135.552 153.41 135.552H135.672Z" fill="#E6E6E6"/>
<path d="M170.091 124.101L106.505 95.6576C106.193 95.5175 105.949 95.2592 105.826 94.9393C105.703 94.6194 105.712 94.2641 105.85 93.9511L112.856 78.1466C112.995 77.8339 113.252 77.5896 113.571 77.4672C113.89 77.3447 114.244 77.3542 114.556 77.4935L178.143 105.937C178.455 106.077 178.699 106.336 178.821 106.656C178.944 106.975 178.935 107.331 178.797 107.644L171.792 123.448C171.652 123.761 171.395 124.005 171.077 124.127C170.758 124.25 170.403 124.241 170.091 124.101ZM114.348 77.9645C114.16 77.8812 113.948 77.8757 113.757 77.949C113.566 78.0224 113.412 78.1687 113.328 78.356L106.323 94.1603C106.24 94.3479 106.235 94.5609 106.308 94.7526C106.382 94.9443 106.528 95.0992 106.715 95.1833L170.301 123.627C170.488 123.71 170.701 123.716 170.892 123.643C171.083 123.569 171.237 123.423 171.321 123.236L178.326 107.433C178.408 107.245 178.413 107.032 178.34 106.84C178.266 106.649 178.12 106.494 177.933 106.41L114.348 77.9645Z" fill="#E6E6E6"/>
<path d="M118.555 95.207C121.205 96.3929 124.308 95.2009 125.485 92.5445C126.662 89.8881 125.468 86.7732 122.818 85.5873C120.167 84.4013 117.064 85.5934 115.887 88.2498C114.71 90.9062 115.904 94.0211 118.555 95.207Z" fill="#E6E6E6"/>
<path d="M133.183 92.1386C132.971 92.0438 132.73 92.0372 132.514 92.1203C132.297 92.2034 132.123 92.3693 132.029 92.5816C131.935 92.7939 131.929 93.0351 132.012 93.2522C132.095 93.4693 132.261 93.6445 132.473 93.7393L170.152 110.585C170.364 110.68 170.604 110.686 170.821 110.603C171.037 110.52 171.212 110.354 171.306 110.142C171.4 109.93 171.406 109.688 171.323 109.471C171.24 109.254 171.074 109.079 170.862 108.984L133.183 92.1386Z" fill="#E6E6E6"/>
<path d="M131.047 96.9526C130.835 96.8578 130.595 96.8513 130.378 96.9344C130.162 97.0175 129.987 97.1834 129.893 97.3957C129.799 97.6081 129.793 97.8493 129.876 98.0665C129.959 98.2836 130.125 98.4589 130.337 98.5536L146.551 105.804C146.763 105.899 147.004 105.905 147.221 105.822C147.437 105.739 147.612 105.573 147.706 105.361C147.8 105.149 147.806 104.907 147.723 104.69C147.639 104.473 147.473 104.298 147.261 104.203L131.047 96.9526Z" fill="#E6E6E6"/>
<path d="M117.825 75.9596L48.5474 82.0512C48.2073 82.0807 47.8695 81.9737 47.6081 81.7537C47.3467 81.5336 47.183 81.2186 47.153 80.8775L45.6575 63.6434C45.6284 63.3023 45.7353 62.9635 45.9549 62.7011C46.1744 62.4388 46.4887 62.2745 46.8288 62.2441L116.106 56.1525C116.447 56.123 116.784 56.2301 117.046 56.4501C117.307 56.6701 117.471 56.9852 117.501 57.3262L118.996 74.5601C119.026 74.9012 118.919 75.2401 118.699 75.5025C118.479 75.7649 118.165 75.9292 117.825 75.9596ZM46.8733 62.7577C46.6695 62.7761 46.4812 62.8747 46.3497 63.0319C46.2181 63.1891 46.1539 63.3921 46.1712 63.5966L47.6666 80.8304C47.6848 81.0348 47.7829 81.2236 47.9396 81.3554C48.0963 81.4873 48.2987 81.5515 48.5026 81.534L117.78 75.4424C117.984 75.4241 118.172 75.3255 118.304 75.1683C118.436 75.0111 118.5 74.808 118.482 74.6035L116.987 57.3714C116.969 57.167 116.871 56.9782 116.714 56.8463C116.557 56.7144 116.355 56.6502 116.151 56.6678L46.8733 62.7577Z" fill="#E6E6E6"/>
<path d="M58.8525 75.7771C61.7393 75.5232 63.8758 72.9695 63.6246 70.0734C63.3734 67.1772 60.8296 65.0353 57.9428 65.2892C55.056 65.5432 52.9195 68.0968 53.1707 70.993C53.4219 73.8891 55.9657 76.0311 58.8525 75.7771Z" fill="#E6E6E6"/>
<path d="M70.1619 65.9821C69.9309 66.0024 69.7174 66.1137 69.5683 66.2916C69.4192 66.4695 69.3467 66.6993 69.3668 66.9306C69.3869 67.1618 69.4979 67.3755 69.6754 67.5247C69.853 67.6739 70.0825 67.7463 70.3134 67.7261L111.371 64.1216C111.602 64.1013 111.816 63.99 111.965 63.8121C112.114 63.6343 112.186 63.4044 112.166 63.1732C112.146 62.9419 112.035 62.7282 111.858 62.579C111.68 62.4298 111.451 62.3574 111.22 62.3777L70.1619 65.9821Z" fill="#E6E6E6"/>
<path d="M70.6179 71.2267C70.387 71.247 70.1734 71.3584 70.0243 71.5364C69.8752 71.7144 69.8028 71.9444 69.8229 72.1758C69.843 72.4072 69.954 72.6211 70.1315 72.7704C70.309 72.9197 70.5385 72.9922 70.7695 72.9719L88.4371 71.4197C88.6681 71.3995 88.8816 71.2881 89.0307 71.1101C89.1799 70.9321 89.2523 70.7021 89.2322 70.4707C89.2121 70.2392 89.1011 70.0253 88.9236 69.8761C88.746 69.7268 88.5165 69.6543 88.2856 69.6746L70.6179 71.2267Z" fill="#E6E6E6"/>
<path d="M104.703 20.1541C109.1 20.1541 112.665 16.5757 112.665 12.1615C112.665 7.74733 109.1 4.16895 104.703 4.16895C100.306 4.16895 96.7412 7.74733 96.7412 12.1615C96.7412 16.5757 100.306 20.1541 104.703 20.1541Z" fill="#2F2E41"/>
<path d="M104.865 20.8602C108.138 20.8602 110.791 18.1969 110.791 14.9115C110.791 11.6262 108.138 8.96289 104.865 8.96289C101.593 8.96289 98.9395 11.6262 98.9395 14.9115C98.9395 18.1969 101.593 20.8602 104.865 20.8602Z" fill="#FEB8B8"/>
<path d="M113.871 23.5448C113.871 23.5448 103.014 21.6072 96.0176 24.0292L98.0684 40.3776L97.5858 43.0418L112.062 42.5574L111.097 39.8932L113.871 23.5448Z" fill="#FEB8B8"/>
<path d="M106.327 41.1869C103.827 41.157 101.331 40.9982 98.8473 40.7112C98.3373 40.6549 97.8669 40.4085 97.5291 40.0208C97.1913 39.6331 97.0107 39.1323 97.0231 38.6174L97.1992 30.9719L97.2197 30.9421C99.3173 27.8921 98.2955 25.6644 97.5092 24.465C97.3433 24.2117 97.2551 23.9151 97.2554 23.612C97.1348 23.4424 97.1077 23.7101 97.183 23.5202C97.2201 23.426 97.28 23.3425 97.3574 23.2775C97.4347 23.2124 97.5271 23.1678 97.626 23.1477L98.8236 22.9074C98.9674 22.8786 99.1166 22.9033 99.2435 22.9769C99.3704 23.0505 99.4662 23.1679 99.5132 23.3073C99.9156 24.5127 101.484 28.3913 105.078 28.3903C108.081 28.3903 109.201 24.125 109.268 23.1392C109.279 22.9865 109.347 22.8436 109.459 22.7393C109.571 22.6349 109.717 22.5769 109.87 22.5768H111.366C111.46 22.5746 111.554 22.5938 111.641 22.6329C111.727 22.6721 111.803 22.7302 111.864 22.803C111.939 22.8957 111.984 23.0086 111.995 23.1272C112.005 23.2458 111.98 23.3649 111.923 23.4693C110.216 26.6203 112.711 31.6072 112.736 31.6556L112.752 31.6871L112.048 39.0241C112.005 39.4545 111.83 39.8607 111.545 40.1855C111.261 40.5103 110.882 40.7375 110.462 40.835C109.374 41.0915 107.903 41.1869 106.327 41.1869Z" fill="#CCCCCC"/>
<path d="M92.5494 58.2108C90.928 58.2108 89.4438 58.0315 88.2645 57.6079C86.8627 57.1044 85.9825 56.2901 85.6481 55.1859C85.4902 54.7168 85.4429 54.2172 85.5102 53.7265C85.5774 53.2359 85.7573 52.7677 86.0356 52.3588C88.1093 49.2417 95.3054 48.3625 96.2709 48.2586L96.7824 43.9797C96.8431 43.4858 97.0792 43.0306 97.4474 42.6975C97.8155 42.3644 98.2911 42.1759 98.7867 42.1666L110.906 41.9767C111.393 41.9649 111.868 42.129 112.244 42.4391C112.621 42.7493 112.873 43.1849 112.957 43.6665L113.645 47.469L105.698 51.3381L106.9 54.7156L106.822 54.7682C104.496 56.3245 97.8071 58.2105 92.5494 58.2108Z" fill="#2F2E41"/>
<path d="M112.545 46.9168C112.545 46.9168 123.643 45.4636 122.919 51.2764C122.195 57.0892 113.751 61.2066 100.964 51.2764L102.411 48.37C102.411 48.37 109.65 50.3076 112.545 48.8544V46.9168Z" fill="#2F2E41"/>
<path d="M102.653 49.097C102.653 49.097 102.653 46.1906 100.241 46.4328C97.8278 46.675 93.485 46.9172 93.485 46.9172C93.485 46.9172 92.0374 47.886 93.9675 48.3704C95.8977 48.8548 101.688 51.2768 101.688 51.2768L102.653 49.097Z" fill="#FEB8B8"/>
<path d="M106.754 48.6126C106.754 48.6126 106.754 45.7062 109.167 45.9484C111.579 46.1906 115.922 46.4328 115.922 46.4328C115.922 46.4328 117.37 47.4016 115.44 47.886C113.509 48.3704 107.719 50.7924 107.719 50.7924L106.754 48.6126Z" fill="#FEB8B8"/>
<path d="M121.212 48.062L117.612 35.5338C117.612 35.5338 116.888 31.1742 116.164 27.0568C115.44 22.9394 112.786 23.4238 112.786 23.4238L112.304 23.666V30.2054L112.786 36.2604L117.603 49.5571C117.461 50.0182 117.453 50.5102 117.58 50.9758C117.706 51.4414 117.962 51.8613 118.317 52.1864C118.672 52.5116 119.112 52.7285 119.586 52.812C120.059 52.8954 120.547 52.8419 120.991 52.6577C121.435 52.4735 121.818 52.1662 122.095 51.7717C122.372 51.3771 122.531 50.9117 122.554 50.4297C122.577 49.9477 122.463 49.469 122.226 49.0496C121.988 48.6301 121.636 48.2873 121.212 48.061V48.062Z" fill="#FEB8B8"/>
<path d="M96.8626 23.9082C96.8626 23.9082 94.2087 23.4238 93.4849 27.5412C92.7611 31.6586 92.0373 36.0181 92.0373 36.0181L88.4373 48.5463C88.0127 48.7726 87.661 49.1155 87.4233 49.5349C87.1855 49.9543 87.0716 50.433 87.0947 50.915C87.1179 51.397 87.2772 51.8625 87.554 52.257C87.8308 52.6515 88.2137 52.9588 88.6581 53.1431C89.1024 53.3273 89.5897 53.3808 90.0632 53.2973C90.5367 53.2139 90.9767 52.9969 91.332 52.6718C91.6872 52.3467 91.9429 51.9268 92.0693 51.4612C92.1957 50.9956 92.1875 50.5035 92.0457 50.0424L96.8626 36.7457L97.3452 30.6907V24.692C97.3452 24.5292 97.3 24.3697 97.2148 24.2313C97.1296 24.0928 97.0076 23.981 96.8626 23.9082Z" fill="#FEB8B8"/>
<path d="M98.999 11.257C101.313 12.6752 103.922 13.5382 106.623 13.7788L105.819 12.8122C106.405 13.0293 107.02 13.1519 107.644 13.1755C107.956 13.1846 108.266 13.1201 108.549 12.9872C108.831 12.8544 109.079 12.6568 109.272 12.4104C109.43 12.1545 109.524 11.8642 109.545 11.5641C109.567 11.2641 109.516 10.9632 109.397 10.6872C109.152 10.1366 108.771 9.65808 108.29 9.29718C107.437 8.61987 106.43 8.16491 105.359 7.97285C104.289 7.78078 103.188 7.85758 102.154 8.19639C101.444 8.40894 100.809 8.81789 100.32 9.37637C100.08 9.65761 99.9134 9.99431 99.835 10.3562C99.7565 10.7181 99.7688 11.0939 99.8707 11.4498" fill="#2F2E41"/>
<path d="M105.453 5.05613C103.584 3.15354 101.322 1.68534 98.8269 0.754911C97.2251 0.159345 95.4817 -0.20879 93.8073 0.129562C92.1329 0.467913 90.5502 1.63119 90.0822 3.28008C89.7002 4.62864 90.0947 6.08086 90.6875 7.35046C91.2803 8.62007 92.0719 9.79668 92.5513 11.1142C93.0407 12.458 93.1879 13.9032 92.9797 15.3187C92.7715 16.7341 92.2144 18.0749 91.359 19.2193C90.5036 20.3637 89.377 21.2756 88.0814 21.872C86.7859 22.4684 85.3625 22.7306 83.9404 22.6347C85.5856 22.856 87.1023 23.6323 88.7105 24.0455C90.3188 24.4587 92.2169 24.4306 93.4119 23.2741C94.6764 22.0505 94.7017 20.0608 94.6404 18.2988L94.3678 10.4407C94.3215 9.10496 94.2819 7.72612 94.7618 6.47928C95.2417 5.23244 96.3822 4.14061 97.7137 4.15199C98.723 4.16071 99.6159 4.7742 100.425 5.37945C101.235 5.98471 102.09 6.63041 103.096 6.72027C104.103 6.81012 105.249 6.06367 105.174 5.05321" fill="#2F2E41"/>
<path d="M201.046 133.571C200.95 137.172 200.348 140.742 199.26 144.176C199.236 144.255 199.209 144.334 199.183 144.413H192.521C192.528 144.342 192.535 144.262 192.542 144.176C192.987 139.049 190.449 108.22 187.387 102.885C187.655 103.318 201.562 117.282 201.046 133.571Z" fill="#E6E6E6"/>
<path d="M200.546 144.176C200.49 144.255 200.432 144.335 200.373 144.414H195.375C195.413 144.346 195.457 144.266 195.508 144.176C196.333 142.68 198.777 138.207 201.046 133.571C203.482 128.589 205.72 123.417 205.531 121.545C205.59 121.967 207.277 134.836 200.546 144.176Z" fill="#E6E6E6"/>
</svg>
