<svg width="36" height="38" viewBox="0 0 36 38" fill="none" xmlns="http://www.w3.org/2000/svg">
<path d="M18 0C16.0222 0 14.0888 0.58649 12.4443 1.6853C10.7998 2.78412 9.51808 4.3459 8.7612 6.17317C8.00433 8.00043 7.80629 10.0111 8.19215 11.9509C8.578 13.8907 9.53041 15.6725 10.9289 17.0711C12.3275 18.4696 14.1093 19.422 16.0491 19.8079C17.9889 20.1937 19.9996 19.9957 21.8268 19.2388C23.6541 18.4819 25.2159 17.2002 26.3147 15.5557C27.4135 13.9112 28 11.9778 28 10C28 7.34784 26.9464 4.8043 25.0711 2.92893C23.1957 1.05357 20.6522 0 18 0ZM18 16C16.8133 16 15.6533 15.6481 14.6666 14.9888C13.6799 14.3295 12.9108 13.3925 12.4567 12.2961C12.0026 11.1997 11.8838 9.99334 12.1153 8.82946C12.3468 7.66557 12.9182 6.59647 13.7574 5.75736C14.5965 4.91824 15.6656 4.3468 16.8295 4.11529C17.9933 3.88378 19.1997 4.0026 20.2961 4.45672C21.3925 4.91085 22.3295 5.67988 22.9888 6.66658C23.6481 7.65327 24 8.81331 24 10C24 11.5913 23.3679 13.1174 22.2426 14.2426C21.1174 15.3679 19.5913 16 18 16ZM36 38V36C36 32.287 34.525 28.726 31.8995 26.1005C29.274 23.475 25.713 22 22 22H14C10.287 22 6.72601 23.475 4.1005 26.1005C1.475 28.726 0 32.287 0 36V38H4V36C4 33.3478 5.05357 30.8043 6.92893 28.9289C8.8043 27.0536 11.3478 26 14 26H22C24.6522 26 27.1957 27.0536 29.0711 28.9289C30.9464 30.8043 32 33.3478 32 36V38H36Z" fill="black"/>
</svg>
