<svg width="32" height="23" viewBox="0 0 32 23" fill="none" xmlns="http://www.w3.org/2000/svg">
<path d="M13.5497 14V8.90909H15.5582C15.9443 8.90909 16.2733 8.98284 16.5451 9.13033C16.8169 9.27616 17.024 9.47917 17.1665 9.73935C17.3107 9.99787 17.3828 10.2962 17.3828 10.6342C17.3828 10.9723 17.3099 11.2706 17.164 11.5291C17.0182 11.7876 16.8069 11.989 16.5302 12.1332C16.2551 12.2773 15.922 12.3494 15.5309 12.3494H14.2507V11.4869H15.3569C15.564 11.4869 15.7347 11.4512 15.8689 11.38C16.0048 11.3071 16.1059 11.2068 16.1722 11.0792C16.2401 10.9499 16.2741 10.8016 16.2741 10.6342C16.2741 10.4652 16.2401 10.3177 16.1722 10.1918C16.1059 10.0642 16.0048 9.96555 15.8689 9.89595C15.733 9.82469 15.5607 9.78906 15.3519 9.78906H14.626V14H13.5497ZM17.6739 14V8.90909H19.6824C20.0669 8.90909 20.395 8.97786 20.6668 9.11541C20.9403 9.2513 21.1482 9.44437 21.2907 9.6946C21.4349 9.94318 21.507 10.2357 21.507 10.5721C21.507 10.9102 21.4341 11.201 21.2883 11.4446C21.1424 11.6866 20.9311 11.8722 20.6544 12.0014C20.3793 12.1307 20.0462 12.1953 19.6551 12.1953H18.3103V11.3303H19.4811C19.6866 11.3303 19.8573 11.3021 19.9932 11.2457C20.1291 11.1894 20.2301 11.1049 20.2964 10.9922C20.3644 10.8795 20.3983 10.7395 20.3983 10.5721C20.3983 10.4031 20.3644 10.2605 20.2964 10.1445C20.2301 10.0285 20.1282 9.9407 19.9907 9.88104C19.8548 9.81972 19.6833 9.78906 19.4761 9.78906H18.7503V14H17.6739ZM20.4232 11.6832L21.6885 14H20.5003L19.2623 11.6832H20.4232ZM26.5379 11.4545C26.5379 12.0097 26.4327 12.482 26.2222 12.8714C26.0134 13.2609 25.7284 13.5584 25.3671 13.7638C25.0075 13.9677 24.6032 14.0696 24.1541 14.0696C23.7016 14.0696 23.2956 13.9669 22.936 13.7614C22.5764 13.5559 22.2922 13.2584 22.0834 12.869C21.8746 12.4795 21.7702 12.008 21.7702 11.4545C21.7702 10.8994 21.8746 10.4271 22.0834 10.0376C22.2922 9.6482 22.5764 9.35156 22.936 9.14773C23.2956 8.94223 23.7016 8.83949 24.1541 8.83949C24.6032 8.83949 25.0075 8.94223 25.3671 9.14773C25.7284 9.35156 26.0134 9.6482 26.2222 10.0376C26.4327 10.4271 26.5379 10.8994 26.5379 11.4545ZM25.4467 11.4545C25.4467 11.0949 25.3928 10.7917 25.2851 10.5447C25.179 10.2978 25.0291 10.1106 24.8352 9.98295C24.6413 9.85535 24.4142 9.79155 24.1541 9.79155C23.8939 9.79155 23.6668 9.85535 23.4729 9.98295C23.2791 10.1106 23.1283 10.2978 23.0205 10.5447C22.9145 10.7917 22.8614 11.0949 22.8614 11.4545C22.8614 11.8142 22.9145 12.1174 23.0205 12.3643C23.1283 12.6113 23.2791 12.7985 23.4729 12.9261C23.6668 13.0537 23.8939 13.1175 24.1541 13.1175C24.4142 13.1175 24.6413 13.0537 24.8352 12.9261C25.0291 12.7985 25.179 12.6113 25.2851 12.3643C25.3928 12.1174 25.4467 11.8142 25.4467 11.4545Z" fill="black"/>
<path d="M31.4989 2V11.5004L32 21.0002C32 23.6252 32 22.0004 32 22.0004L0.500219 22.0004L8.00022 11.5004L0.500219 1.00036L31 1.00036C31 1.00036 31 1 31.4989 2ZM2.50022 2L9.50022 11.5004L2.50022 21.0002L32 21.0002L31.4989 11.5004V2L2.50022 2Z" fill="black"/>
</svg>
