<svg width="268" height="174" viewBox="0 0 268 174" fill="none" xmlns="http://www.w3.org/2000/svg">
<g clip-path="url(#clip0_32_267)">
<path d="M8.49361 133.372C9.82177 119.816 17.8492 106.283 30.6218 101.55C25.902 115.591 26.301 130.849 31.7479 144.624C33.8679 149.929 36.7781 155.609 35.0562 161.056C33.9848 164.445 31.2166 167.089 28.0893 168.779C24.9618 170.468 21.4644 171.326 18.0106 172.167L17.3417 172.75C11.5032 160.443 7.16546 146.929 8.49361 133.372Z" fill="#F0F0F0"/>
<path d="M30.7561 101.802C23.5445 110.314 19.0056 121.185 18.212 132.33C18.0404 134.739 18.076 137.198 18.6632 139.554C19.2531 141.845 20.4458 143.936 22.1174 145.611C23.6447 147.203 25.3914 148.656 26.5049 150.592C27.6786 152.632 27.783 154.983 27.0737 157.202C26.2059 159.916 24.4145 162.157 22.5864 164.288C20.5567 166.653 18.4111 169.078 17.6026 172.165C17.5046 172.539 16.9299 172.366 17.0278 171.992C18.4344 166.621 23.5301 163.458 25.8726 158.593C26.9657 156.322 27.3812 153.709 26.2401 151.372C25.2422 149.329 23.4423 147.83 21.882 146.231C20.2436 144.552 18.9726 142.696 18.2837 140.434C17.5791 138.12 17.4473 135.657 17.5565 133.254C17.8448 127.806 18.9879 122.438 20.9439 117.345C23.1441 111.52 26.3244 106.115 30.3473 101.363C30.5964 101.068 31.0036 101.51 30.7561 101.802Z" fill="white"/>
<path d="M18.2796 128.694C16.4134 128.292 14.7508 127.239 13.5887 125.725C12.4266 124.21 11.8408 122.332 11.9358 120.425C11.9403 120.348 11.9749 120.275 12.0322 120.222C12.0895 120.169 12.165 120.141 12.2428 120.143C12.3207 120.145 12.3947 120.177 12.4495 120.232C12.5042 120.287 12.5352 120.362 12.5361 120.44C12.4444 122.215 12.9903 123.965 14.0753 125.373C15.1603 126.781 16.7129 127.755 18.4529 128.119C18.831 128.198 18.6555 128.773 18.2796 128.694Z" fill="white"/>
<path d="M21.2373 144.905C24.5346 142.818 26.9241 139.565 27.9292 135.794C28.0285 135.42 28.6032 135.594 28.504 135.967C27.4507 139.889 24.9572 143.27 21.5212 145.434C21.1936 145.64 20.9115 145.11 21.2373 144.905Z" fill="white"/>
<path d="M23.7156 112.074C24.4053 112.38 25.1602 112.51 25.9125 112.452C26.6648 112.394 27.3909 112.151 28.0256 111.743C28.3505 111.533 28.6323 112.063 28.3095 112.272C27.6061 112.719 26.8039 112.987 25.9728 113.053C25.1418 113.119 24.3073 112.98 23.5423 112.649C23.4676 112.624 23.4052 112.571 23.3679 112.502C23.3307 112.432 23.3212 112.351 23.3415 112.275C23.3649 112.199 23.4173 112.135 23.4873 112.098C23.5573 112.06 23.6394 112.052 23.7156 112.074Z" fill="white"/>
<path d="M70.5335 124.661C70.3344 124.798 70.1353 124.935 69.9361 125.077C67.2685 126.933 64.7561 129.002 62.4237 131.264C62.2406 131.436 62.0576 131.614 61.8798 131.79C56.3185 137.301 51.8286 143.796 48.6383 150.945C47.3714 153.791 46.3229 156.73 45.5018 159.735C44.3681 163.885 43.4692 168.476 41.1003 171.908C40.8572 172.269 40.592 172.614 40.3061 172.942L18.1055 173.521C18.0543 173.497 18.0031 173.478 17.9518 173.454L17.0664 173.518C17.0979 173.36 17.134 173.197 17.1655 173.039C17.1834 172.947 17.2063 172.855 17.2242 172.764C17.2377 172.702 17.2515 172.641 17.2601 172.585C17.2645 172.565 17.2692 172.544 17.2738 172.529C17.2824 172.473 17.2965 172.422 17.3053 172.371C17.5045 171.459 17.7104 170.546 17.9232 169.633C17.923 169.628 17.923 169.628 17.9278 169.623C19.5664 162.672 21.7997 155.796 25.0055 149.478C25.102 149.288 25.1982 149.093 25.3048 148.903C26.7657 146.063 28.4562 143.347 30.3595 140.783C31.4062 139.382 32.5231 138.035 33.706 136.747C36.7688 133.425 40.3351 130.606 44.2741 128.392C52.127 123.981 61.3034 122.13 69.88 124.476C70.0994 124.536 70.314 124.596 70.5335 124.661Z" fill="#F0F0F0"/>
<path d="M70.4903 124.945C59.6075 127.399 49.4383 133.346 42.0948 141.767C40.5072 143.587 39.0551 145.572 38.1059 147.806C37.1974 149.991 36.8905 152.379 37.2171 154.722C37.4777 156.914 37.9979 159.125 37.7214 161.341C37.4299 163.677 36.0979 165.617 34.1958 166.961C31.8685 168.606 29.089 169.317 26.3467 169.917C23.3018 170.584 20.1287 171.228 17.6245 173.206C17.3211 173.446 16.967 172.961 17.2699 172.722C21.6267 169.281 27.5995 169.823 32.3993 167.349C34.639 166.194 36.5443 164.358 37.04 161.805C37.4735 159.572 36.9389 157.292 36.6558 155.076C36.3586 152.748 36.4613 150.501 37.273 148.281C38.1033 146.009 39.4809 143.963 41.015 142.11C44.5252 137.934 48.6702 134.336 53.2981 131.447C58.5617 128.121 64.3554 125.72 70.4287 124.348C70.8046 124.263 70.8638 124.861 70.4903 124.945Z" fill="white"/>
<path d="M44.3383 138.904C43.0902 137.459 42.3961 135.618 42.3802 133.709C42.3642 131.8 43.0273 129.948 44.2511 128.483C44.4997 128.187 44.9708 128.56 44.7218 128.856C43.5797 130.218 42.9622 131.943 42.9807 133.721C42.9992 135.499 43.6525 137.211 44.8227 138.549C45.0767 138.84 44.5908 139.193 44.3383 138.904Z" fill="white"/>
<path d="M36.9391 153.629C40.8285 153.947 44.6951 152.788 47.7679 150.383C48.0722 150.144 48.4264 150.629 48.1225 150.867C44.9202 153.364 40.894 154.562 36.8473 154.222C36.4616 154.189 36.5556 153.596 36.9391 153.629Z" fill="white"/>
<path d="M58.6851 128.907C59.0516 129.567 59.5761 130.125 60.2116 130.532C60.8471 130.939 61.5737 131.181 62.3261 131.238C62.712 131.265 62.6176 131.859 62.2342 131.831C61.4033 131.765 60.6012 131.496 59.898 131.048C59.1949 130.6 58.6121 129.987 58.2006 129.262C58.1561 129.197 58.1381 129.117 58.1501 129.039C58.1622 128.962 58.2035 128.891 58.2656 128.843C58.3299 128.796 58.4101 128.777 58.4887 128.789C58.5672 128.801 58.6378 128.844 58.6851 128.907Z" fill="white"/>
<path d="M200.831 11.8945C200.5 10.9157 196.343 7.58869 198.89 7.02948L200.979 9.81467L210.582 0.211426L211.548 1.17729L200.831 11.8945Z" fill="#41C9E2"/>
<path d="M200.831 44.5497C200.5 43.571 196.343 40.244 198.89 39.6848L200.979 42.4699L210.582 32.8667L211.548 33.8326L200.831 44.5497Z" fill="#41C9E2"/>
<path d="M200.831 77.6713C200.5 76.6926 196.343 73.3655 198.89 72.8063L200.979 75.5915L210.582 65.9883L211.548 66.9541L200.831 77.6713Z" fill="#41C9E2"/>
<path d="M191.989 50.8931C193.625 50.8931 194.952 49.5664 194.952 47.9297C194.952 46.2931 193.625 44.9663 191.989 44.9663C190.352 44.9663 189.025 46.2931 189.025 47.9297C189.025 49.5664 190.352 50.8931 191.989 50.8931Z" fill="#3F3D56"/>
<path d="M191.989 18.5919C193.625 18.5919 194.952 17.2651 194.952 15.6285C194.952 13.9918 193.625 12.665 191.989 12.665C190.352 12.665 189.025 13.9918 189.025 15.6285C189.025 17.2651 190.352 18.5919 191.989 18.5919Z" fill="#3F3D56"/>
<path d="M268 8.8125H220.289V9.40518H268V8.8125Z" fill="#3F3D56"/>
<path d="M193.47 85.3262C195.107 85.3262 196.434 83.9995 196.434 82.3628C196.434 80.7262 195.107 79.3994 193.47 79.3994C191.834 79.3994 190.507 80.7262 190.507 82.3628C190.507 83.9995 191.834 85.3262 193.47 85.3262Z" fill="#3F3D56"/>
<path d="M268 41.4678H220.289V42.0605H268V41.4678Z" fill="#3F3D56"/>
<path d="M268 74.5894H220.289V75.182H268V74.5894Z" fill="#3F3D56"/>
<path d="M208.316 82.0866H193.499V66.9731H203.575V67.5658H194.092V81.4939H207.723V74.678H208.316V82.0866Z" fill="#3F3D56"/>
<path d="M208.316 48.8961H193.499V33.7827H203.575V34.3754H194.092V48.3035H207.723V41.4876H208.316V48.8961Z" fill="#3F3D56"/>
<path d="M208.316 15.1134H193.499V0H203.575V0.592683H194.092V14.5207H207.723V7.70488H208.316V15.1134Z" fill="#3F3D56"/>
<path d="M111.574 53.8666C111.574 53.8666 107.614 70.5866 112.454 70.5866C117.294 70.5866 128.734 51.6666 128.734 51.6666L124.774 46.8267L117.667 56.6948L117.294 51.6666L111.574 53.8666Z" fill="#A0616A"/>
<path d="M127.679 52.3934C129.806 52.3934 131.531 50.6686 131.531 48.5409C131.531 46.4133 129.806 44.6885 127.679 44.6885C125.551 44.6885 123.826 46.4133 123.826 48.5409C123.826 50.6686 125.551 52.3934 127.679 52.3934Z" fill="#A0616A"/>
<path d="M108.217 167.744L113.345 167.743L115.784 147.964L108.216 147.964L108.217 167.744Z" fill="#A0616A"/>
<path d="M108.035 173.093L123.805 173.092V172.893C123.804 171.265 123.158 169.704 122.007 168.553C120.856 167.402 119.295 166.755 117.667 166.755H117.666L114.786 164.57L109.412 166.755L108.035 166.755L108.035 173.093Z" fill="#2F2E41"/>
<path d="M53.0566 161.346L57.6449 163.635L68.6605 147.027L61.8885 143.647L53.0566 161.346Z" fill="#A0616A"/>
<path d="M50.5059 166.051L64.6156 173.093L64.7047 172.914C65.4315 171.458 65.55 169.772 65.0341 168.228C64.5182 166.684 63.4102 165.409 61.9538 164.682L61.9534 164.682L60.352 161.44L54.5674 160.996L53.3357 160.381L50.5059 166.051Z" fill="#2F2E41"/>
<path d="M168.87 173.112H0V173.776H168.87V173.112Z" fill="#CCCCCC"/>
<path d="M75.0629 84.1992C75.0629 84.1992 73.0136 108.84 72.5736 114.119C72.2719 117.429 71.5321 120.684 70.3736 123.799C70.3736 123.799 69.4936 125.559 69.4936 127.319L59.5203 145.445C59.5203 145.445 56.4727 147.685 56.9127 149.445C57.3527 151.205 55.0752 152.261 55.0752 152.261L65.578 154.285C65.578 154.285 65.138 152.965 66.458 152.525C67.778 152.085 68.8287 148.269 68.8287 148.269L83.5736 124.239L94.1336 102.24C94.1336 102.24 100.294 122.039 101.614 124.239C101.614 124.239 106.454 148.879 107.334 151.079C108.214 153.279 108.654 153.279 108.214 154.159C107.774 155.039 107.774 155.919 108.214 156.359C108.654 156.799 117.013 156.359 117.013 156.359L114.813 125.119L110.854 87.7196L90.6136 81.5596L75.0629 84.1992Z" fill="#2F2E41"/>
<path d="M94.8786 25.3764C99.9817 25.3764 104.119 21.2396 104.119 16.1365C104.119 11.0334 99.9817 6.89648 94.8786 6.89648C89.7756 6.89648 85.6387 11.0334 85.6387 16.1365C85.6387 21.2396 89.7756 25.3764 94.8786 25.3764Z" fill="#A0616A"/>
<path d="M111.733 38.8793L100.733 32.215C100.733 32.215 100.429 28.0766 97.2945 27.8819C95.7211 27.7841 93.3599 27.6346 89.8165 27.4062C89.0676 27.3579 88.5623 31.4549 87.7041 31.3993L76.0932 34.4793L77.8532 64.3992C77.8532 64.3992 75.2132 76.2792 76.0932 78.4792C76.9732 80.6791 73.8932 81.5591 74.7732 81.9991C75.6532 82.4391 74.7732 85.5191 74.7732 85.5191C74.7732 85.5191 91.9331 94.3191 110.853 87.7191L109.093 81.9991C109.333 81.2514 109.378 80.455 109.224 79.6851C109.07 78.9151 108.722 78.1972 108.213 77.5991C108.213 77.5991 109.973 74.9592 107.773 72.7592C107.773 72.7592 108.653 68.7992 106.453 67.0392L106.013 60.8792L107.333 57.7992L111.733 38.8793Z" fill="#E6E6E6"/>
<path d="M86.8605 21.4149L86.6022 20.815C86.5689 20.7375 83.3012 13.0126 86.1976 8.24771C87.5384 6.04179 89.9764 4.79637 93.4437 4.54633C98.8688 4.15405 102.582 5.44098 104.483 8.36867C104.801 8.86486 104.981 9.43775 105.001 10.0271C105.022 10.6165 104.884 11.2005 104.6 11.7179C104.317 12.2352 103.9 12.6667 103.393 12.9671C102.885 13.2674 102.306 13.4254 101.716 13.4246H101.643L100.647 12.1302L100.589 12.2561C100.228 13.0369 99.3989 13.4644 98.4281 13.3707C98.263 13.3589 98.1167 13.5014 97.9992 13.8064C97.9597 13.9399 97.885 14.0602 97.7829 14.1548C97.6808 14.2494 97.5552 14.3147 97.4191 14.344C96.7018 14.4836 95.6794 13.5801 95.2217 13.1298C95.2041 13.2335 95.1644 13.3321 95.1053 13.4191C95.0463 13.506 94.9692 13.5793 94.8794 13.634C94.3971 13.9122 93.6466 13.5487 93.4311 13.433C91.7148 13.7976 90.6038 13.7001 90.1279 13.1434C89.8053 15.4263 89.1127 19.5355 88.2823 19.7632C88.1955 19.7832 88.1046 19.7747 88.023 19.739C87.9414 19.7034 87.8734 19.6424 87.8291 19.5651C87.6291 19.3055 87.4504 19.1762 87.3389 19.2125C87.0687 19.2984 86.9093 20.1881 86.8864 20.7622L86.8605 21.4149Z" fill="#2F2E41"/>
<path d="M106.894 39.3196L111.283 38.6064C114.445 41.6443 116.598 45.579 117.454 49.8795C118.774 56.9195 119.214 58.2395 119.214 58.2395L108.654 60.8795L102.934 49.8795L106.894 39.3196Z" fill="#E6E6E6"/>
<path d="M87.4166 48.4761L84.7041 82.8618L153.925 88.3222L156.638 53.9365L87.4166 48.4761Z" fill="white"/>
<path d="M94.8128 51.1405C93.1188 49.9307 90.9681 49.8433 90.1465 49.8607C90.3971 50.6431 91.1761 52.6497 92.87 53.86C94.5682 55.0727 96.7162 55.1575 97.5366 55.1406C97.286 54.3585 96.507 52.351 94.8128 51.1405Z" fill="#41C9E2"/>
<path d="M101.495 73.0208L90.3797 72.144C90.0513 72.1181 89.721 72.1571 89.4077 72.2589C89.0943 72.3606 88.8041 72.5231 88.5536 72.737C88.303 72.9509 88.0971 73.2121 87.9475 73.5056C87.7978 73.7991 87.7075 74.1192 87.6816 74.4476C87.6557 74.776 87.6947 75.1063 87.7965 75.4196C87.8982 75.733 88.0607 76.0232 88.2746 76.2737C88.4885 76.5243 88.7497 76.7302 89.0432 76.8798C89.3367 77.0295 89.6568 77.1198 89.9852 77.1457L101.1 78.0225C101.763 78.0748 102.42 77.8615 102.926 77.4295C103.432 76.9975 103.746 76.3822 103.798 75.7189C103.851 75.0556 103.637 74.3988 103.205 73.8928C102.773 73.3868 102.158 73.0731 101.495 73.0208Z" fill="#41C9E2"/>
<path d="M153.909 50.5945L91.5914 45.6782C90.8665 45.6211 90.1376 45.7074 89.4461 45.932C88.7546 46.1567 88.1141 46.5154 87.5612 46.9875C87.0083 47.4597 86.5539 48.0362 86.2238 48.684C85.8937 49.3318 85.6944 50.0384 85.6374 50.7632L83.2407 81.1236C83.1255 82.5879 83.5965 84.038 84.5502 85.155C85.5039 86.2721 86.8622 86.9647 88.3264 87.0805L150.644 91.9968C151.369 92.0539 152.098 91.9677 152.789 91.743C153.481 91.5183 154.121 91.1597 154.674 90.6875C155.227 90.2153 155.682 89.6389 156.012 88.991C156.342 88.3432 156.541 87.6367 156.598 86.9119L158.876 58.0555L158.921 57.4659L158.994 56.5485C159.051 55.8237 158.965 55.0947 158.74 54.4032C158.516 53.7117 158.157 53.0713 157.685 52.5184C157.213 51.9655 156.636 51.511 155.988 51.1809C155.34 50.8508 154.634 50.6516 153.909 50.5945ZM152.069 77.0098L151.674 82.0116C151.602 82.895 151.183 83.7139 150.509 84.2893C149.834 84.8646 148.96 85.1496 148.076 85.082L139.739 84.425C138.855 84.3529 138.037 83.9338 137.461 83.2596C136.886 82.5854 136.601 81.7108 136.668 80.827L137.063 75.8251C137.136 74.9418 137.555 74.1231 138.229 73.5478C138.903 72.9726 139.778 72.6874 140.661 72.7548L148.996 73.4125C149.879 73.4849 150.698 73.9038 151.274 74.5778C151.849 75.2517 152.135 76.1259 152.069 77.0098ZM87.1305 74.4016C87.1951 73.5923 87.5782 72.8416 88.1957 72.3143C88.8132 71.787 89.6146 71.5262 90.4241 71.5891L101.539 72.4664C101.94 72.4974 102.332 72.6073 102.691 72.7896C103.05 72.972 103.369 73.2233 103.631 73.5292C103.893 73.8351 104.092 74.1897 104.217 74.5725C104.341 74.9554 104.39 75.3591 104.358 75.7606C104.327 76.1621 104.217 76.5534 104.034 76.9123C103.851 77.2712 103.6 77.5906 103.294 77.8522C102.988 78.1138 102.633 78.3125 102.25 78.437C101.867 78.5615 101.463 78.6093 101.062 78.5776L101.056 78.5791L89.9416 77.7017C89.5402 77.67 89.149 77.5594 88.7904 77.3763C88.4317 77.1932 88.1127 76.9412 87.8516 76.6347C87.5905 76.3282 87.3924 75.9732 87.2687 75.59C87.1449 75.2068 87.098 74.803 87.1305 74.4016ZM89.5099 49.6625L89.4339 49.3516L89.7536 49.3223C89.8786 49.3089 92.8352 49.0435 95.1366 50.6874C97.4381 52.3314 98.1438 55.2158 98.1745 55.3364L98.2476 55.6481L97.9286 55.6802C97.4758 55.7139 97.021 55.7109 96.5687 55.6712C95.1299 55.587 93.7401 55.1177 92.5448 54.3123C90.2434 52.6683 89.5377 49.7839 89.5099 49.6625Z" fill="#41C9E2"/>
<path d="M142.72 80.3269L139.107 80.0419C138.85 80.0221 138.594 80.1053 138.398 80.2733C138.202 80.4412 138.08 80.6803 138.06 80.9379C138.039 81.1956 138.122 81.4507 138.29 81.6474C138.457 81.8441 138.696 81.9663 138.954 81.9871L142.566 82.272C142.824 82.2919 143.079 82.2087 143.275 82.0407C143.472 81.8727 143.593 81.6337 143.614 81.376C143.634 81.1184 143.551 80.8632 143.384 80.6665C143.216 80.4698 142.977 80.3477 142.72 80.3269Z" fill="#41C9E2"/>
<path d="M149.388 80.8527L145.775 80.5678C145.518 80.5481 145.263 80.6314 145.067 80.7994C144.871 80.9673 144.749 81.2063 144.729 81.4638C144.708 81.7213 144.791 81.9764 144.958 82.1731C145.126 82.3697 145.365 82.4919 145.622 82.5129L149.234 82.7978C149.492 82.8175 149.747 82.7342 149.943 82.5662C150.139 82.3983 150.261 82.1593 150.281 81.9018C150.302 81.6443 150.219 81.3892 150.051 81.1926C149.884 80.9959 149.645 80.8737 149.388 80.8527Z" fill="#41C9E2"/>
<path d="M142.916 77.8259L139.304 77.5409C139.046 77.5212 138.791 77.6045 138.595 77.7725C138.399 77.9405 138.277 78.1794 138.257 78.4369C138.237 78.6945 138.319 78.9495 138.487 79.1462C138.654 79.3429 138.893 79.4651 139.15 79.486L142.763 79.771C143.02 79.7909 143.275 79.7077 143.472 79.5397C143.668 79.3717 143.79 79.1327 143.81 78.875C143.831 78.6174 143.748 78.3622 143.58 78.1655C143.413 77.9688 143.174 77.8466 142.916 77.8259Z" fill="#41C9E2"/>
<path d="M149.586 78.3523L145.973 78.0673C145.716 78.0475 145.461 78.1307 145.264 78.2987C145.068 78.4666 144.946 78.7057 144.926 78.9633C144.906 79.2209 144.988 79.4761 145.156 79.6728C145.324 79.8695 145.562 79.9917 145.82 80.0124L149.432 80.2974C149.69 80.3173 149.945 80.2341 150.141 80.0661C150.338 79.8981 150.46 79.6591 150.48 79.4014C150.5 79.1438 150.417 78.8886 150.25 78.6919C150.082 78.4952 149.843 78.3731 149.586 78.3523Z" fill="#41C9E2"/>
<path d="M143.114 75.325L139.502 75.04C139.244 75.0201 138.989 75.1033 138.793 75.2713C138.596 75.4393 138.475 75.6783 138.454 75.936C138.434 76.1936 138.517 76.4488 138.684 76.6455C138.852 76.8422 139.091 76.9643 139.348 76.9851L142.961 77.2701C143.218 77.2897 143.473 77.2065 143.669 77.0385C143.866 76.8705 143.987 76.6316 144.008 76.374C144.028 76.1165 143.945 75.8614 143.778 75.6648C143.61 75.4681 143.372 75.3459 143.114 75.325Z" fill="#41C9E2"/>
<path d="M149.782 75.8513L146.17 75.5663C145.912 75.5466 145.658 75.6299 145.461 75.7979C145.265 75.9659 145.143 76.2048 145.123 76.4623C145.103 76.7199 145.185 76.9749 145.353 77.1716C145.52 77.3683 145.759 77.4905 146.017 77.5114L149.629 77.7964C149.887 77.8161 150.141 77.7328 150.338 77.5648C150.534 77.3968 150.656 77.1579 150.676 76.9003C150.696 76.6428 150.613 76.3878 150.446 76.1911C150.278 75.9944 150.04 75.8722 149.782 75.8513Z" fill="#41C9E2"/>
<path d="M84.7115 60.3425L84.665 60.9336L157.818 66.6801L157.864 66.089L84.7115 60.3425Z" fill="white"/>
<path d="M158.922 57.4658L158.876 58.0555L156.33 57.8558L129.205 55.7251L129.254 55.1348L156.376 57.2661L158.922 57.4658Z" fill="#3F3D56"/>
<path d="M69.4934 51.1997C69.4934 51.1997 65.5334 67.9196 70.3734 67.9196C75.2134 67.9196 86.6533 48.9996 86.6533 48.9996L82.6933 44.1597L75.5856 54.0278L75.2133 48.9997L69.4934 51.1997Z" fill="#A0616A"/>
<path d="M85.5985 49.7264C87.7262 49.7264 89.451 48.0016 89.451 45.8739C89.451 43.7463 87.7262 42.0215 85.5985 42.0215C83.4709 42.0215 81.7461 43.7463 81.7461 45.8739C81.7461 48.0016 83.4709 49.7264 85.5985 49.7264Z" fill="#A0616A"/>
<path d="M79.2988 37.1195L76.6588 34.4795C76.6588 34.4795 71.3788 37.5595 70.9388 40.6395C70.4988 43.7195 68.2988 53.3994 68.2988 53.3994L76.4388 54.0594L79.0788 50.0995L79.2988 37.1195Z" fill="#E6E6E6"/>
</g>
<defs>
<clipPath id="clip0_32_267">
<rect width="268" height="173.776" fill="white"/>
</clipPath>
</defs>
</svg>
