<svg width="276" height="216" viewBox="0 0 276 216" fill="none" xmlns="http://www.w3.org/2000/svg">
<path d="M147.895 192.797C148.056 192.887 148.237 192.937 148.422 192.94C148.607 192.944 148.789 192.902 148.954 192.817C149.038 192.773 149.094 192.909 149.011 192.953C148.829 193.045 148.627 193.092 148.422 193.088C148.218 193.085 148.018 193.031 147.839 192.933C147.822 192.925 147.808 192.911 147.8 192.893C147.793 192.875 147.792 192.855 147.799 192.837C147.807 192.819 147.821 192.805 147.839 192.797C147.857 192.79 147.877 192.789 147.895 192.797Z" fill="white"/>
<path d="M64.5075 48.6134L64.9804 48.181L73.5233 57.5259C73.3022 55.7671 72.4009 50.1524 69.6597 47.4492C66.385 44.2199 63.5883 44.4828 61.7252 46.3722C59.8621 48.2615 59.6381 51.0617 62.9128 54.2912C65.6887 57.0287 71.4243 57.838 73.108 58.0212L64.5075 48.6134Z" fill="#C0D7C0"/>
<path d="M75.07 108.197L75.5107 108.662L66.3211 117.371C68.0757 117.119 73.673 116.117 76.3265 113.327C79.4964 109.995 79.1833 107.203 77.2608 105.374C75.3383 103.545 72.5347 103.372 69.3646 106.704C66.6775 109.529 65.9714 115.278 65.8185 116.965L75.07 108.197Z" fill="#C0D7C0"/>
<path d="M153.475 24.5388L154.006 24.8977L146.916 35.3877C148.575 34.7618 153.823 32.5736 155.811 29.2767C158.186 25.3379 157.277 22.68 155.004 21.3098C152.732 19.9396 149.957 20.3761 147.582 24.3149C145.569 27.6536 146.122 33.4197 146.338 35.0996L153.475 24.5388Z" fill="#C0D7C0"/>
<path d="M203.028 97.8794L203.519 97.4681L211.648 107.175C211.504 105.408 210.847 99.7598 208.226 96.9402C205.094 93.5717 202.289 93.7129 200.345 95.5195C198.402 97.3262 198.057 100.114 201.188 103.482C203.843 106.338 209.538 107.396 211.212 107.652L203.028 97.8794Z" fill="#C0D7C0"/>
</svg>
