<svg width="215" height="118" viewBox="0 0 215 118" fill="none" xmlns="http://www.w3.org/2000/svg">
<g clip-path="url(#clip0_30_936)">
<path d="M12.083 107.256C7.52107 111.146 6.57422 117.525 6.57422 117.525C6.57422 117.525 13.0236 117.598 17.5855 113.709C22.1474 109.819 23.0943 103.44 23.0943 103.44C23.0943 103.44 16.6449 103.367 12.083 107.256Z" fill="#F2F2F2"/>
<path d="M14.1909 108.804C12.2477 114.475 6.66103 117.698 6.66103 117.698C6.66103 117.698 4.22489 111.727 6.16809 106.056C8.11129 100.385 13.698 97.1616 13.698 97.1616C13.698 97.1616 16.1341 103.133 14.1909 108.804Z" fill="#F2F2F2"/>
<path d="M61.8075 24.9017C60.7753 23.5643 59.3165 22.327 59.2242 20.6767C59.1395 19.1631 60.2682 17.6604 59.7922 16.2123C59.4261 15.0989 58.2186 14.4271 57.0387 14.0714C54.7797 13.4 52.3622 13.4931 50.1615 14.3361L50.281 14.2519C48.9378 13.7735 47.3678 14.2673 46.311 15.1821C45.2541 16.0968 44.6261 17.3648 44.1388 18.6354C43.6513 19.906 43.2738 21.2231 42.5966 22.4143C41.9194 23.6056 40.8826 24.6889 39.5146 25.1006C39.9726 26.0139 41.4042 26.3273 42.2438 25.6979C42.4583 25.5237 42.6511 25.3244 42.8181 25.1043C43.378 24.4234 43.938 23.7426 44.4981 23.0617C45.0743 24.0864 44.2135 25.5007 44.9217 26.4493C45.287 26.9385 45.954 27.1243 46.5735 27.2576C51.4153 28.2906 56.4381 28.1043 61.1901 26.7155C61.572 26.6029 61.9934 26.448 62.1518 26.1023C62.3348 25.7033 62.0789 25.2534 61.8075 24.9017Z" fill="#2F2E41"/>
<path d="M75.5364 30.1208C75.5062 30.2537 75.4865 30.3888 75.4775 30.5248L64.8946 36.6294L62.3223 35.1488L59.5801 38.7384L63.8791 41.8022C64.2264 42.0497 64.6446 42.1779 65.071 42.1675C65.4973 42.1571 65.9088 42.0087 66.2437 41.7445L77.1564 33.1362C77.6489 33.3185 78.1852 33.3466 78.694 33.2166C79.2029 33.0867 79.6601 32.805 80.0048 32.4089C80.3496 32.0128 80.5656 31.5211 80.6241 30.9993C80.6826 30.4775 80.5808 29.9502 80.3323 29.4876C80.0838 29.025 79.7003 28.6491 79.2329 28.4097C78.7655 28.1704 78.2363 28.079 77.7156 28.1477C77.195 28.2165 76.7076 28.4421 76.3184 28.7945C75.9291 29.147 75.6564 29.6096 75.5364 30.1208Z" fill="#FFB7B7"/>
<path d="M64.541 36.9187L61.1206 41.3512C61.0233 41.4773 60.8999 41.581 60.7589 41.6551C60.6179 41.7293 60.4626 41.7721 60.3035 41.7809C60.1445 41.7896 59.9854 41.7639 59.8371 41.7056C59.6889 41.6473 59.5549 41.5577 59.4444 41.443L55.5724 37.4225C54.929 36.9213 54.5108 36.1853 54.4096 35.3761C54.3083 34.5669 54.5324 33.7505 55.0325 33.1063C55.5326 32.4621 56.268 32.0426 57.0771 31.94C57.8862 31.8374 58.703 32.06 59.3482 32.5589L64.2046 35.2742C64.3437 35.352 64.4643 35.4588 64.5583 35.5874C64.6523 35.716 64.7175 35.8633 64.7494 36.0194C64.7813 36.1755 64.7792 36.3366 64.7433 36.4918C64.7073 36.6469 64.6383 36.7926 64.541 36.9187Z" fill="#41C9E2"/>
<path d="M59.8335 114.15L62.8538 114.15L64.2906 102.501L59.833 102.501L59.8335 114.15Z" fill="#FFB7B7"/>
<path d="M59.0635 113.164L65.0115 113.164H65.0118C66.0171 113.164 66.9812 113.563 67.692 114.274C68.4029 114.985 68.8023 115.949 68.8023 116.954V117.077L59.0637 117.077L59.0635 113.164Z" fill="#2F2E41"/>
<path d="M39.1392 114.15L42.1595 114.15L43.5963 102.501L39.1387 102.501L39.1392 114.15Z" fill="#FFB7B7"/>
<path d="M38.3691 113.164L44.3172 113.164H44.3174C45.3227 113.164 46.2868 113.563 46.9977 114.274C47.7085 114.985 48.1079 115.949 48.108 116.954V117.077L38.3693 117.077L38.3691 113.164Z" fill="#2F2E41"/>
<path d="M58.02 23.2551C58.3346 20.3898 56.2666 17.8121 53.401 17.4975C50.5354 17.183 47.9574 19.2508 47.6428 22.1161C47.3282 24.9814 49.3963 27.5592 52.2618 27.8737C55.1274 28.1882 57.7055 26.1204 58.02 23.2551Z" fill="#FFB7B7"/>
<path d="M55.8848 30.5098L58.9599 32.033C58.9599 32.033 62.3957 38.0034 60.4249 43.669C59.468 46.4198 62.1625 55.1883 62.1625 55.1883C62.1625 55.1883 66.3374 94.9063 66.3506 107.165C61.1639 107.962 56.2368 108.947 55.9904 106.484C55.7441 104.021 53.0473 74.8949 53.0473 74.8949C53.0473 74.8949 49.3388 107.223 46.3825 107.716C43.4262 108.208 37.5137 107.469 37.5137 107.469C37.5137 107.469 42.2076 60.115 45.4103 57.159L45.903 54.6956L45.8898 32.5841L49.5796 30.8234L55.8848 30.5098Z" fill="#2F2E41"/>
<path d="M44.8847 64.0778C45.225 63.8937 45.5207 63.6373 45.7512 63.3265C45.9816 63.0157 46.1411 62.6582 46.2184 62.2791C46.2957 61.9001 46.2889 61.5087 46.1986 61.1325C46.1082 60.7563 45.9365 60.4045 45.6955 60.1019L49.2718 36.2663L44.5994 36.042L41.8116 59.779C41.33 60.2175 41.026 60.8175 40.9573 61.4652C40.8885 62.1129 41.0597 62.7633 41.4385 63.2932C41.8173 63.8231 42.3774 64.1957 43.0125 64.3403C43.6476 64.4849 44.3138 64.3915 44.8847 64.0778Z" fill="#FFB7B7"/>
<path d="M49.1707 42.2384L43.5827 41.8856C43.4237 41.8756 43.2687 41.8314 43.1284 41.7561C42.988 41.6808 42.8655 41.5761 42.7692 41.4492C42.673 41.3223 42.6052 41.1761 42.5705 41.0206C42.5358 40.8651 42.5351 40.704 42.5683 40.5482L43.7327 35.0894C43.7885 34.2762 44.1646 33.5183 44.7784 32.982C45.3923 32.4457 46.1938 32.1746 47.0072 32.2284C47.8207 32.2821 48.5796 32.6562 49.1175 33.2687C49.6555 33.8811 49.9286 34.6819 49.8769 35.4954L50.3452 41.0391C50.3586 41.1979 50.3376 41.3576 50.2836 41.5075C50.2297 41.6574 50.144 41.7939 50.0326 41.9077C49.9211 42.0215 49.7864 42.11 49.6377 42.167C49.4889 42.2241 49.3296 42.2484 49.1707 42.2384Z" fill="#41C9E2"/>
<path d="M203.607 19.6362H80.036C79.1339 19.6362 78.2688 19.9945 77.631 20.6323C76.9931 21.2701 76.6348 22.1351 76.6348 23.0371V91.8819C76.6348 92.7838 76.9931 93.6488 77.631 94.2866C78.2688 94.9244 79.1339 95.2827 80.036 95.2827H203.607C204.509 95.2827 205.374 94.9244 206.012 94.2866C206.65 93.6488 207.008 92.7838 207.008 91.8819V23.0371C207.008 22.1351 206.65 21.2701 206.012 20.6323C205.374 19.9945 204.509 19.6362 203.607 19.6362Z" fill="#3F3D56"/>
<path d="M202.448 25.6465H81.1943V94.0392H202.448V25.6465Z" fill="white"/>
<path d="M141.718 23.7809C142.405 23.7809 142.962 23.2242 142.962 22.5374C142.962 21.8507 142.405 21.2939 141.718 21.2939C141.031 21.2939 140.475 21.8507 140.475 22.5374C140.475 23.2242 141.031 23.7809 141.718 23.7809Z" fill="white"/>
<path d="M167.771 94.0393H81.1943V25.6465L167.771 94.0393Z" fill="#F2F2F2"/>
<path d="M210.413 92.7955H198.579V91.9429C198.579 91.8981 198.561 91.8551 198.53 91.8234C198.498 91.7917 198.455 91.7739 198.41 91.7739H194.353C194.331 91.7739 194.309 91.7783 194.288 91.7868C194.268 91.7953 194.249 91.8077 194.233 91.8234C194.218 91.8391 194.205 91.8577 194.197 91.8783C194.188 91.8988 194.184 91.9207 194.184 91.9429V92.7955H191.648V91.9429C191.648 91.9208 191.644 91.8988 191.635 91.8783C191.627 91.8578 191.614 91.8391 191.599 91.8234C191.583 91.8077 191.564 91.7953 191.544 91.7868C191.523 91.7783 191.501 91.7739 191.479 91.7739H187.422C187.4 91.7739 187.378 91.7783 187.357 91.7868C187.337 91.7953 187.318 91.8077 187.302 91.8234C187.287 91.8391 187.274 91.8578 187.266 91.8783C187.257 91.8988 187.253 91.9208 187.253 91.9429V92.7955H184.717V91.9429C184.717 91.9208 184.713 91.8988 184.704 91.8783C184.696 91.8578 184.683 91.8391 184.668 91.8234C184.652 91.8077 184.633 91.7953 184.613 91.7868C184.592 91.7783 184.57 91.7739 184.548 91.7739H180.491C180.469 91.7739 180.447 91.7783 180.426 91.7868C180.406 91.7953 180.387 91.8077 180.371 91.8234C180.356 91.8391 180.343 91.8578 180.335 91.8783C180.326 91.8988 180.322 91.9208 180.322 91.9429V92.7955H177.786V91.9429C177.786 91.9208 177.782 91.8988 177.773 91.8783C177.765 91.8578 177.752 91.8391 177.737 91.8234C177.721 91.8077 177.702 91.7953 177.682 91.7868C177.661 91.7783 177.639 91.7739 177.617 91.7739H173.56C173.538 91.7739 173.516 91.7783 173.495 91.7868C173.475 91.7953 173.456 91.8077 173.44 91.8234C173.425 91.8391 173.412 91.8577 173.404 91.8783C173.395 91.8988 173.391 91.9207 173.391 91.9429V92.7955H170.855V91.9429C170.855 91.9208 170.851 91.8988 170.842 91.8783C170.834 91.8578 170.821 91.8391 170.805 91.8234C170.79 91.8077 170.771 91.7953 170.751 91.7868C170.73 91.7783 170.708 91.7739 170.686 91.7739H166.629C166.607 91.7739 166.585 91.7783 166.564 91.7868C166.544 91.7953 166.525 91.8077 166.509 91.8234C166.493 91.8391 166.481 91.8578 166.473 91.8783C166.464 91.8988 166.46 91.9208 166.46 91.9429V92.7955H163.924V91.9429C163.924 91.9208 163.92 91.8988 163.911 91.8783C163.903 91.8578 163.89 91.8391 163.874 91.8234C163.859 91.8077 163.84 91.7953 163.82 91.7868C163.799 91.7783 163.777 91.7739 163.755 91.7739H159.698C159.675 91.7739 159.653 91.7783 159.633 91.7868C159.612 91.7953 159.594 91.8077 159.578 91.8234C159.562 91.8391 159.55 91.8578 159.541 91.8783C159.533 91.8988 159.529 91.9208 159.529 91.9429V92.7955H156.993V91.9429C156.993 91.9208 156.988 91.8988 156.98 91.8783C156.971 91.8578 156.959 91.8391 156.943 91.8234C156.928 91.8077 156.909 91.7953 156.888 91.7868C156.868 91.7783 156.846 91.7739 156.824 91.7739H125.042C125.02 91.7739 124.998 91.7783 124.978 91.7868C124.957 91.7953 124.938 91.8077 124.923 91.8234C124.907 91.8391 124.895 91.8578 124.886 91.8783C124.878 91.8988 124.873 91.9208 124.873 91.9429V92.7955H122.337V91.9429C122.337 91.9208 122.333 91.8988 122.325 91.8783C122.316 91.8578 122.304 91.8391 122.288 91.8234C122.272 91.8077 122.254 91.7953 122.233 91.7868C122.213 91.7783 122.191 91.7739 122.168 91.7739H118.111C118.089 91.7739 118.067 91.7783 118.046 91.7868C118.026 91.7953 118.007 91.8077 117.992 91.8234C117.976 91.8391 117.963 91.8578 117.955 91.8783C117.946 91.8988 117.942 91.9208 117.942 91.9429V92.7955H115.406V91.9429C115.406 91.9208 115.402 91.8988 115.393 91.8783C115.385 91.8578 115.373 91.8391 115.357 91.8234C115.341 91.8077 115.322 91.7953 115.302 91.7868C115.281 91.7783 115.259 91.7739 115.237 91.7739H111.18C111.158 91.7739 111.136 91.7783 111.115 91.7868C111.095 91.7953 111.076 91.8077 111.061 91.8234C111.045 91.8391 111.032 91.8578 111.024 91.8783C111.015 91.8988 111.011 91.9208 111.011 91.9429V92.7955H108.475V91.9429C108.475 91.9208 108.471 91.8988 108.462 91.8783C108.454 91.8578 108.441 91.8391 108.426 91.8234C108.41 91.8077 108.391 91.7953 108.371 91.7868C108.35 91.7783 108.328 91.7739 108.306 91.7739H104.249C104.227 91.7739 104.205 91.7783 104.184 91.7868C104.164 91.7953 104.145 91.8077 104.129 91.8234C104.114 91.8391 104.101 91.8578 104.093 91.8783C104.084 91.8988 104.08 91.9208 104.08 91.9429V92.7955H101.544V91.9429C101.544 91.9208 101.54 91.8988 101.531 91.8783C101.523 91.8578 101.51 91.8391 101.495 91.8234C101.479 91.8077 101.46 91.7953 101.44 91.7868C101.419 91.7783 101.397 91.7739 101.375 91.7739H97.3179C97.2957 91.7739 97.2737 91.7783 97.2532 91.7868C97.2327 91.7953 97.2141 91.8077 97.1984 91.8234C97.1827 91.8391 97.1702 91.8578 97.1617 91.8783C97.1532 91.8988 97.1488 91.9208 97.1488 91.9429V92.7955H94.6131V91.9429C94.6131 91.9208 94.6087 91.8988 94.6002 91.8783C94.5917 91.8578 94.5793 91.8391 94.5636 91.8234C94.5479 91.8077 94.5292 91.7953 94.5087 91.7868C94.4882 91.7783 94.4662 91.7739 94.444 91.7739H90.3868C90.342 91.7739 90.299 91.7917 90.2673 91.8234C90.2356 91.8551 90.2178 91.8981 90.2178 91.9429V92.7955H87.682V91.9429C87.682 91.9208 87.6776 91.8988 87.6691 91.8783C87.6606 91.8578 87.6482 91.8391 87.6325 91.8234C87.6168 91.8077 87.5982 91.7953 87.5777 91.7868C87.5571 91.7783 87.5352 91.7739 87.513 91.7739H83.4557C83.4109 91.7739 83.3679 91.7917 83.3362 91.8234C83.3045 91.8551 83.2867 91.8981 83.2867 91.9429V92.7955H75.5103C74.9775 92.7955 74.4499 92.9004 73.9577 93.1043C73.4655 93.3082 73.0182 93.607 72.6415 93.9837C72.2647 94.3604 71.9659 94.8076 71.762 95.2998C71.5581 95.792 71.4531 96.3196 71.4531 96.8523V98.6867C71.4531 99.7626 71.8806 100.794 72.6415 101.555C73.4023 102.316 74.4343 102.744 75.5103 102.744H210.413C211.489 102.744 212.521 102.316 213.282 101.555C214.043 100.794 214.47 99.7626 214.47 98.6867V96.8523C214.47 96.3195 214.365 95.792 214.161 95.2998C213.957 94.8076 213.658 94.3604 213.282 93.9837C212.905 93.607 212.458 93.3082 211.965 93.1043C211.473 92.9004 210.946 92.7955 210.413 92.7955Z" fill="#3F3D56"/>
<path d="M144.154 85.0712C144.113 85.1674 144.068 85.2614 144.017 85.3529C143.753 85.841 143.379 86.2614 142.925 86.5813C142.388 86.9595 141.757 87.1828 141.101 87.227C140.446 87.2711 139.791 87.1344 139.207 86.8317C138.624 86.529 138.135 86.0719 137.794 85.5104C137.453 84.9489 137.272 84.3044 137.272 83.6474V83.0684H137.764C139.673 84.3024 141.882 84.9947 144.154 85.0712Z" fill="#3F3D56"/>
<path d="M151.166 83.2378V83.6473C151.166 84.4445 150.901 85.2191 150.412 85.8486C149.922 86.4782 149.238 86.9269 148.465 87.1238C147.692 87.3207 146.876 87.2547 146.145 86.936C145.415 86.6174 144.811 86.0643 144.429 85.3642C144.377 85.2706 144.329 85.1742 144.287 85.0755C144.392 85.0783 144.495 85.0798 144.6 85.0798C146.917 85.0825 149.189 84.445 151.166 83.2378Z" fill="#3F3D56"/>
<path d="M156 39.9359C155.892 39.9201 155.783 39.91 155.674 39.9028C156.915 42.7625 157.001 45.9913 155.914 48.913C156.023 48.9001 156.131 48.8828 156.239 48.8627C157.291 48.6588 158.237 48.0882 158.908 47.2523C159.579 46.4165 159.931 45.3696 159.903 44.2982C159.874 43.2268 159.466 42.2003 158.751 41.4014C158.037 40.6026 157.062 40.0833 156 39.9359Z" fill="#3F3D56"/>
<path d="M133.527 39.9028C133.418 39.91 133.309 39.9201 133.201 39.9359C132.139 40.0833 131.164 40.6026 130.45 41.4015C129.735 42.2003 129.327 43.2268 129.298 44.2982C129.27 45.3696 129.622 46.4164 130.293 47.2523C130.964 48.0881 131.91 48.6588 132.962 48.8627C133.07 48.8828 133.178 48.9001 133.287 48.913C132.2 45.9913 132.286 42.7625 133.527 39.9028Z" fill="#3F3D56"/>
<path d="M156 39.9355C154.816 37.1081 152.624 34.8217 149.848 33.5203C147.073 32.219 143.913 31.9957 140.982 32.8938C138.051 33.792 135.559 35.7474 133.989 38.3802C132.419 41.013 131.884 44.1352 132.488 47.1403C133.092 50.1454 134.791 52.8187 137.256 54.641C139.721 56.4633 142.775 57.3044 145.826 57.0009C148.876 56.6974 151.705 55.271 153.762 52.9988C155.82 50.7266 156.959 47.7708 156.959 44.7056C156.958 43.0678 156.632 41.4464 156 39.9355ZM155.914 48.9126C154.863 51.7378 152.792 54.0672 150.11 55.4425C147.427 56.8178 144.327 57.1392 141.419 56.3436C138.511 55.5479 136.007 53.6928 134.398 51.1434C132.79 48.594 132.194 45.5349 132.728 42.5682C133.262 39.6015 134.887 36.9421 137.284 35.1135C139.68 33.2848 142.674 32.4194 145.677 32.6874C148.68 32.9555 151.473 34.3376 153.508 36.5619C155.543 38.7861 156.671 41.6913 156.671 44.7056C156.671 46.1418 156.414 47.5664 155.914 48.9126Z" fill="#3F3D56"/>
<path d="M150.923 41.9043H138.278C137.611 41.9043 136.972 42.1692 136.5 42.6407C136.029 43.1123 135.764 43.7518 135.764 44.4187C135.764 45.0855 136.029 45.7251 136.5 46.1966C136.972 46.6682 137.611 46.9331 138.278 46.9331H150.923C151.59 46.9331 152.23 46.6682 152.701 46.1966C153.173 45.7251 153.438 45.0855 153.438 44.4187C153.438 43.7518 153.173 43.1123 152.701 42.6407C152.23 42.1692 151.59 41.9043 150.923 41.9043Z" fill="#3F3D56"/>
<path d="M155.914 66.1772C155.868 66.0925 155.82 66.0091 155.771 65.9272C155.77 65.9244 155.769 65.9229 155.767 65.92C154.636 63.9848 153.022 62.3768 151.082 61.2538C149.142 60.1308 146.944 59.5314 144.702 59.5145C142.461 59.4976 140.254 60.0638 138.297 61.1574C136.341 62.251 134.702 63.8345 133.542 65.7525C132.383 67.6705 131.742 69.857 131.682 72.0975C131.623 74.338 132.147 76.5554 133.204 78.5322C134.26 80.5089 135.812 82.177 137.708 83.3728C139.604 84.5685 141.778 85.2508 144.017 85.3527C144.154 85.3599 144.292 85.3642 144.43 85.3642C144.487 85.3671 144.543 85.3671 144.601 85.3671C146.911 85.3705 149.179 84.7505 151.166 83.5725C153.324 82.2953 155.068 80.4218 156.187 78.1774C156.188 78.1745 156.19 78.173 156.191 78.1702C156.234 78.084 156.276 77.9963 156.317 77.9072C157.182 76.0592 157.596 74.0326 157.525 71.9937C157.455 69.9548 156.903 67.9615 155.914 66.1772ZM156.037 77.8282C155.996 77.9173 155.952 78.0049 155.908 78.0911C154.839 80.2159 153.196 81.9988 151.166 83.2378C149.189 84.445 146.917 85.0824 144.601 85.0797C144.496 85.0797 144.392 85.0783 144.287 85.0754C144.243 85.0754 144.198 85.074 144.154 85.0711C141.96 84.9944 139.824 84.348 137.955 83.1952C136.087 82.0425 134.551 80.4233 133.499 78.4969C132.446 76.5706 131.913 74.4034 131.953 72.2086C131.992 70.0139 132.602 67.8672 133.723 65.9798C134.844 64.0924 136.437 62.5294 138.346 61.4444C140.254 60.3595 142.412 59.79 144.607 59.7921C146.803 59.7942 148.96 60.3677 150.866 61.4563C152.772 62.5449 154.362 64.111 155.48 66.0005C155.481 66.0034 155.483 66.0048 155.484 66.0077C155.534 66.0896 155.583 66.1729 155.629 66.2562C156.615 68.0127 157.167 69.9796 157.238 71.9927C157.309 74.0058 156.897 76.0066 156.037 77.8282Z" fill="#3F3D56"/>
<path d="M154.54 66.5595C154.288 66.3802 153.987 66.2833 153.678 66.2822H148.026C147.633 66.2822 147.255 66.4386 146.977 66.7169C146.698 66.9953 146.542 67.3728 146.542 67.7664C146.542 68.1601 146.698 68.5376 146.977 68.8159C147.255 69.0943 147.633 69.2507 148.026 69.2507H153.678C153.779 69.2509 153.879 69.2408 153.978 69.2205C154.077 69.1992 154.173 69.1689 154.266 69.13C154.507 69.0259 154.717 68.8594 154.873 68.6477C155.029 68.4359 155.126 68.1865 155.154 67.9249C155.182 67.6634 155.14 67.3991 155.032 67.1591C154.924 66.9192 154.754 66.7123 154.54 66.5595Z" fill="#3F3D56"/>
<path d="M148.403 68.5197C148.819 68.5197 149.157 68.1824 149.157 67.7662C149.157 67.3501 148.819 67.0127 148.403 67.0127C147.987 67.0127 147.649 67.3501 147.649 67.7662C147.649 68.1824 147.987 68.5197 148.403 68.5197Z" fill="#F1F1F1"/>
<path d="M150.852 68.5197C151.268 68.5197 151.606 68.1824 151.606 67.7662C151.606 67.3501 151.268 67.0127 150.852 67.0127C150.436 67.0127 150.099 67.3501 150.099 67.7662C150.099 68.1824 150.436 68.5197 150.852 68.5197Z" fill="#F1F1F1"/>
<path d="M153.301 68.5197C153.718 68.5197 154.055 68.1824 154.055 67.7662C154.055 67.3501 153.718 67.0127 153.301 67.0127C152.885 67.0127 152.548 67.3501 152.548 67.7662C152.548 68.1824 152.885 68.5197 153.301 68.5197Z" fill="#41C9E2"/>
<path d="M181.684 42.9314C179.724 44.1066 176.233 45.5792 172.664 44.0659L170.358 43.0876L174.98 37.9069C171.292 33.8406 169.251 28.5459 169.257 23.0563C169.262 17.5666 171.314 12.2761 175.01 8.21737C178.707 4.15861 183.784 1.62292 189.249 1.10524C194.715 0.587563 200.177 2.12505 204.571 5.4176C208.964 8.71015 211.972 13.5214 213.008 18.9124C214.045 24.3033 213.035 29.8869 210.175 34.5734C207.316 39.2598 202.813 42.7127 197.545 44.2581C192.277 45.8036 186.622 45.3305 181.684 42.9314Z" fill="white"/>
<path d="M181.696 43.2109C179.813 44.3164 176.226 45.8442 172.569 44.2928L169.946 43.1803L174.65 37.9078C171.723 34.6158 169.836 30.5316 169.226 26.1693C168.616 21.807 169.31 17.3618 171.222 13.3935C173.134 9.42514 176.177 6.11118 179.969 3.86894C183.761 1.6267 188.131 0.556437 192.53 0.792947C196.929 1.02946 201.159 2.56216 204.688 5.19803C208.218 7.8339 210.888 11.4551 212.363 15.6055C213.838 19.7559 214.052 24.25 212.978 28.5217C211.904 32.7934 209.589 36.6518 206.326 39.6109C203.049 42.6007 198.952 44.5414 194.563 45.1829C190.173 45.8245 185.692 45.1377 181.696 43.2109ZM207.5 8.41651C205.574 6.29262 203.249 4.56881 200.657 3.34353C198.066 2.11825 195.258 1.4155 192.394 1.27543C189.531 1.13536 186.668 1.56071 183.969 2.52718C181.269 3.49365 178.787 4.98231 176.664 6.90814C174.54 8.83397 172.817 11.1592 171.592 13.7511C170.367 16.343 169.665 19.1508 169.526 22.0141C169.386 24.8773 169.812 27.74 170.78 30.4386C171.747 33.1371 173.236 35.6187 175.163 37.7417L175.312 37.9058L170.771 42.9954L172.761 43.8394C176.293 45.3376 179.788 43.7813 181.558 42.7204L181.672 42.6517L181.792 42.7101C186.352 44.9257 191.542 45.4848 196.47 44.2914C201.398 43.0979 205.756 40.2263 208.797 36.1697C211.838 32.113 213.372 27.1243 213.135 22.06C212.899 16.9957 210.906 12.1718 207.5 8.41651Z" fill="#41C9E2"/>
<path opacity="0.1" d="M209.967 22.9416C209.966 17.8655 208.065 12.9735 204.638 9.2289C201.21 5.48433 196.505 3.15861 191.448 2.70975C192.04 2.65792 192.638 2.62988 193.244 2.62988C198.629 2.63313 203.793 4.77454 207.6 8.58337C211.407 12.3922 213.545 17.5567 213.545 22.9416C213.545 28.3264 211.407 33.4909 207.6 37.2998C203.793 41.1086 198.629 43.25 193.244 43.2533C192.639 43.2533 192.042 43.2248 191.451 43.1731C196.507 42.7236 201.212 40.3976 204.639 36.6532C208.066 32.9088 209.966 28.0172 209.967 22.9416Z" fill="black"/>
<path d="M194.198 18.8911H179.683V20.2389H194.198V18.8911Z" fill="#41C9E2"/>
<path d="M204.982 23.5537H179.683V24.9015H204.982V23.5537Z" fill="#41C9E2"/>
<path d="M204.957 28.2163H179.683V29.5641H204.957V28.2163Z" fill="#41C9E2"/>
<path d="M94.4989 117.334H0.636982C0.571644 117.334 0.508982 117.308 0.462781 117.262C0.41658 117.216 0.390625 117.153 0.390625 117.088C0.390625 117.022 0.41658 116.96 0.462781 116.913C0.508982 116.867 0.571644 116.841 0.636982 116.841H94.4989C94.5643 116.841 94.627 116.867 94.6732 116.913C94.7194 116.96 94.7453 117.022 94.7453 117.088C94.7453 117.153 94.7194 117.216 94.6732 117.262C94.627 117.308 94.5643 117.334 94.4989 117.334Z" fill="#CBCBCB"/>
<path d="M58.3018 19.293C58.0984 18.3704 57.4377 17.606 56.6767 17.0462C55.422 16.1233 53.8834 15.6697 52.3287 15.7642C50.7741 15.8588 49.3018 16.4955 48.1682 17.5636C47.5348 18.1229 47.0782 18.8547 46.8541 19.6695C46.7473 20.0767 46.7416 20.5039 46.8375 20.9138C46.9335 21.3238 47.1282 21.704 47.4047 22.0215L47.509 22.0868C47.4144 21.6858 47.726 21.2851 48.0982 21.1081C48.4853 20.9661 48.8893 20.8755 49.3 20.8387C49.9214 20.7213 50.5103 20.4719 51.0269 20.1073C51.5436 19.7428 51.976 19.2716 52.2949 18.7256C52.5312 19.3976 52.9087 20.0112 53.4019 20.5252C53.8951 21.0392 54.4927 21.4416 55.1545 21.7053C55.8444 21.9751 57.7392 22.3461 58.396 22.0036C59.2338 21.5667 58.5052 20.2157 58.3018 19.293Z" fill="#2F2E41"/>
</g>
<defs>
<clipPath id="clip0_30_936">
<rect width="214.079" height="116.927" fill="white" transform="translate(0.390625 0.770996)"/>
</clipPath>
</defs>
</svg>
