<svg width="20" height="6" viewBox="0 5 30 22" fill="none" xmlns="http://www.w3.org/2000/svg">
<rect y="4" width="30" height="15" rx="7.5" fill="#F93F3F"/>
<path d="M6.85867 14V7.45455H8.04439V13.006H10.9272V14H6.85867ZM11.4972 14V9.09091H12.6542V14H11.4972ZM12.0789 8.39418C11.8956 8.39418 11.738 8.33345 11.6059 8.212C11.4738 8.08842 11.4077 7.94034 11.4077 7.76776C11.4077 7.59304 11.4738 7.44496 11.6059 7.32351C11.738 7.19993 11.8956 7.13814 12.0789 7.13814C12.2642 7.13814 12.4219 7.19993 12.5519 7.32351C12.684 7.44496 12.75 7.59304 12.75 7.76776C12.75 7.94034 12.684 8.08842 12.5519 8.212C12.4219 8.33345 12.2642 8.39418 12.0789 8.39418ZM17.8208 9.09091L16.0726 14H14.7942L13.046 9.09091H14.2796L15.4078 12.7376H15.459L16.5903 9.09091H17.8208ZM20.2197 14.0959C19.7275 14.0959 19.3025 13.9936 18.9445 13.7891C18.5887 13.5824 18.3149 13.2905 18.1231 12.9134C17.9314 12.5341 17.8355 12.0877 17.8355 11.5742C17.8355 11.0692 17.9314 10.6261 18.1231 10.2447C18.317 9.86115 18.5876 9.56285 18.9349 9.34979C19.2822 9.13459 19.6902 9.02699 20.159 9.02699C20.4616 9.02699 20.7471 9.07599 21.0155 9.17401C21.2861 9.26989 21.5248 9.41903 21.7314 9.62145C21.9402 9.82386 22.1043 10.0817 22.2236 10.3949C22.3429 10.706 22.4026 11.0767 22.4026 11.5071V11.8619H18.3788V11.082H21.2936C21.2915 10.8604 21.2435 10.6634 21.1498 10.4908C21.056 10.3161 20.925 10.1786 20.7567 10.0785C20.5905 9.97834 20.3966 9.92827 20.175 9.92827C19.9385 9.92827 19.7307 9.9858 19.5518 10.1009C19.3728 10.2138 19.2332 10.3629 19.1331 10.5483C19.0351 10.7315 18.985 10.9329 18.9829 11.1523V11.8331C18.9829 12.1186 19.0351 12.3636 19.1395 12.5682C19.2439 12.7706 19.3898 12.9261 19.5773 13.0348C19.7648 13.1413 19.9843 13.1946 20.2357 13.1946C20.404 13.1946 20.5564 13.1712 20.6927 13.1243C20.8291 13.0753 20.9473 13.0039 21.0475 12.9102C21.1476 12.8164 21.2233 12.7003 21.2744 12.5618L22.3547 12.6832C22.2865 12.9687 22.1565 13.218 21.9647 13.4311C21.7751 13.642 21.5322 13.8061 21.2361 13.9233C20.9399 14.0384 20.6011 14.0959 20.2197 14.0959Z" fill="white"/>
</svg>
