<svg width="83" height="41" viewBox="0 0 83 41" fill="none" xmlns="http://www.w3.org/2000/svg">
<path d="M29.9108 13.2727C31.0078 13.0363 32.1975 13.8722 32.353 14.9268C32.5407 16.1993 31.3099 17.1767 30.3133 17.7793C29.2168 18.4422 28.027 19.0346 27.4232 20.1937C26.9014 21.1953 26.8257 22.415 27.2548 23.46C28.0854 25.4827 30.4597 26.1789 32.0353 27.5303C32.4206 27.8607 32.7624 28.237 33.0099 28.6736C33.3348 29.2467 33.4678 29.9007 33.4372 30.5494C33.3749 31.8702 32.6277 33.049 31.6133 33.9113C30.5688 34.7994 29.1427 35.2465 28.2592 36.3109C27.8803 36.7673 27.5934 37.3444 27.6361 37.9408C27.6732 38.4568 27.9407 38.9654 28.3821 39.2711C28.597 39.4201 28.8449 39.5035 29.109 39.522C29.2704 39.5332 29.2696 39.2927 29.109 39.2815C28.5334 39.2412 28.1054 38.7737 27.9508 38.2686C27.7708 37.6804 27.9909 37.0753 28.3501 36.592C28.7592 36.0414 29.3478 35.6516 29.9399 35.3C30.54 34.9437 31.1501 34.6068 31.6892 34.1663C32.699 33.3411 33.4699 32.2189 33.6506 30.9433C33.7422 30.2963 33.6862 29.6235 33.4449 29.01C33.2511 28.5174 32.9448 28.0763 32.5698 27.693C31.8346 26.9416 30.8859 26.4206 29.9944 25.8611C29.1024 25.3013 28.1897 24.671 27.6716 23.7527C27.1037 22.7463 27.0864 21.4739 27.5795 20.437C27.8434 19.8819 28.247 19.424 28.7437 19.0452C29.2847 18.6326 29.8977 18.3173 30.4798 17.9629C31.4934 17.3458 32.5824 16.4437 32.619 15.1999C32.65 14.146 31.7159 13.1932 30.654 13.0211C30.3832 12.9772 30.112 12.983 29.844 13.0408C29.6862 13.0747 29.753 13.3067 29.9108 13.2727Z" fill="#3F3D56"/>
<path d="M56.4406 13.3796C55.3435 13.1432 54.1539 13.9791 53.9983 15.0337C53.8107 16.3062 55.0415 17.2837 56.0381 17.8862C57.1346 18.5492 58.3243 19.1415 58.9282 20.3006C59.45 21.3023 59.5256 22.5219 59.0965 23.5669C58.266 25.5897 55.8917 26.2858 54.3161 27.6372C53.9308 27.9676 53.589 28.3439 53.3414 28.7805C53.0165 29.3536 52.8835 30.0076 52.9142 30.6564C52.9765 31.9771 53.7237 33.1559 54.738 34.0183C55.7826 34.9063 57.2087 35.3534 58.0922 36.4178C58.471 36.8742 58.758 37.4514 58.7152 38.0477C58.6782 38.5638 58.4106 39.0723 57.9693 39.3781C57.7543 39.527 57.5065 39.6104 57.2424 39.6289C57.081 39.6402 57.0817 39.3996 57.2424 39.3884C57.8179 39.3481 58.246 38.8806 58.4006 38.3755C58.5806 37.7873 58.3605 37.1822 58.0013 36.6989C57.5921 36.1484 57.0036 35.7585 56.4115 35.407C55.8114 35.0506 55.2012 34.7138 54.6622 34.2733C53.6523 33.448 52.8815 32.3259 52.7008 31.0502C52.6091 30.4032 52.6652 29.7304 52.9065 29.1169C53.1002 28.6243 53.4066 28.1833 53.7816 27.8C54.5167 27.0485 55.4654 26.5275 56.3569 25.9681C57.249 25.4083 58.1617 24.7779 58.6798 23.8596C59.2476 22.8532 59.265 21.5809 58.7719 20.544C58.5079 19.9888 58.1043 19.531 57.6076 19.1521C57.0666 18.7396 56.4537 18.4242 55.8716 18.0699C54.8579 17.4528 53.769 16.5506 53.7324 15.3068C53.7013 14.253 54.6355 13.3001 55.6974 13.128C55.9681 13.0841 56.2394 13.0899 56.5074 13.1477C56.6651 13.1817 56.5984 13.4136 56.4406 13.3796Z" fill="#3F3D56"/>
<path d="M74.12 6.47559L73.6017 9.87232L70.7686 9.92879V6.96524L74.12 6.47559Z" fill="#FFB6B6"/>
<path opacity="0.1" d="M74.1205 6.47559L73.6476 9.97921L70.8145 10.0357V7.07212L74.1205 6.47559Z" fill="black"/>
<path d="M2.12256 40.8989H3.12598L3.12598 25.3685H2.12256L2.12256 40.8989Z" fill="#F2F2F2"/>
<path d="M6.13624 40.8989H7.13965L7.13965 25.3685H6.13624L6.13624 40.8989Z" fill="#F2F2F2"/>
<path d="M12.3921 40.8989H13.3955L13.3955 25.3685H12.3921L12.3921 40.8989Z" fill="#F2F2F2"/>
<path d="M14.2808 40.8989H15.2842L15.2842 25.3685H14.2808L14.2808 40.8989Z" fill="#F2F2F2"/>
<path d="M1.59088 25.1422L0.225428 18.3571C-0.0256023 17.1097 0.880908 15.92 2.19895 15.7672L9.50014 14.9204C9.50014 14.9204 10.5036 22.7703 10.5036 22.375C10.5036 21.9797 20.4492 23.3633 16.7306 25.3399C13.0121 27.3165 2.97795 26.7517 1.59088 25.1422Z" fill="#F2F2F2"/>
<path d="M17.8554 36.7222L19.0919 37.9052L20.7994 38.7502L20.6228 40.215L17.3844 39.8769L16.9723 39.0883L17.09 38.4122L16.8545 37.3419L17.8554 36.7222Z" fill="#A0616A"/>
<path d="M20.3873 39.6516L20.4884 38.4087L23.979 39.9896C23.979 39.9896 24.2493 40.7219 23.4076 40.8346C22.5659 40.9473 16.9723 40.9473 16.9723 40.6656C16.9723 40.3839 16.8193 38.9418 16.8193 38.9418L20.2107 39.8769L20.3873 39.6516Z" fill="#2F2E41"/>
<path d="M13.4085 33.436L12.5141 34.8737L12.0781 36.6651L10.5508 36.8616L10.0967 33.7752L10.7943 33.1989L11.5081 33.1419L12.5345 32.6602L13.4085 33.436Z" fill="#A0616A"/>
<path d="M11.0632 36.5045L12.3471 36.2926L11.6042 39.9185C11.6042 39.9185 10.9288 40.3493 10.6076 39.5965C10.2864 38.8436 8.91057 33.6562 9.19592 33.5869C9.48127 33.5176 10.9046 33.021 10.9046 33.021L10.7914 36.3961L11.0632 36.5045Z" fill="#2F2E41"/>
<path d="M9.52961 6.53418L9.35254 9.9791L12.1857 10.0356V7.07202L9.52961 6.53418Z" fill="#A0616A"/>
<path opacity="0.1" d="M9.52961 6.53418L9.35254 9.9791L12.1857 10.0356V7.07202L9.52961 6.53418Z" fill="black"/>
<path d="M4.7491 20.7656C4.7491 20.7656 3.45057 23.9846 4.39496 25.2836C5.33935 26.5825 9.76617 27.3166 9.76617 27.3166L11.5959 28.9544L16.4359 37.8773L19.2691 37.2561L15.2554 28.1073C15.2554 28.1073 12.8945 24.4364 12.0091 23.9282C11.1237 23.4199 9.47512 21.5116 9.47512 21.5116L4.7491 20.7656Z" fill="#2F2E41"/>
<path d="M12.7764 21.0479L14.5946 22.2798C14.5946 22.2798 21.0398 23.928 18.974 27.7683C16.9081 31.6085 13.8388 34.3757 13.8388 34.3757L11.1237 32.9074L15.4915 27.0341L7.81836 22.5727L12.7764 21.0479Z" fill="#2F2E41"/>
<path d="M29.3023 16.3652C30.1567 16.5296 30.7605 17.0848 30.651 17.605C30.5416 18.1252 29.7603 18.4135 28.9056 18.2489C28.5632 18.1876 28.2412 18.0487 27.9664 17.8439L24.3555 17.1033L24.6652 15.7378L28.2722 16.3909C28.6085 16.3037 28.9617 16.2949 29.3023 16.3652Z" fill="#A0616A"/>
<path d="M15.6668 25.1889C16.2913 25.7705 16.4838 26.5503 16.0969 26.9305C15.7099 27.3107 14.8901 27.1473 14.2655 26.5653C14.0127 26.3362 13.8209 26.0524 13.7062 25.7377L11.0928 23.2412L12.1272 22.2549L14.7869 24.6758C15.1189 24.7771 15.4206 24.9531 15.6668 25.1889Z" fill="#A0616A"/>
<path d="M12.0377 8.76514H8.36473L5.66308 10.5158L5.89918 17.4057C5.89918 17.4057 6.39284 19.1358 4.71869 20.7377C3.71528 21.6977 4.06943 22.2625 4.06943 22.2625L10.0309 22.7142L13.6019 21.726L12.3033 18.6199L12.5394 17.6598C12.5394 17.6598 14.9594 16.0221 14.5462 14.3278C14.1331 12.6336 13.6019 9.13222 13.6019 9.13222L12.0377 8.76514Z" fill="#CCCCCC"/>
<path d="M9.47052 18.902L6.81443 10.5438C6.81443 10.5438 5.45687 10.092 4.86662 11.2215C4.27638 12.351 5.01883 16.6713 5.01883 16.6713L8.11296 21.5563L13.071 25.1706L14.3105 23.8717L9.47052 18.902Z" fill="#CCCCCC"/>
<path d="M20.6795 14.5916L13.5547 9.12842C13.5547 9.12842 12.1676 9.48899 12.3471 10.7401C12.5265 11.9911 15.689 15.1556 15.689 15.1556L21.1256 17.5157L27.3506 17.82L27.607 16.0783L20.6795 14.5916Z" fill="#CCCCCC"/>
<path d="M11.2114 8.14373C12.5806 8.14373 13.6905 7.08179 13.6905 5.77182C13.6905 4.46184 12.5806 3.3999 11.2114 3.3999C9.84232 3.3999 8.73242 4.46184 8.73242 5.77182C8.73242 7.08179 9.84232 8.14373 11.2114 8.14373Z" fill="#A0616A"/>
<path d="M80.8784 25.3682H79.875V40.8986H80.8784V25.3682Z" fill="#F2F2F2"/>
<path d="M76.8647 25.3682H75.8613V40.8986H76.8647V25.3682Z" fill="#F2F2F2"/>
<path d="M70.6079 25.3682H69.6045V40.8986H70.6079V25.3682Z" fill="#F2F2F2"/>
<path d="M68.7192 25.3682H67.7158V40.8986H68.7192V25.3682Z" fill="#F2F2F2"/>
<path d="M81.4096 25.1422L82.7751 18.3571C83.0261 17.1097 82.1196 15.92 80.8016 15.7672L73.5004 14.9204C73.5004 14.9204 72.4969 22.7703 72.4969 22.375C72.4969 21.9797 62.5513 23.3633 66.2699 25.3399C69.9884 27.3165 80.0226 26.7517 81.4096 25.1422Z" fill="#F2F2F2"/>
<path d="M65.1451 36.7222L63.9087 37.9052L62.2012 38.7502L62.3778 40.215L65.6162 39.8769L66.0283 39.0883L65.9106 38.4122L66.1461 37.3419L65.1451 36.7222Z" fill="#FFB6B6"/>
<path d="M62.6134 39.6516L62.5123 38.4087L59.0218 39.9896C59.0218 39.9896 58.7515 40.7219 59.5932 40.8346C60.4349 40.9473 66.0284 40.9473 66.0284 40.6656C66.0284 40.3839 66.1814 38.9418 66.1814 38.9418L62.7901 39.8769L62.6134 39.6516Z" fill="#2F2E41"/>
<path d="M62.2201 28.8125L61.4925 30.3339L60.2002 31.6956L60.8996 33.0094L63.8115 31.612L63.9103 30.7353L63.5535 30.141L63.3841 29.0593L62.2201 28.8125Z" fill="#FFB6B6"/>
<path d="M60.9148 32.4026L60.367 31.2715L57.6719 33.9179C57.6719 33.9179 57.6855 34.6945 58.5154 34.5192C59.3453 34.344 64.5877 32.4775 64.485 32.2135C64.3823 31.9495 64.0001 30.5469 64.0001 30.5469L61.1625 32.5549L60.9148 32.4026Z" fill="#2F2E41"/>
<path d="M78.2514 20.7656C78.2514 20.7656 79.55 23.9846 78.6056 25.2836C77.6612 26.5825 73.2344 27.3166 73.2344 27.3166L71.4046 28.9544L66.5646 37.8773L63.7314 37.2561L67.7451 28.1073C67.7451 28.1073 70.1061 24.4364 70.9914 23.9282C71.8768 23.4199 73.5254 21.5116 73.5254 21.5116L78.2514 20.7656Z" fill="#2F2E41"/>
<path d="M73.2302 22.2666L71.1372 21.536C71.1372 21.536 66.0555 17.4001 63.9283 21.2096C61.8011 25.0191 61.167 29.0082 61.167 29.0082L63.9732 30.3104L66.5396 23.5332L74.7382 27.036L73.2302 22.2666Z" fill="#2F2E41"/>
<path d="M61.4301 24.4012C60.8691 25.0393 60.7584 25.8335 61.1829 26.1751C61.6074 26.5167 62.4062 26.2762 62.9673 25.6378C63.1951 25.3857 63.3565 25.0851 63.438 24.7611L65.7795 22.0287L64.6478 21.1455L62.2524 23.8071C61.9327 23.9395 61.6507 24.1432 61.4301 24.4012Z" fill="#FFB6B6"/>
<path d="M67.3328 25.1889C66.7084 25.7705 66.5158 26.5503 66.9028 26.9305C67.2898 27.3107 68.1095 27.1473 68.7342 26.5653C68.987 26.3362 69.1788 26.0524 69.2935 25.7377L71.9069 23.2412L70.8724 22.2549L68.2127 24.6758C67.8808 24.7771 67.5791 24.9531 67.3328 25.1889Z" fill="#FFB6B6"/>
<path d="M70.9622 8.76514H74.6352L77.3369 10.5158L77.1008 17.4057C77.1008 17.4057 76.6071 19.1358 78.2813 20.7377C79.2847 21.6977 78.9305 22.2625 78.9305 22.2625L72.9691 22.7142L69.3981 21.726L70.6966 18.6199L70.4605 17.6598C70.4605 17.6598 68.0405 16.0221 68.4537 14.3278C68.8669 12.6336 69.3981 9.13222 69.3981 9.13222L70.9622 8.76514Z" fill="#41C9E2"/>
<path d="M73.5294 18.902L76.1855 10.5438C76.1855 10.5438 77.5431 10.092 78.1333 11.2215C78.7236 12.351 77.9811 16.6713 77.9811 16.6713L74.887 21.5563L69.929 25.1706L68.6895 23.8717L73.5294 18.902Z" fill="#41C9E2"/>
<path d="M67.0185 17.8722L69.0319 9.35124C69.0319 9.35124 70.3514 8.80612 71.026 9.89151C71.7006 10.9769 71.2887 15.3374 71.2887 15.3374L68.5744 20.4249L63.9044 24.3749L62.5693 23.1657L67.0185 17.8722Z" fill="#41C9E2"/>
<path d="M29.7703 13.4233H28.9883V40.7864H29.7703V13.4233Z" fill="#3F3D56"/>
<path d="M29.1778 17.2262L22.084 11.6698L22.2632 11.542L29.357 17.0984L29.1778 17.2262Z" fill="#3F3D56"/>
<path d="M29.5464 13.904H29.0995C28.3296 13.904 27.7031 13.3046 27.7031 12.5679V8.93374C27.7031 8.19702 28.3296 7.59766 29.0995 7.59766H29.5464C30.3164 7.59766 30.9428 8.19702 30.9428 8.93374V12.5679C30.9428 13.3046 30.3164 13.904 29.5464 13.904Z" fill="#41C9E2"/>
<path d="M22.0062 13.6368C23.1476 13.6368 24.0729 12.1772 24.0729 10.3768C24.0729 8.57627 23.1476 7.1167 22.0062 7.1167C20.8647 7.1167 19.9395 8.57627 19.9395 10.3768C19.9395 12.1772 20.8647 13.6368 22.0062 13.6368Z" fill="#41C9E2"/>
<path d="M29.4348 12.2476C28.237 12.2476 25.9717 12.0912 25.9717 11.4993C25.9717 11.2087 26.5092 10.9932 27.5693 10.8587L27.5986 11.0705C26.453 11.2161 26.1951 11.4343 26.1951 11.4993C26.1951 11.6808 27.3386 12.0338 29.4348 12.0338C31.531 12.0338 32.6745 11.6808 32.6745 11.4993C32.6745 11.408 32.28 11.1769 31.0607 11.046L31.0856 10.8335C31.9124 10.9223 32.8979 11.1099 32.8979 11.4993C32.8979 12.0912 30.6326 12.2476 29.4348 12.2476Z" fill="#3F3D56"/>
<path d="M56.3586 40.7861H57.1406V13.4231H56.3586V40.7861Z" fill="#3F3D56"/>
<path d="M56.9507 17.2262L64.0445 11.6698L63.8653 11.542L56.7715 17.0984L56.9507 17.2262Z" fill="#3F3D56"/>
<path d="M55.1855 12.5679V8.93374C55.1855 8.19702 55.812 7.59766 56.582 7.59766H57.0288C57.7988 7.59766 58.4252 8.19702 58.4252 8.93374V12.5679C58.4252 13.3046 57.7988 13.904 57.0288 13.904H56.582C55.812 13.904 55.1855 13.3046 55.1855 12.5679Z" fill="#41C9E2"/>
<path d="M64.1224 13.6368C65.2638 13.6368 66.1891 12.1772 66.1891 10.3768C66.1891 8.57627 65.2638 7.1167 64.1224 7.1167C62.981 7.1167 62.0557 8.57627 62.0557 10.3768C62.0557 12.1772 62.981 13.6368 64.1224 13.6368Z" fill="#41C9E2"/>
<path d="M56.6936 12.2471C55.4958 12.2471 53.2305 12.0907 53.2305 11.4989C53.2305 11.1094 54.216 10.9218 55.0428 10.833L55.0677 11.0455C53.8484 11.1764 53.4539 11.4075 53.4539 11.4989C53.4539 11.6803 54.5974 12.0333 56.6936 12.0333C58.7898 12.0333 59.9333 11.6803 59.9333 11.4989C59.9333 11.4338 59.6754 11.2156 58.5298 11.0701L58.5591 10.8582C59.6192 10.9927 60.1567 11.2083 60.1567 11.4989C60.1567 12.0907 57.8914 12.2471 56.6936 12.2471Z" fill="#3F3D56"/>
<path d="M72.2232 7.84479C73.6808 7.84479 74.8624 6.71423 74.8624 5.31961C74.8624 3.925 73.6808 2.79443 72.2232 2.79443C70.7656 2.79443 69.584 3.925 69.584 5.31961C69.584 6.71423 70.7656 7.84479 72.2232 7.84479Z" fill="#FFB6B6"/>
<path d="M72.4342 1.92483C72.3578 1.96748 72.2555 1.90295 72.231 1.82165C72.2066 1.74035 72.2351 1.65403 72.2634 1.57387L72.4058 1.17033C72.5068 0.884124 72.6139 0.587921 72.8327 0.370084C73.1628 0.0412947 73.6875 -0.0423487 74.1598 0.0182477C74.7663 0.0960646 75.3647 0.410298 75.6467 0.929924C75.9287 1.44955 75.8087 2.17461 75.2991 2.49881C76.0253 3.29526 76.2785 4.18288 76.2385 5.23916C76.1986 6.29545 74.9955 7.26757 74.2109 8.01168C74.0357 7.91006 73.8764 7.43383 73.9728 7.26083C74.0691 7.08782 73.9311 6.88739 74.0504 6.72804C74.1697 6.56868 74.2696 6.82242 74.1489 6.66397C74.0728 6.56399 74.3699 6.33396 74.2568 6.27412C73.7095 5.98467 73.5274 5.33197 73.1837 4.83215C72.7691 4.22928 72.0595 3.821 71.3086 3.75327C70.8949 3.71596 70.458 3.78354 70.1189 4.01332C69.7799 4.2431 69.5603 4.65371 69.639 5.04407C69.4353 4.84625 69.334 4.55634 69.3722 4.2811C69.4104 4.00586 69.5874 3.75134 69.838 3.61128C69.6856 3.12922 69.8162 2.57471 70.1698 2.20168C70.5234 1.82865 71.9579 1.89218 72.4741 1.99036" fill="#2F2E41"/>
<path d="M72.5146 3.76807C73.1984 3.83869 73.6921 4.40539 74.109 4.92875C74.3493 5.23039 74.601 5.56351 74.595 5.94274C74.5889 6.32615 74.3209 6.655 74.1929 7.01836C73.9836 7.61228 74.1876 8.3189 74.6858 8.72584C74.1935 8.81522 73.6613 8.46205 73.5763 7.98957C73.4774 7.43955 73.9132 6.90869 73.8616 6.35277C73.8161 5.863 73.4127 5.48606 73.0698 5.11986C72.7268 4.75365 72.4047 4.26771 72.5625 3.79976" fill="#2F2E41"/>
<path d="M9.94145 1.8006C9.94145 1.8006 8.94771 1.11391 8.06438 2.59295C7.46099 3.60325 7.14097 5.52549 6.99873 6.64241C6.93326 7.15646 7.2118 7.6543 7.69453 7.88849L10.8248 9.40709C10.8248 9.40709 9.66541 5.18126 11.2664 4.54739C12.8675 3.91351 12.8123 4.07198 12.8123 4.07198C12.8123 4.07198 14.0821 6.71312 12.4258 7.87523L13.806 8.72039C13.806 8.72039 14.7446 3.75505 13.0331 2.80424C11.3217 1.85343 11.7081 1.16673 9.94145 1.8006Z" fill="#2F2E41"/>
</svg>
