<svg width="199" height="126" viewBox="0 0 199 126" fill="none" xmlns="http://www.w3.org/2000/svg">
<g clip-path="url(#clip0_23_606)">
<path d="M9.08323 105.438C9.92434 98.7424 14.116 92.1453 20.5662 89.9663C18.0224 96.858 18.023 104.418 20.5678 111.31C21.559 113.964 22.9405 116.814 22.0082 119.489C21.4281 121.153 20.0091 122.427 18.4228 123.223C16.8365 124.019 15.076 124.399 13.3375 124.771L12.9953 125.051C10.2355 118.881 8.24213 112.134 9.08323 105.438Z" fill="#F0F0F0"/>
<path d="M20.6305 90.0928C16.8741 94.2595 14.5395 99.492 13.9581 105.047C13.8115 106.241 13.8558 107.45 14.0895 108.63C14.3547 109.772 14.924 110.823 15.7383 111.674C16.4814 112.482 17.3361 113.224 17.8678 114.197C18.1325 114.699 18.287 115.251 18.3212 115.816C18.3554 116.381 18.2685 116.947 18.0661 117.477C17.5967 118.81 16.6714 119.897 15.7293 120.928C14.6832 122.073 13.5784 123.246 13.1338 124.764C13.0799 124.948 12.7947 124.855 12.8485 124.671C13.6221 122.03 16.2121 120.529 17.4473 118.15C18.0236 117.04 18.2655 115.752 17.7252 114.58C17.2527 113.555 16.372 112.79 15.6124 111.978C14.8058 111.159 14.2138 110.158 13.8883 109.061C13.5946 107.896 13.5033 106.691 13.6182 105.496C13.8334 102.802 14.4752 100.159 15.5199 97.6623C16.6964 94.8065 18.3576 92.171 20.4317 89.8698C20.5602 89.7274 20.7581 89.9514 20.6305 90.0928Z" fill="white"/>
<path d="M14.0387 103.248C13.1105 103.024 12.2927 102.482 11.7312 101.717C11.1697 100.952 10.9011 100.014 10.9735 99.0715C10.9888 98.8807 11.2889 98.8953 11.2736 99.0863C11.2046 99.9642 11.4548 100.838 11.9791 101.549C12.5035 102.26 13.2673 102.762 14.1329 102.965C14.321 103.009 14.2257 103.292 14.0387 103.248Z" fill="white"/>
<path d="M15.3071 111.313C16.9836 110.322 18.2212 108.742 18.7731 106.888C18.8276 106.704 19.1128 106.797 19.0583 106.981C18.4804 108.909 17.1891 110.551 15.4422 111.579C15.2757 111.676 15.1415 111.41 15.3071 111.313Z" fill="white"/>
<path d="M16.9754 95.0881C17.3163 95.2485 17.6922 95.3226 18.0692 95.3036C18.4463 95.2847 18.8126 95.1733 19.1355 94.9796C19.3007 94.8797 19.4347 95.1459 19.2706 95.2451C18.9129 95.4576 18.5081 95.5801 18.0916 95.6019C17.6751 95.6238 17.2595 95.5443 16.8812 95.3705C16.8441 95.3571 16.8136 95.3302 16.7959 95.2953C16.7781 95.2604 16.7745 95.2201 16.7856 95.1827C16.7983 95.1454 16.8253 95.1145 16.8609 95.0968C16.8964 95.0791 16.9375 95.0759 16.9754 95.0881Z" fill="white"/>
<path d="M40.2279 101.925C40.1265 101.991 40.0251 102.056 39.9236 102.124C38.5651 103.008 37.2815 104 36.0854 105.09C35.9915 105.173 35.8977 105.258 35.8065 105.344C32.953 108 30.6225 111.159 28.9336 114.657C28.2628 116.05 27.7 117.492 27.2502 118.969C26.629 121.01 26.1195 123.271 24.8899 124.94C24.7636 125.116 24.6264 125.283 24.4791 125.442H13.3673C13.3421 125.43 13.3167 125.419 13.2913 125.407L12.8477 125.427C12.8655 125.349 12.8857 125.269 12.9035 125.191C12.9136 125.146 12.9263 125.101 12.9364 125.056C12.944 125.025 12.9516 124.995 12.9567 124.968C12.9592 124.958 12.9618 124.948 12.9643 124.94C12.9693 124.912 12.977 124.887 12.9821 124.862C13.0936 124.413 13.2085 123.964 13.3268 123.515C13.3268 123.512 13.3268 123.512 13.3293 123.51C14.2395 120.089 15.4462 116.713 17.1321 113.626C17.1829 113.533 17.2335 113.438 17.2893 113.345C18.0571 111.958 18.938 110.635 19.9234 109.389C20.4653 108.709 21.0415 108.057 21.6499 107.434C23.2252 105.829 25.0457 104.479 27.0448 103.434C31.0302 101.351 35.6442 100.552 39.9034 101.825C40.0123 101.858 40.1189 101.89 40.2279 101.925Z" fill="#F0F0F0"/>
<path d="M40.203 102.065C34.6697 103.153 29.6234 105.94 25.7808 110.028C24.9378 110.894 24.2379 111.886 23.7069 112.967C23.224 114.038 23.0393 115.216 23.1721 116.381C23.2739 117.469 23.5053 118.57 23.3381 119.664C23.2441 120.223 23.0318 120.756 22.7153 121.227C22.3988 121.699 21.9851 122.099 21.5013 122.402C20.3158 123.186 18.9163 123.502 17.5368 123.764C16.0052 124.055 14.4096 124.333 13.1313 125.28C12.9764 125.395 12.8056 125.15 12.9603 125.036C15.1843 123.388 18.1647 123.734 20.5977 122.57C21.733 122.028 22.7099 121.143 22.9912 119.885C23.2371 118.785 22.9995 117.649 22.8868 116.548C22.7405 115.414 22.8769 114.262 23.2841 113.192C23.7578 112.087 24.4179 111.07 25.2362 110.185C27.0464 108.162 29.1666 106.434 31.519 105.063C34.1951 103.484 37.1243 102.37 40.1799 101.769C40.3691 101.732 40.3909 102.028 40.203 102.065Z" fill="white"/>
<path d="M26.9396 108.64C26.3342 107.908 26.0111 106.988 26.028 106.042C26.0449 105.097 26.4007 104.188 27.0319 103.478C27.1601 103.335 27.3909 103.526 27.2625 103.669C26.6735 104.329 26.3421 105.176 26.3282 106.056C26.3143 106.936 26.6187 107.793 27.1866 108.47C27.3098 108.618 27.0622 108.786 26.9396 108.64Z" fill="white"/>
<path d="M23.0477 115.836C24.9889 116.044 26.938 115.52 28.5063 114.368C28.6616 114.254 28.8325 114.498 28.6773 114.612C27.0431 115.808 25.0136 116.349 22.994 116.128C22.8015 116.107 22.8562 115.814 23.0477 115.836Z" fill="white"/>
<path d="M34.2464 103.875C34.4211 104.206 34.6762 104.489 34.9887 104.699C35.3013 104.908 35.6616 105.038 36.0371 105.076C36.2298 105.094 36.1749 105.387 35.9835 105.368C35.5687 105.325 35.171 105.181 34.8252 104.95C34.4793 104.72 34.1958 104.408 33.9995 104.044C33.9781 104.011 33.9701 103.972 33.9771 103.933C33.9842 103.895 34.0057 103.86 34.0374 103.837C34.0702 103.815 34.1106 103.806 34.1497 103.813C34.1888 103.82 34.2236 103.843 34.2464 103.875Z" fill="white"/>
<path d="M100.145 122.406L103.091 121.425L100.67 109.709L96.3223 111.157L100.145 122.406Z" fill="#FFB6B6"/>
<path d="M99.0703 121.704L99.8995 121.428L102.694 119.046L104.872 119.772C105.852 119.445 106.924 119.518 107.851 119.973C108.777 120.429 109.483 121.23 109.813 122.2L109.853 122.319L100.355 125.483L99.0703 121.704Z" fill="#2F2E41"/>
<path d="M85.8535 120.478L88.8783 121.186L93.0763 109.973L88.6123 108.928L85.8535 120.478Z" fill="#FFB6B6"/>
<path d="M85.3155 119.32L86.1669 119.519L89.8104 118.959L91.2723 120.714C92.279 120.95 93.1501 121.572 93.6936 122.443C94.2372 123.315 94.4088 124.364 94.1707 125.361L94.1415 125.483L84.3887 123.2L85.3155 119.32Z" fill="#2F2E41"/>
<path d="M60.0967 118.842H65.4326V110.089H60.0967V118.842Z" fill="#CACACA"/>
<path d="M65.1653 114.721L64.4805 115.72L77.2866 124.322L77.9715 123.323L65.1653 114.721Z" fill="#CACACA"/>
<path d="M60.3647 114.72L47.5586 123.323L48.2434 124.322L61.0496 115.72L60.3647 114.72Z" fill="#CACACA"/>
<path d="M77.6291 125.483C78.5553 125.483 79.3061 124.74 79.3061 123.823C79.3061 122.906 78.5553 122.163 77.6291 122.163C76.703 122.163 75.9521 122.906 75.9521 123.823C75.9521 124.74 76.703 125.483 77.6291 125.483Z" fill="#CACACA"/>
<path d="M62.6887 125.483C63.6149 125.483 64.3657 124.74 64.3657 123.823C64.3657 122.906 63.6149 122.163 62.6887 122.163C61.7625 122.163 61.0117 122.906 61.0117 123.823C61.0117 124.74 61.7625 125.483 62.6887 125.483Z" fill="#CACACA"/>
<path d="M47.9006 125.483C48.8268 125.483 49.5776 124.74 49.5776 123.823C49.5776 122.906 48.8268 122.163 47.9006 122.163C46.9744 122.163 46.2236 122.906 46.2236 123.823C46.2236 124.74 46.9744 125.483 47.9006 125.483Z" fill="#CACACA"/>
<path d="M63.2987 115.22H62.0791V123.823H63.2987V115.22Z" fill="#CACACA"/>
<path d="M61.6214 114.013H63.9082V102.391H61.6214V114.013Z" fill="#CACACA"/>
<path d="M51.1387 104.202V101.486C51.1392 100.986 51.3402 100.506 51.6975 100.152C52.0547 99.7986 52.5391 99.5997 53.0443 99.5991H70.8644C71.3696 99.5997 71.854 99.7986 72.2112 100.152C72.5685 100.506 72.7695 100.986 72.77 101.486V104.202C72.7695 104.703 72.5685 105.182 72.2112 105.536C71.854 105.889 71.3696 106.088 70.8644 106.089H53.0443C52.5391 106.088 52.0547 105.889 51.6975 105.536C51.3402 105.182 51.1392 104.703 51.1387 104.202Z" fill="#3F3D56"/>
<path d="M40.3859 99.1924L28.8811 79.6093C28.507 78.9708 28.4039 78.2114 28.5946 77.4977C28.7853 76.784 29.2542 76.1744 29.8984 75.8026L30.5708 75.4154C31.2158 75.045 31.9829 74.943 32.7038 75.1318C33.4247 75.3206 34.0405 75.7847 34.4161 76.4225L45.9209 96.0056C46.2951 96.6441 46.3981 97.4035 46.2074 98.1172C46.0167 98.8308 45.5478 99.4405 44.9037 99.8123L44.2312 100.2C43.5862 100.57 42.8191 100.672 42.0982 100.483C41.3773 100.294 40.7615 99.8302 40.3859 99.1924Z" fill="#3F3D56"/>
<path d="M51.2142 104.109C48.7273 104.106 46.343 103.127 44.5845 101.386C42.826 99.6451 41.8368 97.2848 41.834 94.8228H42.8481C42.8482 96.3399 43.2693 97.8279 44.0653 99.1243C44.8614 100.421 46.0018 101.476 47.3622 102.175C48.7225 102.873 50.2506 103.189 51.7796 103.086C53.3087 102.984 54.7799 102.468 56.0329 101.594L56.6177 102.414C55.038 103.521 53.1494 104.113 51.2142 104.109Z" fill="#3F3D56"/>
<path d="M61.8621 90.0544C61.8621 90.0544 90.2563 81.5212 94.5662 92.0623C98.876 102.603 102.932 114.65 102.932 114.65L97.3549 116.407L86.4535 98.3368C86.4535 98.3368 60.1772 104.862 54.6816 97.2073L61.8621 90.0544Z" fill="#2F2E41"/>
<path d="M41.3269 68.7212L34.7354 68.2192L33.4678 76.2506C33.4678 76.2506 41.5804 97.0818 55.524 99.0897L68.7071 87.2937L54.1067 81.9085L41.3269 68.7212Z" fill="#41C9E2"/>
<path d="M40.5557 63.9467C44.8144 61.8419 46.5432 56.7179 44.4172 52.502C42.2911 48.286 37.1152 46.5745 32.8565 48.6792C28.5979 50.784 26.869 55.908 28.9951 60.124C31.1212 64.34 36.297 66.0514 40.5557 63.9467Z" fill="#FFB8B8"/>
<path d="M39.0981 65.1512C38.7002 65.4806 38.1007 65.6543 37.2807 65.6795C34.8674 65.7532 32.4964 65.0411 30.5313 63.6525C28.5662 62.2638 27.1156 60.2752 26.4019 57.9919C26.0428 56.8427 25.7387 55.1286 26.3289 53.4877C26.7534 52.3084 27.5867 51.3193 28.3346 50.4848C28.9819 49.7622 29.6575 49.0543 30.3427 48.3812C31.1613 47.5766 32.1371 46.6831 33.361 46.2634C34.2579 45.956 35.2191 45.9286 36.1487 45.9021C36.4726 45.8928 36.8077 45.8834 37.1332 45.8618C37.9428 45.8345 38.7375 45.6383 39.4652 45.2861C39.6146 45.2068 39.7794 45.1602 39.9486 45.1494C40.1177 45.1386 40.2872 45.1639 40.4457 45.2235C40.6069 45.284 40.7532 45.378 40.8747 45.4992C40.9961 45.6204 41.0898 45.766 41.1496 45.9262C41.2671 46.241 41.373 46.525 41.7326 46.6298C41.8622 46.6643 41.9984 46.6668 42.1293 46.6371C42.2601 46.6075 42.3816 46.5465 42.4831 46.4596C42.5367 46.4137 42.601 46.3818 42.6702 46.3668C42.7394 46.3518 42.8113 46.3542 42.8794 46.3737C42.9475 46.3924 43.01 46.4274 43.0614 46.4755C43.1128 46.5237 43.1514 46.5835 43.1741 46.6499L43.2036 46.7363C43.2774 46.686 43.3624 46.6541 43.4513 46.6435C43.5403 46.6329 43.6305 46.6439 43.7143 46.6755C43.8356 46.7187 43.9385 46.8016 44.0058 46.9105C44.0731 47.0194 44.1009 47.1478 44.0845 47.2745C43.9642 48.3189 43.5506 49.309 42.8906 50.1324C42.4343 50.6904 41.8717 51.1541 41.2346 51.4971L41.1326 51.5529L41.0621 51.4477C38.1979 52.4953 37.3233 55.466 37.4647 57.9172L37.2142 57.9505C37.1948 57.8708 37.1593 57.7959 37.1099 57.7302C37.0604 57.6645 36.9981 57.6093 36.9266 57.5681C36.8438 57.5161 36.7515 57.4808 36.6549 57.4641C36.5583 57.4475 36.4593 57.4499 36.3637 57.4712C36.1818 57.5279 36.021 57.6367 35.9015 57.7838C35.782 57.9308 35.7092 58.1097 35.6923 58.2977C35.6793 58.4942 35.7077 58.6912 35.7759 58.8763C35.844 59.0613 35.9503 59.2303 36.088 59.3724C36.3877 59.6671 36.7339 59.9115 37.113 60.0961C37.2849 60.1921 37.4627 60.2916 37.6312 60.4007C38.5844 61.0236 39.2723 61.9725 39.5631 63.066C39.6939 63.5664 39.7689 64.2804 39.384 64.8397C39.3037 64.9561 39.2075 65.0609 39.0981 65.1512Z" fill="#2F2E41"/>
<path d="M95.687 95.2944C94.3604 106.59 91.5231 117.16 91.5231 117.16L86.1992 116.407L87.4118 95.106" fill="#2F2E41"/>
<path d="M43.1905 57.6828C42.9358 57.6826 42.6879 57.6018 42.4829 57.4522C42.278 57.3026 42.1267 57.092 42.0512 56.8513C38.592 55.0666 40.4208 53.808 40.659 52.3911C40.6128 52.2431 40.5965 52.0876 40.611 51.9334C40.6255 51.7792 40.6706 51.6293 40.7436 51.4923C40.8167 51.3553 40.9163 51.2339 41.0367 51.135C41.1571 51.0362 41.2961 50.9617 41.4455 50.916L44.982 49.8341C45.2839 49.742 45.6104 49.7723 45.8898 49.9183C46.1692 50.0643 46.3787 50.3141 46.4722 50.6128L47.8645 55.073C47.9574 55.3719 47.9267 55.695 47.7793 55.9716C47.6318 56.2481 47.3796 56.4554 47.0779 56.5481L43.5415 57.6301C43.4278 57.6649 43.3095 57.6827 43.1905 57.6828Z" fill="#3F3D56"/>
<path d="M45.5016 49.6792C45.759 49.6774 46.0102 49.7578 46.2179 49.9084C46.4256 50.059 46.5787 50.2718 46.6546 50.5153L48.1213 55.0755C48.2205 55.3811 48.1956 55.7128 48.0518 56.0004C47.9827 56.1415 47.8859 56.2674 47.767 56.371C47.6482 56.4746 47.5096 56.5537 47.3596 56.6037L46.5644 56.8678L44.3564 50.003L45.1515 49.739C45.2644 49.7014 45.3825 49.6812 45.5016 49.6792Z" fill="#41C9E2"/>
<path d="M27.2214 60.2234C27.0567 60.2234 26.8964 60.1711 26.7639 60.0744C26.6313 59.9777 26.5335 59.8415 26.4848 59.6858L26.1164 58.5057C26.0865 58.41 26.076 58.3094 26.0854 58.2096C26.0948 58.1099 26.1239 58.013 26.1711 57.9244C26.2184 57.8358 26.2828 57.7573 26.3607 57.6934C26.4386 57.6294 26.5284 57.5813 26.6251 57.5518L42.5924 52.6669C42.6891 52.6373 42.7907 52.6268 42.8915 52.6361C42.9923 52.6454 43.0902 52.6743 43.1797 52.721C43.2692 52.7678 43.3485 52.8316 43.4131 52.9087C43.4777 52.9858 43.5263 53.0748 43.5562 53.1705L43.9245 54.3505C43.9846 54.5438 43.9648 54.7528 43.8694 54.9316C43.7741 55.1105 43.6109 55.2445 43.4158 55.3045L27.4485 60.1894C27.3749 60.212 27.2984 60.2234 27.2214 60.2234Z" fill="#3F3D56"/>
<path d="M70.6569 97.169H68.2777C67.9722 97.169 67.6784 97.0531 67.4564 96.8453C67.2345 96.6375 67.1013 96.3534 67.0842 96.0515L66.6806 88.9553C66.6714 88.7946 66.6955 88.6336 66.7513 88.4824C66.8071 88.3312 66.8936 88.1928 67.0053 88.0758C67.117 87.9588 67.2517 87.8656 67.4011 87.8019C67.5505 87.7383 67.7115 87.7055 67.8741 87.7056H71.0605C71.2232 87.7055 71.3841 87.7383 71.5335 87.802C71.6829 87.8656 71.8176 87.9588 71.9294 88.0758C72.0411 88.1928 72.1275 88.3312 72.1834 88.4824C72.2392 88.6337 72.2632 88.7946 72.254 88.9554L71.8504 96.0515C71.8333 96.3534 71.7002 96.6375 71.4782 96.8453C71.2563 97.0531 70.9624 97.169 70.6569 97.169Z" fill="#E4E4E4"/>
<path d="M72.1652 89.3486L72.1348 89.8744H66.8002L66.7695 89.3486H72.1652Z" fill="#CACACA"/>
<path d="M72.0972 90.5317L72.0681 91.0575H66.8663L66.8369 90.5317H72.0972Z" fill="#CACACA"/>
<path d="M72.031 91.7144L72.0003 92.2402H66.934L66.9033 91.7144H72.031Z" fill="#CACACA"/>
<path d="M71.9637 92.8975L71.9333 93.423H67.0024L66.9717 92.8975H71.9637Z" fill="#CACACA"/>
<path d="M71.8955 94.0806L71.8663 94.6064H67.0682L67.0391 94.0806H71.8955Z" fill="#CACACA"/>
<path d="M71.8293 95.2632L71.7989 95.789H67.1361L67.1055 95.2632H71.8293Z" fill="#CACACA"/>
<path d="M69.5339 88.1658C70.0105 88.1658 70.3969 88.0775 70.3969 87.9686C70.3969 87.8597 70.0105 87.7715 69.5339 87.7715C69.0573 87.7715 68.6709 87.8597 68.6709 87.9686C68.6709 88.0775 69.0573 88.1658 69.5339 88.1658Z" fill="#CACACA"/>
<path d="M69.5993 88.1659C69.5731 88.1659 69.5472 88.1608 69.523 88.1509C69.4989 88.1409 69.4769 88.1264 69.4584 88.1081C69.4399 88.0898 69.4253 88.0681 69.4153 88.0442C69.4052 88.0202 69.4001 87.9946 69.4001 87.9687V84.2346H68.1398C68.0872 84.2344 68.0367 84.2136 67.9995 84.1767C67.9623 84.1397 67.9414 84.0896 67.9414 84.0375C67.9414 83.9853 67.9623 83.9353 67.9995 83.8983C68.0367 83.8614 68.0872 83.8405 68.1398 83.8403H69.5993C69.6254 83.8403 69.6513 83.8454 69.6755 83.8553C69.6996 83.8652 69.7216 83.8798 69.7401 83.8981C69.7586 83.9164 69.7732 83.9381 69.7833 83.962C69.7933 83.986 69.7984 84.0116 69.7984 84.0375V87.9687C69.7984 87.9946 69.7933 88.0202 69.7833 88.0442C69.7732 88.0681 69.7586 88.0898 69.7401 88.1081C69.7216 88.1264 69.6996 88.141 69.6755 88.1509C69.6513 88.1608 69.6254 88.1659 69.5993 88.1659Z" fill="#CACACA"/>
<path d="M68.9174 91.4014C68.6292 91.1674 68.2927 90.9989 67.9316 90.9076C67.5705 90.8163 67.1936 90.8045 66.8273 90.8731C66.4611 90.9416 66.1146 91.0888 65.812 91.3043C65.5095 91.5198 65.2584 91.7983 65.0763 92.1203L56.1572 90.5474L58.0195 94.8278L66.2038 95.6652C66.7704 95.9321 67.4162 95.984 68.0189 95.811C68.6215 95.638 69.1391 95.2521 69.4736 94.7266C69.8081 94.201 69.9362 93.5722 69.8337 92.9593C69.7312 92.3465 69.4052 91.7922 68.9174 91.4014Z" fill="#FFB6B6"/>
<path d="M63.1187 95.713L46.7724 94.4408L46.7398 94.3797C46.6773 94.2628 40.4838 82.6479 39.5725 79.983C39.0055 78.3784 39.0098 76.6301 39.5849 75.0283L39.6014 74.9896L39.6382 74.9685C40.3917 74.5414 41.2696 74.3812 42.1273 74.5144C42.985 74.6476 43.7713 75.0661 44.3565 75.701C47.1653 78.7812 49.2126 82.4656 50.3366 86.4633L50.9733 88.738L62.6683 91.3313L63.1187 95.713Z" fill="#41C9E2"/>
<path d="M125.94 10.8108L198.746 0.290527V69.3045L125.94 58.7845V10.8108Z" fill="#F2F2F2"/>
<path d="M199 69.5944L125.688 59.0013V10.5936L199 0V69.5944ZM126.195 58.5672L198.493 69.014V0.580638L126.195 11.0276V58.5672Z" fill="#3F3D56"/>
<path d="M160.356 24.5848C160.248 24.3408 160.135 24.0931 160.013 23.8547C159.897 23.622 159.767 23.3967 159.622 23.1801C159.492 22.982 159.338 22.7999 159.164 22.6377C159.007 22.4908 158.822 22.3771 158.62 22.3034C158.399 22.2279 158.162 22.2123 157.934 22.2582C157.695 22.3082 157.466 22.398 157.258 22.524C157.028 22.6611 156.811 22.8179 156.609 22.9926C156.399 23.1703 156.196 23.3643 156.001 23.5565C155.422 24.1294 154.851 24.71 154.29 25.2981C153.732 25.8827 153.182 26.4747 152.64 27.074C152.103 27.6698 151.573 28.2729 151.052 28.8831C150.533 29.4899 150.023 30.1038 149.521 30.7248L149.524 30.7614L150.7 30.6168L151.891 30.4705L153.097 30.3224L154.318 30.1718C154.614 30.1355 154.914 30.0978 155.214 30.0489C155.517 30.0014 155.817 29.9377 156.113 29.8579C156.416 29.7756 156.71 29.6673 156.994 29.5341C157.293 29.3928 157.575 29.2188 157.834 29.0153C157.937 28.9345 158.04 28.8474 158.143 28.7611C158.246 28.6748 158.35 28.5894 158.455 28.5129C158.556 28.4374 158.665 28.3717 158.779 28.3166C158.886 28.2645 159.002 28.2313 159.121 28.2185C159.267 28.2059 159.413 28.2279 159.548 28.2827C159.692 28.342 159.825 28.4231 159.944 28.5232C160.076 28.633 160.197 28.7543 160.307 28.8856C160.423 29.0232 160.532 29.1666 160.633 29.3153C161.25 30.2459 161.772 31.2345 162.193 32.2668C162.649 33.3364 163.055 34.4641 163.474 35.5825C163.894 36.7056 164.325 37.8194 164.829 38.8585C165.302 39.8795 165.907 40.8355 166.629 41.7026C166.177 40.1822 165.705 38.681 165.214 37.1993C164.726 35.725 164.218 34.2715 163.693 32.8388C163.169 31.4139 162.628 30.0113 162.071 28.6311C161.516 27.2591 160.944 25.9103 160.356 24.5848H160.356Z" fill="white"/>
<path d="M144.49 24.9926L144.472 25.0132L144.454 25.0337L144.436 25.0541L144.418 25.0744C144.373 25.1104 144.329 25.1468 144.286 25.1838C144.242 25.2208 144.198 25.258 144.155 25.2955C144.111 25.3332 144.068 25.371 144.025 25.409L143.896 25.5234C143.815 25.5952 143.735 25.6675 143.655 25.7405C143.575 25.8134 143.496 25.8871 143.417 25.9614C143.338 26.0356 143.259 26.1109 143.18 26.1872C143.102 26.2635 143.024 26.3398 142.946 26.4159C142.792 26.5686 142.639 26.7238 142.487 26.8814C142.335 27.0391 142.185 27.1986 142.037 27.3601C141.889 27.522 141.742 27.6865 141.597 27.8535C141.452 28.0205 141.308 28.1896 141.166 28.361C141.092 28.4498 141.019 28.5393 140.946 28.6295C140.874 28.7197 140.801 28.8104 140.73 28.9016C140.658 28.9928 140.586 29.0848 140.516 29.1777C140.445 29.2705 140.374 29.3631 140.304 29.4555L140.289 29.4304L140.274 29.4053L140.259 29.3802L140.246 29.3516L140.242 29.3451L140.238 29.3385L140.235 29.332L140.232 29.3252C140.082 29.0374 139.965 28.7345 139.881 28.4217C139.792 28.093 139.734 27.757 139.707 27.4178C139.68 27.07 139.682 26.7205 139.716 26.3732C139.749 26.025 139.815 25.6806 139.911 25.3442C140.002 25.026 140.126 24.718 140.281 24.4251C140.419 24.1627 140.589 23.9183 140.788 23.6973C140.964 23.4999 141.172 23.3314 141.401 23.1978C141.613 23.075 141.848 22.9953 142.091 22.9634C142.327 22.9341 142.566 22.9556 142.793 23.0264C143.03 23.1022 143.25 23.2214 143.442 23.3778C143.659 23.5531 143.847 23.7594 144.002 23.9899C144.18 24.254 144.325 24.5384 144.435 24.837L144.437 24.8422L144.439 24.8478L144.441 24.8533L144.442 24.8586L144.455 24.8919L144.466 24.9256L144.478 24.9594L144.49 24.9926Z" fill="#41C9E2"/>
<path d="M144.743 47.6785C145.011 47.7083 145.28 47.745 145.55 47.7885C145.819 47.832 146.09 47.8822 146.361 47.9391C146.633 47.9966 146.905 48.0611 147.178 48.1326C147.451 48.204 147.724 48.2827 147.999 48.3685C148.845 48.6356 149.673 48.9574 150.477 49.3317C151.328 49.7275 152.154 50.1738 152.95 50.6682C153.797 51.194 154.614 51.7658 155.398 52.3811C156.232 53.0371 157.033 53.7348 157.796 54.4715C158.059 54.7244 158.319 54.9837 158.577 55.2496C158.836 55.5154 159.093 55.7884 159.348 56.0683C159.603 56.3482 159.856 56.6345 160.106 56.9271C160.356 57.2198 160.605 57.5193 160.851 57.8256L160.942 57.9386L161.032 58.0523L161.122 58.1665L161.212 58.2812C161.218 58.2912 161.227 58.2995 161.238 58.3054C161.248 58.3112 161.26 58.3143 161.272 58.3145C161.283 58.3136 161.293 58.3105 161.302 58.3053C161.311 58.3002 161.319 58.2931 161.325 58.2847C161.34 58.2655 161.348 58.2421 161.349 58.2179C161.35 58.1898 161.341 58.1623 161.324 58.1401C161.079 57.8259 160.831 57.5179 160.58 57.216C160.329 56.9142 160.077 56.6195 159.821 56.3321C159.568 56.0443 159.311 55.7628 159.052 55.4875C158.792 55.2123 158.531 54.9446 158.27 54.6844C158.008 54.424 157.744 54.1702 157.478 53.9229C157.213 53.6756 156.946 53.4355 156.679 53.2026C156.411 52.9697 156.142 52.7438 155.871 52.525C155.6 52.3061 155.328 52.0939 155.056 51.8882C154.784 51.6828 154.51 51.4841 154.235 51.2921C153.96 51.1002 153.685 50.9153 153.41 50.7372C153.134 50.5599 152.858 50.3893 152.581 50.2255C152.304 50.0617 152.027 49.9048 151.75 49.7549C151.473 49.6058 151.196 49.4636 150.919 49.3282C150.641 49.1929 150.364 49.0649 150.087 48.9442C149.811 48.8233 149.534 48.7093 149.257 48.6024C148.979 48.4955 148.702 48.3956 148.427 48.3027C148.152 48.2102 147.877 48.1246 147.602 48.046C147.327 47.9673 147.053 47.8959 146.781 47.8316C146.508 47.7674 146.235 47.71 145.963 47.6595C145.691 47.6089 145.42 47.5654 145.151 47.5287L145.049 47.5152L144.948 47.5024L144.845 47.4903L144.743 47.479C144.734 47.4788 144.725 47.4813 144.717 47.486C144.709 47.4913 144.702 47.4982 144.697 47.5064C144.691 47.5158 144.687 47.526 144.684 47.5367C144.68 47.5492 144.679 47.562 144.679 47.5749C144.679 47.5876 144.68 47.6003 144.684 47.6125C144.687 47.6239 144.691 47.6348 144.697 47.6449C144.702 47.6538 144.709 47.6616 144.718 47.668C144.725 47.6738 144.733 47.6774 144.743 47.6785Z" fill="white"/>
<path d="M144.489 41.3589C144.969 41.4266 145.451 41.4957 145.936 41.5659C146.421 41.6362 146.911 41.7107 147.407 41.7893C147.902 41.8681 148.399 41.9518 148.898 42.0403C149.4 42.1306 149.905 42.2284 150.411 42.3334C150.921 42.4338 151.433 42.5478 151.947 42.6755C152.463 42.8032 152.981 42.9441 153.5 43.0982C154.022 43.2531 154.545 43.4214 155.07 43.6031C155.596 43.7873 156.124 43.9846 156.653 44.1949C157.123 44.3825 157.592 44.5871 158.06 44.8086C158.528 45.0301 158.996 45.269 159.465 45.5251C159.934 45.7828 160.401 46.0575 160.866 46.3491C161.331 46.6407 161.796 46.9507 162.26 47.279C162.695 47.587 163.124 47.9133 163.549 48.2578C163.974 48.6023 164.395 48.9662 164.811 49.3495C165.228 49.7329 165.639 50.1339 166.043 50.5525C166.447 50.9711 166.846 51.4085 167.239 51.8646C167.628 52.3149 168.005 52.7844 168.37 53.2734C168.735 53.7623 169.09 54.2709 169.435 54.7993C169.778 55.3277 170.108 55.8732 170.425 56.4357C170.742 56.9982 171.045 57.5781 171.335 58.1752C171.371 58.2505 171.406 58.3258 171.442 58.4011C171.477 58.4764 171.513 58.5525 171.548 58.6293C171.583 58.7056 171.617 58.7821 171.652 58.8589C171.686 58.9357 171.72 59.0127 171.753 59.09C171.758 59.1032 171.765 59.1153 171.775 59.1254C171.785 59.1356 171.797 59.1436 171.81 59.149C171.82 59.1525 171.831 59.1535 171.842 59.152C171.853 59.1505 171.863 59.1464 171.872 59.1402C171.893 59.1263 171.907 59.1055 171.913 59.0818C171.92 59.0515 171.917 59.0198 171.904 58.9917C171.63 58.3753 171.34 57.7739 171.035 57.1876C170.73 56.6013 170.41 56.0343 170.077 55.4865C169.745 54.9372 169.4 54.4055 169.04 53.8915C168.681 53.3775 168.311 52.8847 167.93 52.413C167.546 51.9381 167.155 51.4805 166.755 51.0401C166.355 50.5998 165.95 50.1789 165.54 49.7775C165.129 49.3759 164.712 48.9925 164.289 48.6272C163.866 48.262 163.439 47.9167 163.009 47.5914C162.56 47.2524 162.109 46.9301 161.654 46.6244C161.199 46.3187 160.743 46.0313 160.288 45.762C159.831 45.4925 159.373 45.2398 158.914 45.0038C158.455 44.7679 157.996 44.5498 157.537 44.3495C157.005 44.12 156.474 43.9051 155.944 43.705C155.417 43.5059 154.89 43.3219 154.364 43.1529C153.84 42.983 153.318 42.828 152.798 42.6878C152.28 42.5483 151.764 42.4228 151.248 42.3113C150.732 42.1942 150.218 42.0865 149.706 41.9883C149.197 41.8899 148.69 41.7987 148.185 41.7145C147.683 41.6309 147.184 41.5515 146.687 41.4766C146.194 41.4025 145.702 41.331 145.212 41.2622L145.03 41.2371L144.85 41.212L144.669 41.1857L144.489 41.1606C144.48 41.1593 144.47 41.161 144.461 41.1655C144.453 41.17 144.446 41.1771 144.442 41.1857C144.431 41.2058 144.425 41.2284 144.426 41.2512C144.426 41.2757 144.431 41.2999 144.442 41.322C144.446 41.3315 144.453 41.3398 144.461 41.3462C144.469 41.3526 144.479 41.357 144.489 41.3589Z" fill="white"/>
<path d="M176.521 56.8849C176.443 56.751 176.366 56.6166 176.288 56.4815C176.211 56.3465 176.134 56.2121 176.057 56.0782C175.98 55.9443 175.904 55.81 175.827 55.6751C175.751 55.5403 175.675 55.4059 175.599 55.2721C174.982 54.18 174.377 53.0862 173.785 51.9908C173.196 50.9013 172.62 49.8098 172.055 48.7162C171.494 47.6287 170.944 46.5385 170.407 45.4457C169.872 44.3582 169.348 43.2684 168.835 42.1765C168.489 41.4376 168.148 40.6978 167.812 39.9571C167.476 39.2163 167.147 38.477 166.823 37.7389C166.5 37.0007 166.182 36.2614 165.87 35.521C165.557 34.7806 165.25 34.0412 164.949 33.3028C164.806 32.9515 164.664 32.6001 164.523 32.2487C164.382 31.8974 164.242 31.546 164.104 31.1946C163.966 30.8433 163.829 30.4919 163.693 30.1405C163.557 29.7891 163.422 29.4378 163.289 29.0864C163.186 28.814 163.083 28.5414 162.981 28.2687C162.879 27.996 162.777 27.7233 162.676 27.4508C162.576 27.1782 162.476 26.9056 162.377 26.6328C162.278 26.3601 162.18 26.0874 162.082 25.8146C162.054 25.7367 162.026 25.6587 161.999 25.5807C161.971 25.5028 161.944 25.4247 161.917 25.3466C161.889 25.2684 161.862 25.1903 161.835 25.1121L161.754 24.8775C161.691 24.6934 161.628 24.5094 161.565 24.3253C161.502 24.1413 161.439 23.9577 161.375 23.7747C161.312 23.5916 161.248 23.4092 161.183 23.2273C161.119 23.0454 161.053 22.8645 160.987 22.6847C160.911 22.4799 160.832 22.2728 160.746 22.0693C160.66 21.8657 160.569 21.6662 160.47 21.4757C160.375 21.2899 160.267 21.1105 160.148 20.9386C160.036 20.7775 159.909 20.6279 159.768 20.4919C159.707 20.4316 159.642 20.3765 159.572 20.327C159.506 20.28 159.435 20.239 159.361 20.2045C159.29 20.1713 159.216 20.145 159.14 20.1259C159.065 20.1072 158.988 20.096 158.91 20.0926C158.8 20.0913 158.691 20.1066 158.585 20.1377C158.477 20.1699 158.372 20.2133 158.273 20.2672C158.169 20.3236 158.068 20.3865 157.972 20.4555C157.874 20.525 157.778 20.6003 157.683 20.6766C156.991 21.2396 156.315 21.8262 155.655 22.4365C155 23.0423 154.362 23.6708 153.741 24.3218C153.123 24.9683 152.523 25.6364 151.939 26.3259C151.359 27.0109 150.795 27.7165 150.249 28.4426C149.705 29.1621 149.178 29.8988 148.669 30.6528C148.163 31.403 147.675 32.1702 147.204 32.9542C146.735 33.7341 146.284 34.5301 145.851 35.3423C145.421 36.1493 145.008 36.9721 144.612 37.8107C144.609 37.8208 144.603 37.8299 144.595 37.8373C144.587 37.8447 144.578 37.8501 144.567 37.8531C144.559 37.8545 144.55 37.8538 144.541 37.8511C144.533 37.8484 144.525 37.8438 144.519 37.8375C144.503 37.823 144.493 37.8039 144.489 37.7831C144.484 37.7576 144.487 37.7312 144.498 37.7078C144.546 37.6059 144.595 37.5042 144.643 37.4026C144.692 37.301 144.74 37.2001 144.79 37.0997C144.839 36.9993 144.888 36.8984 144.938 36.797C144.987 36.6956 145.037 36.5952 145.088 36.4958C145.714 35.2453 146.38 34.0311 147.086 32.8533C147.796 31.6676 148.546 30.5208 149.336 29.4132C150.132 28.2972 150.966 27.2231 151.84 26.1909C152.721 25.1503 153.642 24.1547 154.601 23.2042C154.764 23.0437 154.927 22.8848 155.091 22.7273C155.256 22.5699 155.422 22.4135 155.589 22.2583C155.756 22.1032 155.924 21.9495 156.093 21.7972C156.262 21.645 156.432 21.4939 156.604 21.3442C156.69 21.2687 156.777 21.1934 156.864 21.1183C156.951 21.0432 157.039 20.9686 157.126 20.8944C157.214 20.8202 157.302 20.7465 157.391 20.6736C157.479 20.6006 157.568 20.5285 157.657 20.4572C157.741 20.3813 157.829 20.3108 157.922 20.2459C158.011 20.184 158.104 20.1281 158.201 20.0788C158.294 20.031 158.391 19.9901 158.49 19.9563C158.587 19.9236 158.687 19.8984 158.788 19.881C159.12 19.8516 159.45 19.9524 159.708 20.1616C160 20.4009 160.243 20.6928 160.425 21.0219C160.639 21.3947 160.824 21.7834 160.977 22.1845C161.138 22.5916 161.278 23.0014 161.403 23.3676C161.443 23.4829 161.482 23.5981 161.522 23.7132C161.562 23.8283 161.602 23.9435 161.642 24.0588C161.682 24.1739 161.722 24.289 161.763 24.4041C161.803 24.5192 161.844 24.6343 161.884 24.7492C162.038 25.1863 162.194 25.623 162.351 26.0593C162.509 26.4957 162.668 26.9323 162.829 27.369C162.99 27.8058 163.153 28.2424 163.318 28.6786C163.483 29.1148 163.65 29.5512 163.819 29.9879C163.923 30.2576 164.028 30.5271 164.133 30.7963C164.239 31.0655 164.345 31.3351 164.452 31.605C164.559 31.8747 164.667 32.1442 164.776 32.4136C164.884 32.683 164.993 32.9523 165.102 33.2215C165.445 34.0627 165.795 34.9023 166.152 35.7404C166.509 36.5815 166.874 37.4212 167.245 38.2597C167.617 39.1013 167.996 39.9418 168.383 40.781C168.771 41.6235 169.165 42.4649 169.567 43.3054C170.102 44.4237 170.649 45.5396 171.208 46.6529C171.771 47.7723 172.345 48.8895 172.932 50.0045C173.524 51.1256 174.128 52.2451 174.745 53.3631C175.366 54.4873 176 55.6101 176.648 56.7315C176.665 56.76 176.672 56.7929 176.669 56.8256C176.666 56.8531 176.655 56.8793 176.638 56.9009C176.632 56.9099 176.623 56.9173 176.613 56.9223C176.603 56.9274 176.592 56.93 176.581 56.93C176.568 56.928 176.555 56.9228 176.545 56.9149C176.535 56.907 176.526 56.8967 176.521 56.8849Z" fill="white"/>
<path d="M150.126 27.4103L150.071 27.3227L150.017 27.2351L149.962 27.1475L149.907 27.0599C149.762 26.8303 149.615 26.6019 149.463 26.3808C149.311 26.1597 149.155 25.9448 148.993 25.7456C148.836 25.5498 148.667 25.3643 148.486 25.1904C148.315 25.0262 148.128 24.879 147.928 24.7509C147.837 24.6913 147.742 24.6383 147.644 24.5923C147.549 24.5481 147.451 24.5112 147.35 24.4819C147.252 24.4533 147.151 24.4326 147.05 24.4199C146.949 24.4074 146.847 24.4031 146.746 24.4071C146.64 24.4173 146.536 24.4348 146.433 24.4593C146.328 24.4842 146.225 24.516 146.125 24.5544C146.022 24.5938 145.922 24.6396 145.825 24.6914C145.724 24.7451 145.627 24.8045 145.533 24.8694C145.488 24.899 145.443 24.9295 145.398 24.961C145.354 24.9924 145.309 25.0245 145.265 25.0571C145.22 25.0906 145.176 25.124 145.133 25.1575C145.089 25.191 145.045 25.2255 145.002 25.2612C144.952 25.3013 144.903 25.3421 144.854 25.3834C144.805 25.4247 144.756 25.4666 144.707 25.5089C144.658 25.5509 144.61 25.5931 144.561 25.6356L144.416 25.7634C144.326 25.8435 144.236 25.9243 144.146 26.0058C144.057 26.0873 143.968 26.1695 143.879 26.2525C143.79 26.3362 143.702 26.4199 143.614 26.5035C143.526 26.5872 143.439 26.6722 143.352 26.7585C143.179 26.9288 143.007 27.1019 142.838 27.2778C142.668 27.4536 142.5 27.6318 142.334 27.8124C142.168 27.9929 142.004 28.1762 141.842 28.3623C141.679 28.5483 141.519 28.7367 141.36 28.9275C141.278 29.0265 141.196 29.1262 141.115 29.2264C141.033 29.3266 140.953 29.4275 140.872 29.5291C140.792 29.6306 140.712 29.7329 140.633 29.8358C140.554 29.9387 140.475 30.0421 140.397 30.1462C140.324 30.2429 140.252 30.3402 140.18 30.4379C140.109 30.5356 140.037 30.6339 139.966 30.7328C139.896 30.8315 139.825 30.9308 139.755 31.0307C139.685 31.1306 139.616 31.231 139.547 31.3318C139.542 31.3403 139.535 31.3473 139.527 31.3521C139.519 31.3569 139.509 31.3593 139.5 31.359C139.491 31.3571 139.483 31.3535 139.476 31.3482C139.469 31.343 139.463 31.3363 139.458 31.3286C139.447 31.3096 139.44 31.2879 139.44 31.2656C139.438 31.2409 139.445 31.2166 139.459 31.1961L139.514 31.115L139.569 31.0352L139.624 30.9556L139.679 30.8766C139.731 30.8023 139.784 30.7283 139.836 30.6547C139.889 30.5811 139.942 30.5076 139.995 30.4343C140.048 30.3612 140.101 30.2884 140.155 30.2157C140.209 30.1431 140.263 30.0709 140.317 29.9989C140.415 29.8672 140.515 29.7367 140.615 29.6074C140.716 29.478 140.817 29.3495 140.92 29.2219C141.021 29.0952 141.123 28.9691 141.227 28.8436C141.33 28.7182 141.435 28.5937 141.54 28.4704C141.704 28.2782 141.87 28.0887 142.037 27.902C142.204 27.7152 142.373 27.5312 142.544 27.3498C142.715 27.1679 142.888 26.9889 143.063 26.8127C143.238 26.6365 143.415 26.4628 143.594 26.2914C143.683 26.2059 143.773 26.1212 143.864 26.0372C143.954 25.9532 144.045 25.8695 144.136 25.7862C144.227 25.7036 144.319 25.6217 144.411 25.5405C144.503 25.4594 144.595 25.3789 144.688 25.2991L144.773 25.2273C144.801 25.2035 144.829 25.1799 144.858 25.1565C144.886 25.1331 144.915 25.1098 144.944 25.0867C144.972 25.0636 145.001 25.0409 145.03 25.0185C145.095 24.9653 145.161 24.914 145.228 24.8646C145.295 24.8153 145.362 24.7679 145.431 24.7226C145.498 24.6771 145.567 24.6336 145.637 24.5923C145.707 24.551 145.777 24.5116 145.847 24.4741C145.944 24.421 146.046 24.3749 146.151 24.3363C146.252 24.2989 146.356 24.2693 146.462 24.2477C146.566 24.2264 146.671 24.2134 146.777 24.2088C146.883 24.2043 146.989 24.2083 147.094 24.2209C147.197 24.2373 147.299 24.2609 147.399 24.2914C147.5 24.3225 147.599 24.3603 147.695 24.4046C147.794 24.4502 147.891 24.502 147.983 24.5597C148.08 24.6197 148.172 24.6853 148.261 24.7562C148.457 24.9106 148.641 25.0809 148.809 25.2654C148.986 25.4601 149.154 25.664 149.309 25.8763C149.47 26.0932 149.625 26.3208 149.777 26.554C149.929 26.7871 150.078 27.0245 150.226 27.2612C150.24 27.2846 150.246 27.3117 150.244 27.3388C150.242 27.3635 150.234 27.3874 150.221 27.4083C150.216 27.4167 150.21 27.4241 150.202 27.4298C150.194 27.4356 150.185 27.4396 150.176 27.4417C150.165 27.442 150.155 27.4392 150.146 27.4336C150.137 27.428 150.13 27.4199 150.126 27.4103Z" fill="white"/>
<path d="M167.668 37.4091L169.933 36.3244L171.076 35.777C171.169 35.728 171.262 35.6805 171.356 35.6347C171.45 35.5888 171.545 35.5444 171.64 35.5014C171.735 35.4584 171.831 35.4171 171.927 35.3774C172.024 35.3378 172.12 35.2995 172.217 35.2627C172.301 35.2313 172.388 35.2078 172.476 35.1925C172.65 35.1623 172.829 35.1656 173.002 35.2023C173.09 35.221 173.177 35.2479 173.26 35.2826C173.337 35.32 173.412 35.3619 173.484 35.4081C173.557 35.4554 173.628 35.5067 173.696 35.5619C173.766 35.6188 173.832 35.6793 173.896 35.7431C173.961 35.809 174.023 35.8781 174.081 35.9502C174.142 36.0235 174.202 36.0982 174.26 36.1743C174.319 36.2504 174.377 36.328 174.433 36.407C174.49 36.4859 174.545 36.5663 174.6 36.6481C174.654 36.73 174.707 36.8131 174.759 36.8976C174.824 36.9994 174.889 37.1014 174.953 37.2038C175.018 37.3062 175.082 37.4089 175.146 37.5118L175.339 37.8207L175.533 38.1302C175.799 38.5567 176.066 38.9847 176.333 39.4142C176.6 39.8437 176.868 40.2758 177.138 40.7105C177.406 41.1455 177.676 41.5817 177.945 42.0191C178.214 42.4565 178.485 42.8968 178.756 43.34C179.027 43.7829 179.298 44.2274 179.571 44.6735C179.843 45.1195 180.116 45.5682 180.388 46.0195C180.662 46.4712 180.935 46.9241 181.209 47.3783C181.483 47.8324 181.758 48.2896 182.033 48.7499C182.31 49.2108 182.586 49.6735 182.863 50.1378C183.139 50.6021 183.417 51.069 183.696 51.5385C183.974 52.0082 184.253 52.4794 184.532 52.9523C184.811 53.4251 185.091 53.9008 185.372 54.3793L185.475 54.555L185.578 54.7307L185.681 54.9064L185.785 55.0821C185.792 55.0957 185.801 55.1077 185.813 55.1174C185.825 55.1271 185.839 55.1343 185.854 55.1385C185.866 55.1415 185.879 55.1419 185.892 55.1398C185.905 55.1377 185.917 55.1331 185.927 55.1262C185.95 55.1122 185.966 55.0902 185.972 55.0647C185.978 55.0335 185.972 55.0008 185.955 54.9739C185.671 54.4898 185.388 54.0075 185.105 53.5267C184.822 53.046 184.54 52.5681 184.258 52.0929C183.977 51.6179 183.696 51.1444 183.415 50.6726C183.134 50.2008 182.854 49.7323 182.575 49.2671C182.295 48.7998 182.016 48.334 181.737 47.8697C181.457 47.4054 181.179 46.9441 180.902 46.4858C180.624 46.0271 180.347 45.5701 180.07 45.1147C179.793 44.6592 179.517 44.2065 179.241 43.7566C178.966 43.3067 178.691 42.8583 178.417 42.4114C178.142 41.9645 177.868 41.5203 177.595 41.0789C177.323 40.6375 177.05 40.1977 176.778 39.7593C176.505 39.3209 176.234 38.8853 175.963 38.4524L175.76 38.1289L175.558 37.8062L175.355 37.4842L175.152 37.1629C175.095 37.0727 175.039 36.9825 174.982 36.8921C174.925 36.8017 174.868 36.7121 174.811 36.6233C174.753 36.5344 174.695 36.4466 174.636 36.3598C174.577 36.2729 174.517 36.1878 174.455 36.1043C174.343 35.9515 174.222 35.8049 174.094 35.6653C173.971 35.5311 173.837 35.4077 173.692 35.2966C173.558 35.1923 173.411 35.1062 173.253 35.0404C173.1 34.9775 172.937 34.9429 172.772 34.9385C172.674 34.9429 172.577 34.9531 172.48 34.9691C172.383 34.9851 172.287 35.0067 172.193 35.0338C172.098 35.0613 172.004 35.0941 171.913 35.1322C171.82 35.1711 171.729 35.215 171.64 35.2637L171.349 35.4028L171.059 35.5421L170.77 35.6814L170.482 35.8202L168.189 36.9207L167.623 37.1923C167.611 37.1984 167.6 37.207 167.592 37.2175C167.583 37.228 167.576 37.2402 167.573 37.2533C167.565 37.2804 167.563 37.3091 167.569 37.3368C167.573 37.3617 167.585 37.3847 167.603 37.4023C167.612 37.4103 167.623 37.4152 167.634 37.4164C167.646 37.4177 167.658 37.4151 167.668 37.4091Z" fill="white"/>
<path d="M144.966 23.8122L144.86 23.9377C144.667 23.5517 144.411 23.1998 144.102 22.8961C143.841 22.6393 143.529 22.4402 143.184 22.3121C142.867 22.1967 142.525 22.1613 142.19 22.2092C141.833 22.2646 141.494 22.401 141.199 22.6078C140.864 22.8418 140.573 23.1321 140.339 23.4654C140.079 23.8329 139.869 24.2323 139.713 24.6535C139.542 25.1103 139.422 25.5842 139.354 26.0668C139.282 26.5762 139.264 27.0917 139.301 27.6048C139.319 27.8606 139.351 28.1154 139.397 28.3677C139.442 28.6111 139.5 28.8517 139.573 29.0883C139.643 29.3147 139.727 29.5364 139.825 29.7521C139.918 29.9573 140.026 30.1556 140.149 30.3452L140.059 30.4837C139.932 30.2862 139.819 30.0798 139.722 29.8661C139.62 29.6416 139.532 29.4108 139.46 29.1751C139.384 28.9289 139.323 28.6785 139.277 28.4252C139.229 28.1625 139.196 27.8974 139.178 27.6311C139.139 27.0972 139.158 26.5607 139.233 26.0306C139.303 25.5284 139.428 25.0351 139.605 24.5596C139.768 24.1211 139.987 23.7053 140.257 23.3226C140.501 22.9754 140.803 22.673 141.152 22.4291C141.459 22.2134 141.812 22.0709 142.184 22.0127C142.533 21.9624 142.889 21.9988 143.219 22.1186C143.578 22.2516 143.904 22.4587 144.175 22.726C144.498 23.0426 144.765 23.4096 144.966 23.8122Z" fill="white"/>
<path d="M155.662 36.7153C155.64 36.6959 155.62 36.6741 155.603 36.6503C155.585 36.625 155.569 36.5981 155.556 36.5698C155.542 36.5397 155.53 36.5086 155.522 36.4767C155.512 36.443 155.506 36.4087 155.502 36.374C155.498 36.3388 155.497 36.3034 155.499 36.2681C155.5 36.2334 155.504 36.1989 155.511 36.1649C155.518 36.1319 155.527 36.0995 155.539 36.0681C155.551 36.0379 155.565 36.0088 155.582 35.9812L155.142 29.6816L155.877 29.7318L156.082 35.9561C156.113 36.0015 156.137 36.0513 156.153 36.1039C156.17 36.1588 156.179 36.2156 156.182 36.2729C156.184 36.3306 156.179 36.3885 156.167 36.445C156.156 36.5003 156.136 36.5535 156.109 36.6031C156.085 36.6476 156.053 36.6873 156.015 36.7204C155.982 36.7492 155.944 36.7703 155.902 36.7821C155.862 36.7924 155.82 36.7924 155.78 36.7821C155.736 36.7694 155.696 36.7465 155.662 36.7153Z" fill="#9E616A"/>
<path d="M156.177 29.4197L155.983 31.5219L156.01 32.807L155.2 32.9206L155.038 31.8585L154.949 29.045C154.945 28.9387 154.956 28.8325 154.982 28.729C155.004 28.6341 155.04 28.543 155.089 28.4582C155.132 28.3818 155.189 28.3138 155.256 28.2574C155.318 28.2063 155.391 28.1709 155.469 28.1543C155.547 28.1386 155.627 28.1452 155.701 28.1734C155.777 28.2036 155.846 28.2511 155.901 28.3122C155.964 28.3817 156.014 28.4617 156.049 28.5486C156.09 28.6483 156.116 28.7534 156.125 28.8606L156.177 29.4197Z" fill="#2F2E41"/>
<path d="M153.106 47.6838L152.629 47.6517L152.402 44.978L153.106 45.0154V47.6838Z" fill="#9E616A"/>
<path d="M153.229 48.3629L151.695 48.2552V48.2271C151.695 48.1147 151.711 48.0028 151.742 47.8948C151.769 47.8 151.812 47.7102 151.869 47.6293C151.918 47.5586 151.982 47.4997 152.058 47.4569C152.128 47.4174 152.209 47.3991 152.289 47.4042L153.229 47.4656L153.229 48.3629Z" fill="#2F2E41"/>
<path d="M157.142 47.9537L156.644 47.9201L156.408 45.1904L157.142 45.2296V47.9537Z" fill="#9E616A"/>
<path d="M157.269 48.6467L155.672 48.5346V48.5059C155.671 48.3912 155.688 48.277 155.72 48.1669C155.749 48.0699 155.793 47.9783 155.853 47.8961C155.904 47.8238 155.971 47.7637 156.049 47.7204C156.123 47.6801 156.207 47.6616 156.291 47.6669L157.269 47.7312V48.6467Z" fill="#2F2E41"/>
<path d="M155.221 24.1382C155.366 24.1308 155.509 24.1644 155.635 24.2351C155.769 24.3119 155.885 24.417 155.974 24.543C156.076 24.6868 156.153 24.8465 156.202 25.0154C156.259 25.2068 156.287 25.4053 156.286 25.6047C156.287 25.8066 156.259 26.0077 156.202 26.2018C156.153 26.3771 156.076 26.5437 155.974 26.6957C155.885 26.8302 155.77 26.9456 155.635 27.0353C155.512 27.1168 155.369 27.1636 155.221 27.1708C155.077 27.1759 154.934 27.1402 154.809 27.0679C154.676 26.9897 154.562 26.8837 154.474 26.7574C154.373 26.6141 154.297 26.4553 154.248 26.2874C154.193 26.0977 154.165 25.9012 154.166 25.7038C154.166 25.504 154.193 25.305 154.248 25.1128C154.298 24.9385 154.374 24.7728 154.474 24.6214C154.562 24.4871 154.676 24.3714 154.809 24.2808C154.931 24.1974 155.073 24.1481 155.221 24.1382Z" fill="#9E616A"/>
<path d="M155.084 27.791L155.823 27.8851C155.915 28.0711 155.99 28.2655 156.045 28.4657C156.103 28.6732 156.142 28.8852 156.163 29.0994C156.185 29.3186 156.188 29.5392 156.174 29.7589C156.159 29.98 156.126 30.1995 156.074 30.415L155.516 32.7278C155.516 32.7278 155.565 32.8656 155.637 33.1042C155.71 33.3429 155.807 33.684 155.904 34.0893C156.001 34.4947 156.098 34.9655 156.171 35.4637C156.248 35.9735 156.289 36.4882 156.293 37.0037C156.323 37.7904 156.4 38.5746 156.525 39.3521C156.665 40.3375 156.851 41.4604 157.038 42.5195C157.225 43.5786 157.412 44.58 157.553 45.3141C157.694 46.0482 157.789 46.5188 157.789 46.5188L155.689 46.7033L154.786 38.8657L153.557 46.5424L152.172 46.1343L152.932 36.1117L153.438 32.7928L153.459 31.1722C153.459 31.1722 153.446 31.0969 153.434 30.9714C153.419 30.8046 153.413 30.6369 153.419 30.4695C153.425 30.2501 153.454 30.0319 153.505 29.8184C153.559 29.5878 153.653 29.3684 153.784 29.1702L154.447 27.8194L155.084 27.791Z" fill="#CACACA"/>
<path d="M153.992 25.1739L155.544 25.0968V24.1243C155.461 24.0801 155.377 24.0405 155.29 24.0055C155.214 23.9734 155.134 23.9525 155.051 23.9435C154.978 23.9356 154.904 23.9497 154.839 23.984C154.764 24.0287 154.704 24.0941 154.666 24.1722C154.571 24.1784 154.481 24.2098 154.403 24.263C154.318 24.3213 154.245 24.3955 154.189 24.4817C154.125 24.5784 154.076 24.6843 154.045 24.7956C154.01 24.9187 153.992 25.046 153.992 25.1739Z" fill="#2F2E41"/>
<path d="M155.632 23.9472C155.741 23.9417 155.851 23.9609 155.952 24.0033C156.053 24.0457 156.142 24.1102 156.215 24.1919C156.383 24.3844 156.51 24.6098 156.585 24.8535C156.677 25.1302 156.743 25.415 156.78 25.7041C156.816 25.9723 156.835 26.2427 156.836 26.5135C156.837 26.6269 156.827 26.7402 156.805 26.8515C156.79 26.9333 156.76 27.012 156.718 27.0842C156.684 27.1423 156.637 27.1925 156.582 27.2315C156.527 27.2686 156.467 27.2962 156.403 27.3131L156.309 26.6104L156.091 27.356L156.035 27.358L155.977 27.3595H155.859L155.785 27.1462L155.621 27.3648C155.457 27.3713 155.301 27.3861 155.159 27.3899C155.033 27.3986 154.906 27.3847 154.784 27.349C154.73 27.3308 154.679 27.3018 154.636 27.2639C154.593 27.2259 154.557 27.1798 154.533 27.1281C154.462 26.9661 154.431 26.7904 154.44 26.6144C154.441 26.3455 154.458 26.0769 154.491 25.81C154.525 25.5185 154.586 25.2307 154.674 24.9504C154.748 24.6975 154.871 24.4614 155.037 24.2557C155.109 24.1661 155.199 24.0925 155.301 24.0393C155.404 23.9862 155.516 23.9549 155.632 23.9472Z" fill="#2F2E41"/>
<path opacity="0.2" d="M154.256 33.1999L154.217 30.7676L154.113 29.6899L153.858 30.7654L154.256 33.1999Z" fill="black"/>
<path d="M156.216 32.856L155.04 32.8675V27.9506L156.216 27.9094C156.333 27.906 156.448 27.9353 156.549 27.9938C156.657 28.0571 156.75 28.1427 156.822 28.2448C156.904 28.3609 156.966 28.4898 157.006 28.626C157.052 28.7796 157.075 28.939 157.074 29.0991V31.628C157.074 31.7888 157.051 31.9489 157.006 32.1033C156.966 32.242 156.904 32.3735 156.822 32.4928C156.75 32.5984 156.657 32.6883 156.549 32.7569C156.45 32.82 156.335 32.8547 156.216 32.8572V32.856Z" fill="#41C9E2"/>
<path d="M156.052 30.2105C156.032 30.2108 156.012 30.2055 155.994 30.1952C155.976 30.1839 155.96 30.1689 155.947 30.151C155.933 30.1307 155.922 30.1082 155.915 30.0845C155.907 30.0577 155.903 30.03 155.903 30.0022V28.1677L156.201 28.1577V29.9949C156.201 30.0229 156.197 30.0508 156.189 30.0777C156.182 30.1019 156.171 30.1249 156.157 30.1457C156.144 30.1642 156.128 30.18 156.109 30.1921C156.092 30.2033 156.072 30.2095 156.052 30.2102L156.052 30.2105Z" fill="#3F3D56"/>
<path d="M156.411 32.4651L155.547 32.4754C155.522 32.4756 155.496 32.4686 155.474 32.4553C155.451 32.4408 155.431 32.4216 155.415 32.3989C155.397 32.3731 155.384 32.3448 155.375 32.3148C155.365 32.2811 155.36 32.2462 155.36 32.2111V31.4775C155.36 31.4424 155.365 31.4074 155.375 31.3736C155.384 31.3434 155.397 31.3148 155.415 31.2888C155.431 31.2654 155.451 31.2454 155.474 31.23C155.496 31.2161 155.521 31.2084 155.547 31.2077L156.411 31.1919C156.437 31.1916 156.462 31.1985 156.484 31.2117C156.508 31.2261 156.529 31.2452 156.544 31.2679C156.562 31.2938 156.576 31.3223 156.585 31.3525C156.595 31.3864 156.6 31.4214 156.6 31.4567V32.1948C156.6 32.2301 156.595 32.2653 156.585 32.2992C156.576 32.3297 156.562 32.3586 156.544 32.3848C156.529 32.4082 156.508 32.4281 156.484 32.4433C156.462 32.4571 156.437 32.4647 156.411 32.4651Z" fill="#3F3D56"/>
<path d="M153.971 31.0064C153.912 30.9 153.861 30.7895 153.818 30.6759C153.774 30.5581 153.738 30.4375 153.709 30.315C153.68 30.1886 153.658 30.0605 153.645 29.9315C153.631 29.7995 153.624 29.6669 153.626 29.5342C153.626 29.2783 153.652 29.023 153.705 28.7725C153.749 28.5554 153.821 28.3446 153.918 28.145C153.995 27.9822 154.102 27.8355 154.235 27.7131C154.341 27.6138 154.478 27.5542 154.624 27.5444C154.705 27.5474 154.784 27.5652 154.859 27.5969C154.936 27.6305 155.008 27.6762 155.071 27.7322C155.141 27.7937 155.202 27.8641 155.253 27.9415C155.31 28.0275 155.357 28.1196 155.394 28.2161L155.31 28.2939C155.278 28.2073 155.236 28.1246 155.186 28.0472C155.141 27.9775 155.086 27.914 155.024 27.8584C154.968 27.8073 154.904 27.7653 154.834 27.7342C154.767 27.7048 154.696 27.6878 154.624 27.684C154.492 27.6931 154.367 27.7485 154.273 27.8401C154.152 27.9542 154.055 28.0902 153.987 28.2407C153.899 28.4267 153.834 28.6226 153.794 28.8242C153.746 29.0571 153.723 29.2941 153.723 29.5317C153.721 29.6562 153.727 29.7808 153.74 29.9046C153.752 30.0257 153.773 30.1459 153.8 30.2645C153.826 30.3796 153.86 30.4929 153.901 30.6036C153.941 30.7104 153.989 30.8143 154.044 30.9143L153.971 31.0064Z" fill="#41C9E2"/>
<path d="M154.443 36.9571C154.42 36.9342 154.4 36.909 154.382 36.8818C154.363 36.8523 154.347 36.8211 154.334 36.7887C154.32 36.7549 154.309 36.7201 154.301 36.6845C154.292 36.6473 154.287 36.6094 154.284 36.5713C154.281 36.5329 154.281 36.4943 154.284 36.4559C154.287 36.4184 154.293 36.3812 154.302 36.3447C154.31 36.3095 154.322 36.2751 154.336 36.2418C154.35 36.21 154.367 36.1795 154.387 36.1509L154.17 29.2593L154.964 29.3742L154.928 36.169C154.96 36.2208 154.984 36.2771 154.999 36.3359C155.032 36.4576 155.033 36.5856 155.002 36.7078C154.987 36.7668 154.963 36.8232 154.93 36.875C154.903 36.9211 154.867 36.9616 154.823 36.9942C154.786 37.0223 154.743 37.0412 154.697 37.0492C154.653 37.0566 154.607 37.0526 154.565 37.0376C154.519 37.0204 154.476 36.993 154.441 36.9573L154.443 36.9571Z" fill="#9E616A"/>
<path d="M155.302 29.0583L155.005 31.3327L154.981 32.7341L154.101 32.7901L153.97 31.6213L153.989 28.5491C153.99 28.4335 154.006 28.3186 154.037 28.2072C154.065 28.1061 154.107 28.0097 154.164 27.9209C154.214 27.8415 154.278 27.7721 154.354 27.7163C154.423 27.6654 154.503 27.6327 154.589 27.6212C154.674 27.6105 154.761 27.6243 154.839 27.6608C154.921 27.7003 154.993 27.7576 155.05 27.8285C155.115 27.9094 155.166 28.0007 155.201 28.0986C155.24 28.2101 155.263 28.3268 155.269 28.4449L155.302 29.0583Z" fill="#CACACA"/>
<path d="M155.388 49.5828C155.395 49.5529 155.41 49.5253 155.431 49.5023C155.452 49.4792 155.478 49.4614 155.507 49.4503C155.582 49.4226 155.664 49.414 155.744 49.4252C155.854 49.4384 155.962 49.4655 156.065 49.506C156.194 49.5554 156.319 49.6164 156.437 49.6882C156.562 49.7633 156.681 49.8485 156.792 49.943C156.891 50.0264 156.983 50.1188 157.065 50.219C157.132 50.2996 157.187 50.3894 157.228 50.4856C157.26 50.5551 157.269 50.6329 157.254 50.7079C157.246 50.7381 157.231 50.766 157.21 50.7891C157.189 50.8123 157.162 50.83 157.133 50.841C157.056 50.8681 156.974 50.8761 156.893 50.864C156.782 50.8502 156.673 50.8223 156.569 50.7812C156.439 50.7311 156.315 50.6693 156.196 50.5968C156.072 50.5217 155.954 50.4367 155.843 50.3425C155.745 50.259 155.655 50.1666 155.574 50.0664C155.508 49.9867 155.454 49.8979 155.414 49.8029C155.382 49.734 155.373 49.6571 155.388 49.5828Z" fill="white"/>
<path d="M158.768 49.6183C158.78 49.5905 158.799 49.5663 158.824 49.5483C158.848 49.5303 158.877 49.5191 158.907 49.5159C158.991 49.5074 159.075 49.5189 159.154 49.5495C159.267 49.5901 159.374 49.6434 159.474 49.7084C159.602 49.7895 159.723 49.8808 159.837 49.9812C159.956 50.0865 160.068 50.2002 160.17 50.3215C160.262 50.4287 160.344 50.5432 160.416 50.6639C160.475 50.759 160.52 50.8615 160.551 50.9686C160.576 51.0423 160.576 51.122 160.551 51.1957C160.539 51.2237 160.519 51.248 160.495 51.266C160.47 51.284 160.44 51.295 160.41 51.2978C160.325 51.3056 160.239 51.2932 160.16 51.2617C160.046 51.2201 159.938 51.1658 159.837 51.0998C159.709 51.0175 159.589 50.9252 159.476 50.8237C159.357 50.7189 159.247 50.6056 159.145 50.4849C159.054 50.3785 158.973 50.2649 158.902 50.1451C158.844 50.0509 158.799 49.9494 158.768 49.8434C158.744 49.7703 158.744 49.6914 158.768 49.6183Z" fill="white"/>
<path d="M160.34 52.9683C160.351 52.9396 160.37 52.9143 160.394 52.895C160.418 52.8757 160.447 52.8631 160.478 52.8584C160.562 52.8459 160.648 52.8535 160.728 52.8807C160.843 52.9162 160.954 52.9649 161.058 53.0258C161.19 53.1017 161.315 53.1882 161.432 53.2843C161.557 53.385 161.674 53.4946 161.782 53.6123C161.878 53.7162 161.965 53.8279 162.043 53.9464C162.105 54.0397 162.154 54.1411 162.189 54.2475C162.216 54.3213 162.219 54.4019 162.196 54.4772C162.185 54.5061 162.166 54.5314 162.141 54.5507C162.117 54.5699 162.088 54.5824 162.057 54.5869C161.971 54.5985 161.885 54.5899 161.803 54.5618C161.687 54.5252 161.575 54.4754 161.471 54.4134C161.339 54.337 161.214 54.2502 161.096 54.1537C160.972 54.053 160.856 53.9434 160.749 53.8259C160.654 53.7226 160.568 53.6115 160.491 53.4939C160.43 53.4014 160.382 53.3011 160.347 53.1957C160.321 53.1226 160.318 53.0429 160.34 52.9683Z" fill="white"/>
<path d="M163.711 54.374C163.722 54.3447 163.742 54.319 163.767 54.2995C163.792 54.2801 163.821 54.2675 163.853 54.263C163.94 54.2511 164.029 54.2597 164.112 54.2881C164.231 54.3252 164.346 54.3758 164.453 54.4387C164.589 54.5165 164.719 54.6049 164.841 54.7033C164.969 54.8062 165.09 54.9182 165.202 55.0386C165.301 55.1449 165.391 55.2595 165.471 55.3809C165.536 55.4761 165.587 55.5795 165.624 55.6884C165.652 55.7632 165.655 55.8452 165.631 55.9218C165.619 55.9513 165.599 55.9771 165.574 55.9965C165.549 56.016 165.518 56.0284 165.487 56.0324C165.398 56.0439 165.308 56.0346 165.224 56.0053C165.104 55.9674 164.988 55.916 164.88 55.8522C164.744 55.7735 164.614 55.684 164.492 55.5847C164.364 55.4815 164.245 55.3693 164.133 55.2489C164.035 55.1434 163.947 55.0299 163.868 54.9096C163.804 54.8153 163.754 54.7129 163.718 54.6051C163.691 54.5309 163.688 54.4498 163.711 54.374Z" fill="white"/>
<path d="M147.688 25.936C147.463 25.7794 147.211 25.6654 146.945 25.5997C146.696 25.5396 146.436 25.5293 146.183 25.5693C145.921 25.6119 145.669 25.7017 145.441 25.8343C145.186 25.9824 144.956 26.1684 144.758 26.3857C145.154 26.4709 145.55 26.5652 145.947 26.6686C146.344 26.772 146.743 26.8851 147.144 27.0079C147.545 27.1309 147.947 27.2631 148.349 27.4047C148.75 27.5462 149.154 27.6979 149.559 27.8597C149.389 27.7155 149.228 27.5597 149.079 27.3934C148.926 27.2252 148.775 27.0476 148.627 26.8721C148.478 26.6967 148.328 26.5238 148.172 26.3639C148.024 26.2073 147.862 26.0641 147.688 25.936Z" fill="white"/>
<path d="M144.749 26.3838L144.575 26.6049C144.59 26.5857 144.605 26.5667 144.62 26.5479C144.634 26.5292 144.649 26.5107 144.665 26.4925C144.68 26.4742 144.695 26.4563 144.711 26.4388C144.726 26.4212 144.742 26.4037 144.757 26.3863L144.749 26.3838Z" fill="#F2F2F2"/>
<path d="M173.992 37.4999C173.941 37.4013 173.884 37.3059 173.822 37.2143C173.761 37.1263 173.695 37.0425 173.623 36.9633C173.554 36.8873 173.48 36.8165 173.4 36.7512C173.324 36.6883 173.242 36.6314 173.157 36.5811L172.833 36.5951C173.451 38.0309 174.126 39.4295 174.858 40.791C175.595 42.1605 176.388 43.4893 177.238 44.7775C178.095 46.0744 179.007 47.3267 179.976 48.5344C180.954 49.7512 181.987 50.9187 183.077 52.0371L180.735 48.2885L178.44 44.6177L176.193 41.0221L173.992 37.4999Z" fill="white"/>
<path d="M129.672 126H0.301966C0.222059 126 0.145501 125.968 0.0890797 125.912C0.0326583 125.856 0.000976562 125.78 0.000976562 125.701C0.000976562 125.622 0.0326583 125.546 0.0890797 125.49C0.145501 125.434 0.222059 125.403 0.301966 125.402H129.672C129.752 125.402 129.829 125.434 129.885 125.49C129.942 125.546 129.974 125.622 129.974 125.701C129.974 125.78 129.942 125.856 129.885 125.912C129.829 125.969 129.752 126 129.672 126Z" fill="#CACACA"/>
<path d="M44.9016 52.829C44.7687 52.829 44.6392 52.7877 44.5313 52.7109C44.4234 52.6341 44.3425 52.5257 44.3001 52.401L43.9775 51.4494C43.9505 51.3711 43.9393 51.2883 43.9447 51.2058C43.95 51.1232 43.9718 51.0425 44.0088 50.9683C44.0458 50.8942 44.0973 50.828 44.1602 50.7735C44.2231 50.7191 44.2963 50.6775 44.3756 50.6512C44.4548 50.6249 44.5385 50.6144 44.6218 50.6202C44.7052 50.626 44.7866 50.6481 44.8613 50.6852C44.936 50.7223 45.0025 50.7736 45.0571 50.8363C45.1117 50.8989 45.1532 50.9717 45.1793 51.0502L45.5019 52.0018C45.5551 52.1596 45.543 52.3319 45.4682 52.4808C45.3933 52.6298 45.2619 52.7433 45.1027 52.7964C45.0379 52.818 44.9699 52.829 44.9016 52.829Z" fill="#3F3D56"/>
<path d="M45.6375 55.3457C45.4998 55.3453 45.3659 55.3006 45.2561 55.2184C45.1463 55.1361 45.0665 55.0207 45.0288 54.8896L44.7515 53.9239C44.7058 53.7639 44.726 53.5924 44.8079 53.4472C44.8897 53.302 45.0265 53.1949 45.1881 53.1494C45.3496 53.1039 45.5228 53.1238 45.6696 53.2047C45.8164 53.2856 45.9247 53.4208 45.9708 53.5807L46.2481 54.5464C46.2709 54.6257 46.2776 54.7086 46.268 54.7905C46.2584 54.8723 46.2326 54.9515 46.1921 55.0235C46.1515 55.0955 46.0971 55.1588 46.0318 55.21C45.9665 55.2611 45.8917 55.299 45.8116 55.3215C45.755 55.3375 45.6964 55.3457 45.6375 55.3457Z" fill="#3F3D56"/>
</g>
<defs>
<clipPath id="clip0_23_606">
<rect width="199" height="126" fill="white"/>
</clipPath>
</defs>
</svg>
