<svg width="99" height="70" viewBox="0 0 99 70" fill="none" xmlns="http://www.w3.org/2000/svg">
<g clip-path="url(#clip0_27_362)">
<path d="M64.0104 12.7333C63.9747 12.6839 63.939 12.6345 63.9007 12.5865C63.3308 11.8539 62.5362 11.3839 61.6477 11.2513C60.7434 11.1172 59.843 11.3501 59.0999 11.9062C57.8915 10.3197 55.7046 10.0276 54.1643 11.271C54.0585 11.3557 53.9594 11.446 53.8655 11.5406C53.7994 11.6069 53.7372 11.6761 53.6777 11.7467C53.6843 11.758 53.691 11.7678 53.6989 11.7791L57.8928 17.8017L57.9986 17.717C58.2207 17.542 63.4141 13.4192 63.5781 13.288C63.7566 13.144 63.9192 12.9845 64.0646 12.8137C64.0474 12.7869 64.0289 12.7601 64.0104 12.7333Z" fill="#41C9E2"/>
<path d="M64.2744 7.93444C63.6979 7.11863 62.8583 6.59359 61.9117 6.45244C61.0073 6.31836 60.1069 6.55124 59.3639 7.10735C58.1554 5.52089 55.9686 5.22873 54.4283 6.4722C52.8866 7.71426 52.5548 10.0742 53.6773 11.7467C53.6839 11.758 53.6905 11.7679 53.6984 11.7792L57.8923 17.8017L57.9981 17.7171C58.2202 17.542 63.4137 13.4193 63.5776 13.288C63.7561 13.144 63.9187 12.9845 64.0642 12.8138C65.2039 11.4814 65.3308 9.42491 64.2744 7.93444ZM63.9002 12.5865C63.7561 12.7601 63.5948 12.9196 63.4176 13.0622C63.2682 13.1835 58.7054 16.8039 57.9465 17.4065L53.9113 11.6112C53.8954 11.5886 53.8796 11.5646 53.865 11.5406C52.8575 9.99371 53.1735 7.83847 54.5882 6.69662C55.1859 6.21532 55.8866 5.98243 56.5834 5.98243C57.5882 5.98243 58.5825 6.46655 59.233 7.38681L59.3123 7.49972L59.4181 7.41362C60.8764 6.2379 62.9615 6.547 64.0642 8.10381C64.5983 8.85893 64.8244 9.78906 64.7028 10.7262C64.6115 11.4291 64.3326 12.0699 63.9002 12.5865Z" fill="#3F3D56"/>
<path d="M92.7542 15.1499L91.8909 15.0087C91.7719 14.3623 91.596 13.7257 91.3673 13.1132C91.4651 13.7088 91.4281 14.3284 91.2668 14.9071L81.9707 13.3898C82.4255 11.2557 82.6833 9.26139 82.53 7.55498C82.3012 4.99465 84.0782 2.68978 86.4859 2.59944C86.552 2.59663 86.6194 2.59521 86.6868 2.59521C88.9173 2.59521 90.7591 3.98688 91.0275 5.78504C91.1227 6.42865 91.2562 7.06662 91.3673 7.70882C91.7838 10.1139 93.5264 13.3193 92.7542 15.1499Z" fill="#2F2E41"/>
<path d="M68.3188 18.9794C68.6187 19.1122 68.8656 19.3063 69.0333 19.5216L71.9649 20.5944L71.4459 22.0687L68.5279 20.8217C68.2667 20.847 67.9636 20.7975 67.6637 20.6647C66.9786 20.3612 66.5699 19.7379 66.7508 19.2725C66.9317 18.8072 67.6337 18.6759 68.3188 18.9794Z" fill="#FFB6B6"/>
<path d="M77.7452 66.3011L76.5857 66.3303L75.9395 60.7698L77.6505 60.7266L77.7452 66.3011Z" fill="#FFB7B7"/>
<path d="M73.7676 68.8833C73.7676 69.0923 73.9066 69.2618 74.078 69.2618H76.3794C76.3794 69.2618 76.6059 68.29 77.5292 67.8718L77.593 69.2618H78.7802L78.6363 67.0267C78.6363 67.0267 78.9539 65.8309 78.2944 65.2196C77.6348 64.6084 78.169 64.6934 78.169 64.6934L77.9096 63.3101L76.1156 63.5353L76.1024 65.7069L75.2318 67.8624L73.9548 68.5358C73.8412 68.5957 73.7676 68.7323 73.7676 68.8833Z" fill="#2F2E41"/>
<path d="M90.209 66.3011L89.0496 66.3303L88.4033 60.7698L90.1143 60.7266L90.209 66.3011Z" fill="#FFB7B7"/>
<path d="M86.2314 68.8833C86.2314 69.0923 86.3704 69.2618 86.5419 69.2618H88.8433C88.8433 69.2618 89.0697 68.29 89.9931 67.8718L90.0568 69.2618H91.244L91.1002 67.0267C91.1002 67.0267 91.4178 65.8309 90.7582 65.2196C90.0987 64.6084 90.6329 64.6934 90.6329 64.6934L90.3734 63.3101L88.5794 63.5353L88.5663 65.7069L87.6957 67.8624L86.4187 68.5358C86.305 68.5957 86.2314 68.7323 86.2314 68.8833Z" fill="#2F2E41"/>
<path d="M80.8547 25.877L87.9943 27.1472C88.9303 28.7989 90.7709 35.0512 90.7709 35.0512C90.7709 35.0512 90.2887 52.4207 90.7009 62.4701L87.7299 62.5741L83.7634 40.1324L78.4748 62.0095L75.5898 62.2275L75.9627 46.625C75.9627 46.625 79.9492 26.0703 80.8547 25.877Z" fill="#2F2E41"/>
<path d="M84.2249 12.0142L87.8606 12.1354L91.61 17.4721C90.1559 21.3948 88.7884 24.2273 88.8481 27.0243C88.8531 27.2612 89.2151 27.7936 89.2447 28.0123C89.2848 28.3079 88.7586 28.7415 88.8481 29.0003L80.0615 27.0062C80.2393 26.7385 80.0862 26.4002 80.1937 26.1593C80.2882 25.9476 80.651 25.8314 80.6951 25.626C80.933 24.5173 81.06 22.6675 80.1646 20.4952C79.5279 18.9506 82.3303 15.3472 82.1798 13.5909L84.2249 12.0142Z" fill="#E6E6E6"/>
<path d="M85.0587 14.5057L78.3708 24.1427L70.5312 21.8382L70.8721 19.655L76.8417 20.862L80.172 15.3964C81.2595 13.1524 83.4028 12.7005 85.0587 14.5057Z" fill="#E6E6E6"/>
<path d="M85.9208 10.7847C87.6628 10.7847 89.075 9.27712 89.075 7.41748C89.075 5.55783 87.6628 4.05029 85.9208 4.05029C84.1788 4.05029 82.7666 5.55783 82.7666 7.41748C82.7666 9.27712 84.1788 10.7847 85.9208 10.7847Z" fill="#FFB7B7"/>
<path d="M88.8538 37.6373C88.9425 37.3038 89.0943 37.0195 89.2752 36.8166L89.9321 33.5835L91.3641 33.9622L90.5435 37.2011C90.5975 37.4751 90.5867 37.8023 90.498 38.1357C90.2954 38.8974 89.763 39.4032 89.309 39.2656C88.855 39.128 88.6512 38.3989 88.8538 37.6373Z" fill="#FFB6B6"/>
<path d="M89.0518 13.9684C89.0518 13.9684 91.6957 13.8246 91.8882 15.6963C92.0808 17.5679 92.6967 28.2276 92.6967 28.2276L91.269 35.4226L89.2331 35.1206L90.1328 25.9621L89.0518 13.9684Z" fill="#E6E6E6"/>
<path d="M89.1274 4.55561C89.1274 5.31636 88.7321 6.29589 88.7321 7.44621L87.5329 7.11312C87.5091 6.89011 87.3875 6.19286 87.3333 5.9755C87.361 6.18016 87.4205 6.86753 87.3544 7.06231L86.766 6.89858C86.7621 6.78142 86.7528 6.66428 86.7396 6.54854C86.7158 6.32554 86.6761 6.10535 86.6219 5.888C86.6497 6.09265 86.6272 6.30296 86.5611 6.49774C86.5228 6.605 86.4725 6.70662 86.4091 6.79977L83.5056 5.99103C82.8022 5.70852 82.6946 6.70272 82.7057 7.95151C82.7057 7.95151 82.309 3.57607 85.3236 3.32342L85.7784 2.83789C88.5166 3.00585 89.1274 3.61136 89.1274 4.55561Z" fill="#2F2E41"/>
<path d="M82.665 8.69775C82.7729 9.87289 82.6413 11.0552 82.4846 12.2254C82.4342 12.602 82.3781 12.9875 82.1902 13.3228C82.0022 13.658 81.6526 13.938 81.252 13.9467C81.8818 14.1283 82.6081 13.9691 83.0898 13.5439C83.5788 13.1122 83.7938 12.4579 83.8103 11.8249C83.8267 11.1918 83.6663 10.568 83.5069 9.95306L82.665 8.69775Z" fill="#2F2E41"/>
<path d="M88.4218 4.17041C88.5298 6.31289 88.3981 8.4684 88.2414 10.6019C88.191 11.2885 88.135 11.9913 87.947 12.6026C87.7591 13.2139 87.4094 13.7242 87.0088 13.7401C87.6386 14.0712 88.365 13.781 88.8467 13.0057C89.3357 12.2187 89.5506 11.0258 89.5671 9.87168C89.5836 8.71755 89.4231 7.58024 89.2638 6.45905L88.4218 4.17041Z" fill="#2F2E41"/>
<path d="M21.3754 68.0477L23.2732 68.0475L24.1761 60.2329L21.375 60.2331L21.3754 68.0477Z" fill="#A0616A"/>
<path d="M27.8778 68.0016C27.9369 68.1079 27.9681 68.4508 27.9681 68.5743C27.9681 68.9541 27.6797 69.2619 27.324 69.2619H21.4466C21.2039 69.2619 21.0071 69.0519 21.0071 68.7928V68.5316C21.0071 68.5316 20.7164 67.7465 21.315 66.7789C21.315 66.7789 22.059 67.5366 23.1707 66.3498L23.4985 65.7158L25.8716 67.5685L27.1869 67.7414C27.4747 67.7792 27.7298 67.7355 27.8778 68.0016Z" fill="#2F2E41"/>
<path d="M15.558 68.0477L17.4559 68.0475L18.3587 60.2329L15.5576 60.2331L15.558 68.0477Z" fill="#A0616A"/>
<path d="M22.0604 68.0016C22.1195 68.1079 22.1507 68.4508 22.1507 68.5743C22.1507 68.9541 21.8623 69.2619 21.5066 69.2619H15.6292C15.3865 69.2619 15.1897 69.0519 15.1897 68.7928V68.5316C15.1897 68.5316 14.899 67.7465 15.4976 66.7789C15.4976 66.7789 16.2416 67.5366 17.3533 66.3498L17.6811 65.7158L20.0542 67.5685L21.3695 67.7414C21.6573 67.7792 21.9124 67.7355 22.0604 68.0016Z" fill="#2F2E41"/>
<path d="M15.8706 28.9115L14.6807 49.095L15.2756 64.6679H18.9787L21.2915 38.227L20.7777 64.6679L24.2002 64.6207L27.8362 34.2044C27.8362 34.2044 27.77 31.0287 26.6462 29.4055C25.5224 27.7824 15.8706 28.9115 15.8706 28.9115Z" fill="#2F2E41"/>
<path d="M29.6496 24.2686L26.6689 24.3939L27.0171 27.948L32.8605 32.6519L33.6538 31.3816L29.4578 26.2238L29.6496 24.2686Z" fill="#A0616A"/>
<path d="M24.0021 11.1978L19.9034 10.7744L16.8624 12.327V25.171L15.8955 27.3294C15.5841 28.0245 15.5513 28.825 15.8047 29.5464L26.6464 29.4053L26.382 27.8527L26.9109 24.8887L27.3075 14.0207L24.0021 11.1978Z" fill="#E6E6E6"/>
<path d="M26.448 13.9503C26.448 13.9503 27.3735 12.9623 28.0346 15.5029C28.6956 18.0435 30.2822 27.0766 30.2822 27.0766L26.5141 27.1472L25.5225 17.4789L26.448 13.9503Z" fill="#E6E6E6"/>
<path d="M15.8711 24.8184L15.4745 35.2424L14.0201 35.4041L13.4912 25.1006L15.8711 24.8184Z" fill="#A0616A"/>
<path d="M18.3834 12.3976C18.3834 12.3976 16.0035 11.4096 15.3424 13.9502C14.6813 16.4908 13.0947 25.5239 13.0947 25.5239L16.0035 25.7467L19.3089 15.9262L18.3834 12.3976Z" fill="#E6E6E6"/>
<path d="M21.8398 9.96866C23.8369 9.96866 25.4559 8.24034 25.4559 6.10835C25.4559 3.97636 23.8369 2.24805 21.8398 2.24805C19.8426 2.24805 18.2236 3.97636 18.2236 6.10835C18.2236 8.24034 19.8426 9.96866 21.8398 9.96866Z" fill="#A0616A"/>
<path d="M14.8269 38.3798C15.4302 38.358 15.8913 37.4608 15.8568 36.3761C15.8223 35.2913 15.3052 34.4297 14.7018 34.4516C14.0985 34.4735 13.6374 35.3706 13.6719 36.4553C13.7065 37.5401 14.2236 38.4017 14.8269 38.3798Z" fill="#A0616A"/>
<path d="M35.6958 34.2085C36.1017 33.7314 35.8206 32.7531 35.068 32.0234C34.3153 31.2937 33.3761 31.0888 32.9703 31.5659C32.5644 32.043 32.8455 33.0213 33.5981 33.751C34.3508 34.4807 35.29 34.6856 35.6958 34.2085Z" fill="#A0616A"/>
<path d="M24.6412 2.78637C24.2826 2.18416 24.036 2.42779 23.3711 2.35346C22.99 2.31086 22.2772 1.67149 21.904 1.76403C21.412 1.88601 20.9078 2.01356 20.4888 2.31468C19.6007 1.75691 19.2848 2.84865 18.5146 3.57955C17.7445 4.31043 17.4833 5.58827 17.8982 6.59519C18.0958 7.0747 18.0807 7.58356 18.4021 7.97944C18.7721 8.4352 18.9759 9.06953 19.0044 9.10464C19.1584 9.29431 19.8836 9.42745 19.9132 9.46389C20.2036 9.82161 20.6715 9.71136 20.9619 10.0691L21.1293 8.17656C20.8942 7.9461 20.6509 7.70292 20.5412 7.38292C20.4316 7.06294 20.5043 6.64386 20.7859 6.48352C21.0075 6.35741 21.3038 6.41411 21.4968 6.24273C21.7914 5.98112 21.6097 5.43388 21.8242 5.09488C21.951 4.89443 22.1862 4.81375 22.4038 4.74634C22.7565 4.63707 23.1092 4.5278 23.4619 4.41854C23.79 4.31689 24.1269 4.2142 24.4675 4.24321C24.808 4.27223 25.1583 4.46188 25.2928 4.7971C25.1687 4.09589 24.9999 3.38859 24.6412 2.78637Z" fill="#2F2E41"/>
<path d="M36.9429 27.048C36.4944 25.8143 35.1939 25.2022 34.0381 25.681C32.8933 26.1553 32.3206 27.5218 32.7457 28.7467L32.7122 28.7606L34.3364 33.2285L38.1877 31.633C38.315 31.6061 38.442 31.5678 38.5672 31.516C39.7229 31.0371 40.2962 29.6488 39.8477 28.415C39.3992 27.1812 38.0987 26.5692 36.9429 27.048Z" fill="#41C9E2"/>
<path d="M68.2944 3.15285V18.114C68.2944 19.4371 67.2861 20.5134 66.0467 20.5134H52.0319C50.7925 20.5134 49.7842 19.4371 49.7842 18.114V3.15285C49.7842 1.82977 50.7925 0.753418 52.0319 0.753418H66.0467C67.2861 0.753418 68.2944 1.82977 68.2944 3.15285ZM66.0467 20.2311C67.1421 20.2311 68.03 19.2833 68.03 18.114V10.5712C68.03 5.30488 64.0308 1.0357 59.0976 1.0357C54.1 1.0357 50.0486 5.3606 50.0486 10.6956V18.114C50.0486 19.2833 50.9365 20.2311 52.0319 20.2311H66.0467Z" fill="#3F3D56"/>
<path d="M65.2953 6.14835C64.0722 5.93275 62.9169 6.81649 62.7149 8.12224C62.5149 9.4156 63.3254 10.6373 64.5295 10.8699L64.5236 10.9077L68.9531 11.6885L69.6261 7.33741C69.6692 7.20672 69.7029 7.07058 69.7248 6.92914C69.9268 5.62339 69.0989 4.39007 67.8758 4.17447C66.6526 3.95887 65.4973 4.8426 65.2953 6.14835Z" fill="#41C9E2"/>
<path d="M50.6929 16.6037C50.2444 15.3699 48.9439 14.7579 47.7881 15.2367C46.6433 15.711 46.0706 17.0775 46.4957 18.3024L46.4622 18.3163L48.0864 22.7842L51.9377 21.1887C52.065 21.1618 52.192 21.1235 52.3172 21.0716C53.4729 20.5928 54.0462 19.2045 53.5977 17.9707C53.1492 16.7369 51.8487 16.1249 50.6929 16.6037Z" fill="#41C9E2"/>
<path d="M85.6084 32.603C84.3969 32.3226 83.2018 33.1438 82.9391 34.4372C82.679 35.7183 83.4315 36.9816 84.6232 37.2779L84.6156 37.3154L89.0031 38.3308L89.8784 34.0208C89.9275 33.8926 89.9675 33.7584 89.996 33.6183C90.2586 32.3249 89.4894 31.0491 88.2778 30.7688C87.0662 30.4884 85.8711 31.3096 85.6084 32.603Z" fill="#41C9E2"/>
<path d="M10.3809 67.0418C10.1078 67.06 9.95681 66.6978 10.1635 66.4866L10.184 66.3994C10.1813 66.3924 10.1786 66.3854 10.1759 66.3784C9.89963 65.6753 8.96345 65.6801 8.68957 66.3843C8.44648 67.0093 8.13698 67.6354 8.06078 68.2962C8.02662 68.588 8.04199 68.8851 8.10262 69.1714C7.53303 67.8432 7.23328 66.3928 7.23328 64.9342C7.23328 64.5677 7.25207 64.2012 7.2905 63.8357C7.3221 63.5366 7.36565 63.2395 7.42202 62.945C7.72687 61.3533 8.387 59.8373 9.33916 58.571C9.79689 58.3039 10.1786 57.8864 10.4092 57.3859C10.492 57.2054 10.5569 57.0113 10.5877 56.8134C10.5356 56.8207 10.3912 55.9738 10.4305 55.9219C10.3579 55.8043 10.228 55.7458 10.1487 55.6311C9.75441 55.0604 9.21115 55.16 8.92755 55.9355C8.3217 56.262 8.31584 56.8033 8.68758 57.3239C8.92409 57.6552 8.95658 58.1034 9.1641 58.458C9.14274 58.4872 9.12054 58.5154 9.09919 58.5446C8.70769 59.0806 8.36909 59.6568 8.08364 60.2621C8.16431 59.5894 8.04521 58.779 7.84216 58.2565C7.61102 57.6613 7.17778 57.16 6.79627 56.6454C6.33801 56.0273 5.3983 56.297 5.31756 57.0806C5.31678 57.0882 5.31602 57.0957 5.31527 57.1033C5.37194 57.1374 5.42746 57.1737 5.48169 57.212C5.79101 57.4304 5.6841 57.9422 5.3176 58.0026L5.3093 58.004C5.3298 58.2219 5.36481 58.4379 5.41604 58.6504C4.92661 60.6709 5.98326 61.4069 7.49203 61.4399C7.52533 61.4581 7.55779 61.4764 7.59109 61.4937C7.43823 61.9532 7.31611 62.4245 7.2256 62.9022C7.14447 63.3242 7.0881 63.7509 7.05651 64.1793C7.01722 64.7199 7.02064 65.2633 7.06334 65.8029L7.06078 65.7838C6.95233 65.1894 6.65002 64.6343 6.21108 64.2495C5.55719 63.6761 4.63337 63.465 3.92794 63.0041C3.58837 62.7822 3.15323 63.0689 3.21249 63.4892L3.21538 63.5093C3.32041 63.5549 3.42289 63.6078 3.52195 63.667C3.57862 63.7012 3.63413 63.7374 3.68836 63.7757C3.99768 63.9941 3.89078 64.5059 3.52427 64.5663L3.51597 64.5677C3.50999 64.5686 3.50486 64.5695 3.4989 64.5704C3.67908 65.0272 3.93014 65.4511 4.2444 65.8166C4.55043 67.5805 5.86484 67.7479 7.27085 67.2342H7.27171C7.42542 67.9489 7.65002 68.6472 7.93866 69.3127H10.3212C10.3298 69.2844 10.3374 69.2553 10.3451 69.227C10.1248 69.2416 9.90278 69.2279 9.68587 69.1851C9.86264 68.9535 10.0394 68.7201 10.2162 68.4886C10.2205 68.484 10.2239 68.4795 10.2273 68.4749C10.3169 68.3564 10.4075 68.2388 10.4971 68.1203L10.4972 68.1202C10.5028 67.7564 10.4619 67.3937 10.3809 67.0418Z" fill="#F2F2F2"/>
<path d="M0.164875 69.5522H98.8351C98.9262 69.5522 99 69.4734 99 69.3762C99 69.279 98.9262 69.2002 98.8351 69.2002H0.164875C0.0738188 69.2002 0 69.279 0 69.3762C0 69.4734 0.0738188 69.5522 0.164875 69.5522Z" fill="#E6E6E6"/>
</g>
<defs>
<clipPath id="clip0_27_362">
<rect width="99" height="68.7987" fill="white" transform="translate(0 0.753418)"/>
</clipPath>
</defs>
</svg>
