<svg width="99" height="80" viewBox="0 0 99 80" fill="none" xmlns="http://www.w3.org/2000/svg">
<g clip-path="url(#clip0_27_208)">
<path d="M14.5282 68.1863C20.7765 64.9809 33.6931 59.6037 49.9971 59.6037C66.3011 59.6037 79.2177 64.9809 85.466 68.1863C91.549 71.3068 96.4411 74.986 98.7456 77.988C99.5856 76.8566 98.3527 56.7277 94.9407 48.745C89.9389 37.0137 81.5503 27.0038 70.8257 19.9691C60.101 12.9344 47.5172 9.18774 34.6505 9.19837C30.0739 9.186 25.5403 10.072 21.312 11.8052C17.0838 13.5383 13.2449 16.0842 10.0176 19.2953C9.88057 19.431 9.74478 19.5675 9.61027 19.705C2.3894 27.0866 -0.982238 37.3562 0.248759 47.5573C1.12518 54.8201 3.28513 70.011 6.33704 73.2319C8.92135 71.3282 11.6612 69.6405 14.5282 68.1863Z" fill="#F2F2F2"/>
<path d="M61.3323 18.66C66.4897 18.66 70.6705 14.5227 70.6705 9.41911C70.6705 4.31551 66.4897 0.178223 61.3323 0.178223C56.175 0.178223 51.9941 4.31551 51.9941 9.41911C51.9941 14.5227 56.175 18.66 61.3323 18.66Z" fill="#41C9E2"/>
<path d="M50.7236 64.5849C56.4568 64.5849 61.1044 63.6255 61.1044 62.4419C61.1044 61.2583 56.4568 60.2988 50.7236 60.2988C44.9904 60.2988 40.3428 61.2583 40.3428 62.4419C40.3428 63.6255 44.9904 64.5849 50.7236 64.5849Z" fill="#F2F2F2"/>
<path d="M61.2687 14.0233C51.7527 14.0224 44.2986 12.3153 44.2988 10.1367C44.2989 8.83063 46.9403 7.6655 51.5457 6.94022C51.5621 6.9375 51.5788 6.938 51.595 6.9417C51.6112 6.94539 51.6266 6.95221 51.6401 6.96177C51.6536 6.97132 51.6652 6.98342 51.674 6.99737C51.6828 7.01133 51.6887 7.02686 51.6915 7.04309C51.6942 7.05933 51.6937 7.07594 51.69 7.09197C51.6863 7.10801 51.6794 7.12316 51.6697 7.13656C51.6601 7.14996 51.6478 7.16135 51.6337 7.17008C51.6196 7.1788 51.6039 7.1847 51.5875 7.18742L51.5871 7.18749L51.5855 7.18774C47.2472 7.87101 44.5522 9.00101 44.5521 10.1368C44.5519 12.1068 52.2072 13.7718 61.2687 13.7726C70.3302 13.7734 77.9858 12.1098 77.986 10.1397C77.9861 8.99922 75.274 7.86599 70.9082 7.18237C70.8917 7.17991 70.8759 7.17426 70.8616 7.16575C70.8474 7.15723 70.835 7.14602 70.8251 7.13275C70.8152 7.11947 70.8081 7.10441 70.8041 7.0884C70.8001 7.0724 70.7994 7.05578 70.8019 7.03948C70.8044 7.02319 70.8101 7.00755 70.8188 6.99346C70.8274 6.97937 70.8388 6.9671 70.8522 6.95735C70.8656 6.94761 70.8809 6.94058 70.897 6.93668C70.9132 6.93277 70.93 6.93206 70.9465 6.93459L70.9469 6.93465L70.9478 6.93479C75.5817 7.6604 78.2394 8.82857 78.2393 10.1398C78.2391 12.3183 70.7847 14.0241 61.2687 14.0233Z" fill="#3F3D56"/>
<path d="M61.9475 12.5304C53.7474 17.3085 46.449 19.5808 45.332 17.7036C44.6623 16.5781 46.3408 14.2477 49.9371 11.31C49.9499 11.2994 49.9646 11.2914 49.9804 11.2864C49.9963 11.2815 50.013 11.2797 50.0296 11.2811C50.0461 11.2825 50.0623 11.2872 50.077 11.2948C50.0918 11.3024 50.1049 11.3128 50.1156 11.3254C50.1262 11.338 50.1343 11.3525 50.1393 11.3682C50.1443 11.3839 50.1462 11.4005 50.1447 11.4168C50.1433 11.4332 50.1386 11.4492 50.1309 11.4638C50.1232 11.4784 50.1127 11.4914 50.1 11.5019L50.0996 11.5022L50.0984 11.5033C46.7107 14.2706 44.9679 16.5977 45.5503 17.5764C46.5604 19.274 54.0105 16.8643 61.8189 12.3144C69.6274 7.76454 75.3708 2.4865 74.3606 0.78888C73.7758 -0.193918 70.8578 0.191562 66.7453 1.79499C66.7299 1.80111 66.7134 1.80415 66.6968 1.80394C66.6801 1.80374 66.6637 1.8003 66.6484 1.79382C66.6331 1.78733 66.6193 1.77793 66.6077 1.76615C66.596 1.75437 66.5869 1.74044 66.5807 1.72516C66.5745 1.70988 66.5715 1.69354 66.5717 1.67708C66.5719 1.66062 66.5754 1.64437 66.5819 1.62924C66.5885 1.61411 66.598 1.60041 66.6099 1.58892C66.6218 1.57742 66.6358 1.56836 66.6513 1.56225L66.6517 1.5621L66.6525 1.56177C71.0175 -0.140108 73.9066 -0.468171 74.5789 0.661698C75.6959 2.53898 70.1475 7.75233 61.9475 12.5304Z" fill="#3F3D56"/>
<path d="M51.0166 63.579C54.9058 63.579 58.0585 63.0618 58.0585 62.4238C58.0585 61.7858 54.9058 61.2686 51.0166 61.2686C47.1274 61.2686 43.9746 61.7858 43.9746 62.4238C43.9746 63.0618 47.1274 63.579 51.0166 63.579Z" fill="#E6E6E6"/>
<path d="M27.5479 75.7917C34.0912 75.7917 39.3956 74.6966 39.3956 73.3458C39.3956 71.995 34.0912 70.8999 27.5479 70.8999C21.0046 70.8999 15.7002 71.995 15.7002 73.3458C15.7002 74.6966 21.0046 75.7917 27.5479 75.7917Z" fill="#F2F2F2"/>
<path d="M75.7984 79.9999C85.5548 79.9999 93.4639 78.3671 93.4639 76.353C93.4639 74.3388 85.5548 72.7061 75.7984 72.7061C66.042 72.7061 58.1328 74.3388 58.1328 76.353C58.1328 78.3671 66.042 79.9999 75.7984 79.9999Z" fill="#F2F2F2"/>
<path d="M27.5114 74.757C32.5271 74.757 36.5931 74.09 36.5931 73.2672C36.5931 72.4444 32.5271 71.7773 27.5114 71.7773C22.4957 71.7773 18.4297 72.4444 18.4297 73.2672C18.4297 74.09 22.4957 74.757 27.5114 74.757Z" fill="#E6E6E6"/>
<path d="M75.8022 78.6685C84.3774 78.6685 91.329 77.5281 91.329 76.1214C91.329 74.7146 84.3774 73.5742 75.8022 73.5742C67.227 73.5742 60.2754 74.7146 60.2754 76.1214C60.2754 77.5281 67.227 78.6685 75.8022 78.6685Z" fill="#E6E6E6"/>
<path d="M7.31814 40.5919C7.80775 40.5919 8.20465 40.1992 8.20465 39.7147C8.20465 39.2302 7.80775 38.8374 7.31814 38.8374C6.82854 38.8374 6.43164 39.2302 6.43164 39.7147C6.43164 40.1992 6.82854 40.5919 7.31814 40.5919Z" fill="white"/>
<path d="M69.3738 53.3751C69.8634 53.3751 70.2603 52.9824 70.2603 52.4979C70.2603 52.0134 69.8634 51.6206 69.3738 51.6206C68.8842 51.6206 68.4873 52.0134 68.4873 52.4979C68.4873 52.9824 68.8842 53.3751 69.3738 53.3751Z" fill="white"/>
<path d="M39.0972 24.4354C41.2495 25.0432 41.1668 26.3153 43.7197 26.3153C46.2726 26.3153 48.3422 26.6503 48.3422 24.4354C48.3422 22.2205 47.3261 18.1032 43.7197 18.2945C39.8382 18.5005 37.7923 24.0669 39.0972 24.4354Z" fill="#2F2E41"/>
<path d="M33.4328 43.1903C33.3402 43.0161 33.2873 42.8239 33.2779 42.6273C33.2685 42.4307 33.3027 42.2345 33.3782 42.0524C33.4537 41.8703 33.5686 41.7068 33.7149 41.5734C33.8611 41.44 34.0352 41.34 34.2247 41.2804L39.5205 30.1943L41.9429 31.8753L35.9756 42.2439C36.0557 42.5657 36.0138 42.9053 35.8578 43.1985C35.7017 43.4917 35.4424 43.7181 35.129 43.8347C34.8156 43.9514 34.4698 43.9502 34.1572 43.8314C33.8446 43.7126 33.5868 43.4845 33.4328 43.1903Z" fill="#FFB8B8"/>
<path d="M37.9711 31.6664C37.9459 31.5833 37.939 31.4958 37.9511 31.4099C37.9632 31.324 37.9938 31.2416 38.041 31.1685L39.6875 28.6141C39.8705 28.2089 40.2084 27.892 40.6272 27.7329C41.0459 27.5739 41.5113 27.5856 41.9213 27.7656C42.3313 27.9456 42.6525 28.2792 42.8143 28.6931C42.9762 29.1071 42.9655 29.5677 42.7847 29.9739L41.9553 32.9006C41.9316 32.9841 41.89 33.0616 41.8334 33.1278C41.7767 33.194 41.7063 33.2473 41.6269 33.2841C41.5475 33.3209 41.4611 33.3404 41.3734 33.3412C41.2858 33.342 41.199 33.324 41.119 33.2886L38.3064 32.0441C38.2263 32.0087 38.1549 31.9566 38.0971 31.8914C38.0392 31.8263 37.9962 31.7495 37.9711 31.6664Z" fill="#41C9E2"/>
<path d="M52.6631 64.6141L51.2042 65.1398L48.4609 59.8213L50.6141 59.0454L52.6631 64.6141Z" fill="#FFB8B8"/>
<path d="M50.0098 65.1026L52.8235 64.0889L53.4685 65.842L48.8833 67.494C48.7122 67.0291 48.7348 66.5159 48.9461 66.0675C49.1573 65.619 49.54 65.2719 50.0098 65.1026Z" fill="#2F2E41"/>
<path d="M48.6803 61.2499L43.1222 51.6248C43.0686 51.5317 43.0409 51.4261 43.042 51.3189C43.0432 51.2116 43.0731 51.1067 43.1288 51.0147L45.6316 46.8869C45.691 46.789 45.7771 46.7097 45.8802 46.6583C45.9832 46.607 46.0989 46.5855 46.2137 46.5966C46.3285 46.6076 46.4379 46.6507 46.529 46.7207C46.6201 46.7908 46.6892 46.885 46.7284 46.9924L51.4603 59.9594C51.5124 60.1005 51.5092 60.2559 51.4513 60.3948C51.3935 60.5337 51.2851 60.6462 51.1477 60.71L49.471 61.4959C49.3901 61.5338 49.3017 61.5535 49.2122 61.5534C49.1044 61.5536 48.9984 61.5256 48.905 61.4723C48.8116 61.419 48.7341 61.3423 48.6803 61.2499Z" fill="#2F2E41"/>
<path d="M43.5226 26.1947C45.2405 26.1947 46.6331 24.8166 46.6331 23.1167C46.6331 21.4167 45.2405 20.0386 43.5226 20.0386C41.8047 20.0386 40.4121 21.4167 40.4121 23.1167C40.4121 24.8166 41.8047 26.1947 43.5226 26.1947Z" fill="#FFB8B8"/>
<path d="M39.0978 37.0593C36.6482 31.6843 39.1177 28.6803 40.2931 27.6382C40.6317 27.3377 41.0705 27.1716 41.5254 27.1719H45.9071C46.2218 27.1719 46.5312 27.2515 46.8061 27.4031C47.0809 27.5547 47.312 27.7733 47.4774 28.0382C47.6429 28.3031 47.7371 28.6054 47.7513 28.9165C47.7654 29.2275 47.699 29.537 47.5583 29.8155L44.6291 35.6128L39.1216 37.1117L39.0978 37.0593Z" fill="#41C9E2"/>
<path d="M42.6408 66.0671L41.0882 66.0669L40.3496 60.1406L42.6411 60.1408L42.6408 66.0671Z" fill="#FFB8B8"/>
<path d="M39.9791 65.6279H42.9734V67.4936H38.0938C38.0937 67.2486 38.1425 67.006 38.2373 66.7796C38.332 66.5533 38.4709 66.3476 38.6459 66.1744C38.821 66.0011 39.0288 65.8637 39.2576 65.7699C39.4863 65.6762 39.7315 65.6279 39.9791 65.6279Z" fill="#2F2E41"/>
<path d="M41.9828 63.805L39.497 63.5213C39.3362 63.5029 39.1894 63.4221 39.0889 63.2966C38.9884 63.1711 38.9423 63.0113 38.9609 62.8522C38.9613 62.8488 38.9617 62.8454 38.9622 62.842L41.1808 46.3118C41.1885 46.2543 41.1854 46.1958 41.1715 46.1393L38.9416 37.0352C38.9205 36.9512 38.9182 36.8637 38.9346 36.7788C38.9511 36.6938 38.9861 36.6134 39.0371 36.5431C39.3829 36.0714 40.5677 34.972 44.092 34.9512H44.0958C44.2131 34.9512 44.328 34.9846 44.4268 35.0474C44.5255 35.1102 44.6039 35.1998 44.6526 35.3054L45.1228 36.3288C45.1578 36.4048 45.2125 36.4702 45.2814 36.5184C45.9285 36.9716 49.0632 39.5159 47.2226 45.1016C45.4135 50.5917 43.0956 61.2502 42.6493 63.3311C42.6209 63.4663 42.5462 63.5877 42.4378 63.6748C42.3294 63.7619 42.194 63.8093 42.0544 63.8091C42.0305 63.8091 42.0066 63.8078 41.9828 63.805Z" fill="#2F2E41"/>
<path d="M54.3483 23.8895C54.3543 23.9586 54.3658 24.0271 54.3828 24.0944L50.1596 28.6948L48.668 28.3767L47.8887 30.5415L50.4739 31.3586C50.6827 31.4246 50.9076 31.4217 51.1147 31.3505C51.3218 31.2793 51.4999 31.1436 51.6224 30.9636L55.6143 25.099C55.884 25.1109 56.151 25.0412 56.3797 24.8993C56.6084 24.7574 56.788 24.5499 56.8947 24.3045C57.0013 24.0591 57.0299 23.7873 56.9767 23.5254C56.9235 23.2635 56.791 23.0239 56.5967 22.8383C56.4025 22.6528 56.1558 22.5301 55.8894 22.4867C55.6231 22.4433 55.3496 22.4812 55.1055 22.5953C54.8615 22.7094 54.6583 22.8944 54.523 23.1256C54.3877 23.3567 54.3268 23.6232 54.3483 23.8895Z" fill="#FFB8B8"/>
<path d="M50.0313 28.8896L49.0522 31.568C49.0243 31.6442 48.9802 31.7136 48.9228 31.7714C48.8654 31.8292 48.7961 31.8741 48.7196 31.903C48.6431 31.932 48.5612 31.9442 48.4794 31.939C48.3977 31.9337 48.3181 31.9111 48.246 31.8727L45.7197 30.5258C45.3265 30.3826 45.0066 30.0909 44.8304 29.7147C44.6541 29.3385 44.6359 28.9084 44.7796 28.5189C44.9233 28.1293 45.2172 27.8121 45.5969 27.6367C45.9767 27.4613 46.4112 27.4421 46.8052 27.5833L49.6086 28.145C49.6889 28.1612 49.7647 28.1942 49.8309 28.2419C49.8971 28.2896 49.9521 28.3509 49.9922 28.4215C50.0323 28.4922 50.0566 28.5706 50.0633 28.6514C50.07 28.7321 50.0591 28.8134 50.0313 28.8896Z" fill="#41C9E2"/>
<path d="M47.329 22.9313H46.0988L45.556 21.4274L45.4475 22.9313H44.8595L44.5429 22.054L44.4795 22.9313C42.9408 23.5738 41.4821 23.5915 40.1104 22.9313C40.1104 22.0671 40.4573 21.2383 41.0748 20.6272C41.6923 20.0161 42.5298 19.6729 43.4031 19.6729H44.0363C44.9096 19.6729 45.7471 20.0161 46.3646 20.6272C46.9821 21.2383 47.329 22.0671 47.329 22.9313Z" fill="#2F2E41"/>
<path d="M14.4741 55.1295H14.0309V54.6909C14.0309 54.5413 13.9708 54.3979 13.8639 54.2921C13.7571 54.1864 13.6121 54.127 13.461 54.127C13.3098 54.127 13.1649 54.1864 13.058 54.2921C12.9511 54.3979 12.8911 54.5413 12.8911 54.6909V55.1295H12.4478C12.2967 55.1295 12.1517 55.189 12.0448 55.2947C11.938 55.4005 11.8779 55.5439 11.8779 55.6935C11.8779 55.8431 11.938 55.9865 12.0448 56.0923C12.1517 56.198 12.2967 56.2575 12.4478 56.2575H12.8911V56.6961C12.8911 56.8457 12.9511 56.9891 13.058 57.0949C13.1649 57.2006 13.3098 57.26 13.461 57.26C13.6121 57.26 13.7571 57.2006 13.8639 57.0949C13.9708 56.9891 14.0309 56.8457 14.0309 56.6961V56.2575H14.4741C14.6253 56.2575 14.7702 56.198 14.8771 56.0923C14.984 55.9865 15.044 55.8431 15.044 55.6935C15.044 55.5439 14.984 55.4005 14.8771 55.2947C14.7702 55.189 14.6253 55.1295 14.4741 55.1295Z" fill="white"/>
<path d="M79.7153 44.3714H79.4848V44.1434C79.4848 44.0656 79.4535 43.991 79.398 43.936C79.3424 43.881 79.267 43.8501 79.1884 43.8501C79.1098 43.8501 79.0344 43.881 78.9789 43.936C78.9233 43.991 78.8921 44.0656 78.8921 44.1434V44.3714H78.6616C78.583 44.3714 78.5076 44.4023 78.452 44.4573C78.3965 44.5123 78.3652 44.5869 78.3652 44.6647C78.3652 44.7425 78.3965 44.8171 78.452 44.8721C78.5076 44.9271 78.583 44.958 78.6616 44.958H78.8921V45.1861C78.8921 45.2638 78.9233 45.3384 78.9789 45.3934C79.0344 45.4484 79.1098 45.4793 79.1884 45.4793C79.267 45.4793 79.3424 45.4484 79.398 45.3934C79.4535 45.3384 79.4848 45.2638 79.4848 45.1861V44.958H79.7153C79.7939 44.9581 79.8693 44.9273 79.925 44.8724C79.9806 44.8175 80.012 44.743 80.0121 44.6652C80.0123 44.5874 79.9812 44.5128 79.9257 44.4577C79.8702 44.4026 79.7949 44.3716 79.7163 44.3714H79.7153Z" fill="#FF6584"/>
<path d="M12.4677 29.2074H12.2372V28.9793C12.2374 28.9016 12.2063 28.8269 12.1508 28.7718C12.0954 28.7167 12.02 28.6857 11.9414 28.6855C11.9025 28.6855 11.864 28.693 11.828 28.7077C11.792 28.7223 11.7593 28.7439 11.7317 28.7711C11.6761 28.8259 11.6447 28.9005 11.6445 28.9783V29.2074H11.4141C11.3751 29.2074 11.3366 29.2149 11.3006 29.2296C11.2646 29.2442 11.2319 29.2658 11.2044 29.293C11.1768 29.3202 11.1549 29.3524 11.1399 29.388C11.125 29.4236 11.1173 29.4617 11.1172 29.5002C11.1171 29.5387 11.1247 29.5768 11.1395 29.6124C11.1544 29.6481 11.1761 29.6804 11.2036 29.7077C11.2311 29.735 11.2637 29.7566 11.2996 29.7714C11.3356 29.7862 11.3741 29.7939 11.413 29.794H11.6445V30.022C11.6444 30.0998 11.6755 30.1745 11.731 30.2296C11.7864 30.2847 11.8617 30.3157 11.9403 30.3158C12.0189 30.316 12.0944 30.2852 12.15 30.2303C12.2057 30.1754 12.2371 30.1009 12.2372 30.0231V29.794H12.4677C12.5463 29.7942 12.6218 29.7635 12.6775 29.7087C12.7333 29.6538 12.7647 29.5793 12.7649 29.5015C12.7651 29.4238 12.7341 29.3491 12.6787 29.2939C12.6233 29.2388 12.548 29.2077 12.4694 29.2074H12.4688L12.4677 29.2074Z" fill="#41C9E2"/>
<path d="M29.5644 29.2074H29.3339V28.9793C29.3341 28.9016 29.303 28.8269 29.2475 28.7718C29.192 28.7167 29.1167 28.6857 29.0381 28.6855C28.9595 28.6854 28.8841 28.7162 28.8284 28.7711C28.7727 28.8259 28.7414 28.9005 28.7412 28.9783V29.2074H28.5107C28.4321 29.2073 28.3567 29.2381 28.301 29.293C28.2454 29.3479 28.214 29.4224 28.2139 29.5002C28.2137 29.578 28.2448 29.6526 28.3003 29.7077C28.3558 29.7628 28.4311 29.7938 28.5097 29.794H28.7412V30.022C28.7411 30.0998 28.7722 30.1745 28.8276 30.2296C28.8831 30.2847 28.9584 30.3157 29.037 30.3158C29.1156 30.316 29.1911 30.2852 29.2467 30.2303C29.3024 30.1754 29.3338 30.1009 29.3339 30.0231V29.794H29.5644C29.643 29.7942 29.7185 29.7635 29.7742 29.7087C29.8299 29.6538 29.8614 29.5793 29.8616 29.5015C29.8618 29.4238 29.8308 29.3491 29.7754 29.2939C29.72 29.2388 29.6447 29.2077 29.5661 29.2074H29.5655L29.5644 29.2074Z" fill="white"/>
<path d="M88.4535 59.285H88.223V59.0569C88.223 58.9791 88.1918 58.9046 88.1362 58.8496C88.0807 58.7946 88.0053 58.7637 87.9267 58.7637C87.8481 58.7637 87.7727 58.7946 87.7172 58.8496C87.6616 58.9046 87.6304 58.9791 87.6304 59.0569V59.285H87.3999C87.3213 59.285 87.2459 59.3159 87.1903 59.3709C87.1347 59.4259 87.1035 59.5005 87.1035 59.5783C87.1035 59.6561 87.1347 59.7306 87.1903 59.7856C87.2459 59.8406 87.3213 59.8715 87.3999 59.8715H87.6304V60.0996C87.6304 60.1774 87.6616 60.252 87.7172 60.307C87.7727 60.362 87.8481 60.3929 87.9267 60.3929C88.0053 60.3929 88.0807 60.362 88.1362 60.307C88.1918 60.252 88.223 60.1774 88.223 60.0996V59.8715H88.4535C88.5321 59.8715 88.6075 59.8406 88.6631 59.7856C88.7187 59.7306 88.7499 59.6561 88.7499 59.5783C88.7499 59.5005 88.7187 59.4259 88.6631 59.3709C88.6075 59.3159 88.5321 59.285 88.4535 59.285Z" fill="white"/>
<path d="M61.8588 34.847H61.6283V34.6189C61.6283 34.5412 61.5971 34.4666 61.5415 34.4116C61.4859 34.3566 61.4106 34.3257 61.332 34.3257C61.2534 34.3257 61.178 34.3566 61.1224 34.4116C61.0669 34.4666 61.0356 34.5412 61.0356 34.6189V34.847H60.8051C60.7265 34.847 60.6512 34.8779 60.5956 34.9329C60.54 34.9879 60.5088 35.0625 60.5088 35.1403C60.5088 35.2181 60.54 35.2927 60.5956 35.3477C60.6512 35.4027 60.7265 35.4335 60.8051 35.4335H61.0356V35.6616C61.0356 35.7394 61.0669 35.814 61.1224 35.869C61.178 35.924 61.2534 35.9549 61.332 35.9549C61.4106 35.9549 61.4859 35.924 61.5415 35.869C61.5971 35.814 61.6283 35.7394 61.6283 35.6616V35.4335H61.8588C61.8977 35.4336 61.9363 35.4261 61.9723 35.4114C62.0082 35.3967 62.0409 35.3752 62.0685 35.348C62.0961 35.3208 62.118 35.2885 62.1329 35.253C62.1479 35.2174 62.1556 35.1793 62.1557 35.1408C62.1557 35.1023 62.1481 35.0641 62.1333 35.0285C62.1185 34.9929 62.0967 34.9606 62.0693 34.9333C62.0418 34.906 62.0091 34.8844 61.9732 34.8696C61.9373 34.8548 61.8988 34.8471 61.8599 34.847H61.8588Z" fill="white"/>
<path d="M21.206 41.1132H20.9755V40.8851C20.9757 40.8073 20.9446 40.7327 20.8891 40.6776C20.8336 40.6225 20.7583 40.5915 20.6797 40.5913C20.6011 40.5912 20.5257 40.6219 20.47 40.6768C20.4143 40.7317 20.383 40.8062 20.3828 40.884V41.1132H20.1523C20.0737 41.1131 19.9983 41.1438 19.9426 41.1987C19.887 41.2536 19.8556 41.3282 19.8555 41.4059C19.8553 41.4837 19.8864 41.5584 19.9419 41.6135C19.9974 41.6686 20.0727 41.6996 20.1513 41.6997H20.3828V41.9278C20.3827 42.0056 20.4138 42.0802 20.4692 42.1353C20.5247 42.1904 20.6 42.2215 20.6786 42.2216C20.7572 42.2218 20.8327 42.191 20.8883 42.1361C20.944 42.0812 20.9754 42.0067 20.9755 41.9289V41.6997H21.206C21.2846 41.6999 21.36 41.6691 21.4157 41.6142C21.4714 41.5593 21.5027 41.4848 21.5029 41.407C21.503 41.3292 21.4719 41.2546 21.4164 41.1995C21.361 41.1444 21.2856 41.1133 21.207 41.1132L21.206 41.1132Z" fill="white"/>
<path d="M21.9658 20.3095H21.7353V20.0814C21.7354 20.0036 21.7043 19.929 21.6489 19.8739C21.5934 19.8188 21.5181 19.7877 21.4395 19.7876C21.3609 19.7875 21.2855 19.8182 21.2298 19.8731C21.1741 19.928 21.1427 20.0025 21.1426 20.0803V20.3095H20.9121C20.8335 20.3094 20.7581 20.3401 20.7024 20.395C20.6467 20.4499 20.6154 20.5245 20.6152 20.6022C20.6151 20.68 20.6462 20.7547 20.7017 20.8097C20.7571 20.8648 20.8325 20.8959 20.9111 20.896H21.1426V21.1241C21.1424 21.2019 21.1735 21.2765 21.229 21.3316C21.2845 21.3867 21.3598 21.4178 21.4384 21.4179C21.517 21.418 21.5924 21.3873 21.6481 21.3324C21.7038 21.2775 21.7351 21.203 21.7353 21.1252V20.896H21.9658C22.0444 20.8961 22.1198 20.8654 22.1755 20.8105C22.2311 20.7556 22.2625 20.681 22.2626 20.6033C22.2628 20.5255 22.2317 20.4508 22.1762 20.3958C22.1207 20.3407 22.0454 20.3096 21.9668 20.3095L21.9658 20.3095Z" fill="white"/>
<path d="M61.3322 12.2191C52.1586 7.63342 44.4657 9.12347 44.3623 8.33251C44.3624 7.02639 47.0038 5.86126 51.6091 5.13598C51.6255 5.13324 51.6423 5.13372 51.6586 5.13741C51.6748 5.14109 51.6901 5.14791 51.7037 5.15746C51.7172 5.16701 51.7288 5.17912 51.7376 5.19308C51.7464 5.20704 51.7524 5.22259 51.7551 5.23883C51.7579 5.25508 51.7574 5.2717 51.7536 5.28775C51.7499 5.3038 51.743 5.31896 51.7333 5.33236C51.7236 5.34577 51.7114 5.35716 51.6973 5.36588C51.6831 5.3746 51.6674 5.38048 51.651 5.38318L51.6505 5.38326L51.6489 5.38351C47.3107 6.06678 44.6157 7.19677 44.6156 8.33252C44.6154 10.3026 52.2707 11.9676 61.3322 11.9684C70.3937 11.9692 78.0493 10.3056 78.0494 8.3355C78.0495 7.19498 75.3375 6.06175 70.9717 5.37813C70.9552 5.37564 70.9394 5.36997 70.9252 5.36145C70.911 5.35292 70.8986 5.34171 70.8887 5.32844C70.8789 5.31518 70.8718 5.30012 70.8678 5.28414C70.8638 5.26816 70.8631 5.25156 70.8656 5.23529C70.8681 5.21902 70.8739 5.2034 70.8825 5.18932C70.8911 5.17524 70.9024 5.16298 70.9158 5.15323C70.9292 5.14349 70.9444 5.13645 70.9606 5.13252C70.9767 5.1286 70.9935 5.12786 71.01 5.13035L71.0104 5.13041L71.0113 5.13055C75.6452 5.85616 78.3029 7.02434 78.3027 8.33552C78.3025 10.5141 69.826 16.4649 61.3322 12.2191Z" fill="#3F3D56"/>
</g>
<defs>
<clipPath id="clip0_27_208">
<rect width="99" height="80" fill="white"/>
</clipPath>
</defs>
</svg>
