<svg width="96" height="95" viewBox="0 0 96 95" fill="none" xmlns="http://www.w3.org/2000/svg">
<g clip-path="url(#clip0_30_1435)">
<path d="M30.0283 4.89556V64.9206H68.9175V3.44348C62.6969 0.945076 56.0186 -0.216899 49.3179 0.0332991C42.6171 0.283498 36.0445 1.94025 30.0283 4.89556Z" fill="white"/>
<path d="M26.2129 7.38569V65.091H39.4352L39.1989 61.8247L37.8989 26.0642H64.0801L62.78 61.8247L62.5438 65.091H75.9142V8.43046C75.6689 8.24994 75.4224 8.07167 75.1726 7.89679C75.124 7.86294 75.3381 6.90606 75.2884 6.87222C72.4127 4.86443 69.3019 3.21507 66.0251 1.96085L65.0569 12.5893H60.5202V1.25693C60.224 1.18359 59.9278 1.11477 59.6293 1.05045C59.6293 4.11073 58.4112 7.04568 56.243 9.20963C54.0748 11.3736 51.134 12.5893 48.0677 12.5893H42.4977V0.751465C42.2004 0.80562 41.9031 0.863163 41.608 0.924087V12.5893H36.921L36.1816 2.41002C32.993 3.51337 29.9457 4.98763 27.1026 6.80237C27.0042 6.86555 26.9048 6.92761 26.8064 6.99304C26.6074 7.12167 26.4096 7.25255 26.2129 7.38569ZM60.5202 13.4783H64.9924L64.2949 23.1025H60.5202V13.4783ZM42.4977 13.4783H59.6293V23.1025H52.9922V22.9118C52.9922 22.8202 52.9742 22.7295 52.9391 22.6449C52.904 22.5603 52.8525 22.4834 52.7876 22.4187C52.7227 22.3539 52.6457 22.3026 52.5609 22.2675C52.4761 22.2325 52.3853 22.2145 52.2935 22.2145H49.5374C49.4455 22.2144 49.3545 22.2323 49.2696 22.2673C49.1847 22.3022 49.1076 22.3536 49.0426 22.4183C48.9776 22.4831 48.926 22.56 48.8909 22.6447C48.8557 22.7294 48.8376 22.8201 48.8376 22.9118V23.1025H42.4977V13.4783ZM37.6829 23.1025L36.9854 13.4783H41.608V23.1025H37.6829Z" fill="#F2F2F2"/>
<path d="M6.22168 63.3689C6.2228 63.3723 6.22394 63.3745 6.22507 63.3779C6.23298 63.4016 6.2409 63.423 6.24994 63.4467V63.4479C6.63544 64.5287 7.059 65.5916 7.52062 66.6364L94.7093 66.5416C95.1773 65.4754 95.6069 64.3896 95.998 63.2843C95.9993 63.2818 96.0001 63.2791 96.0003 63.2764L6.22168 63.3689Z" fill="#CCCCCC"/>
<path d="M38.9615 46.9057C38.892 47.1947 38.7598 47.465 38.5743 47.6975C38.3888 47.93 38.1545 48.119 37.8878 48.2514C37.6212 48.3837 37.3287 48.4561 37.031 48.4634C36.7333 48.4707 36.4376 48.4128 36.1647 48.2937L31.2506 53.5985L30.3506 49.9533L35.1551 45.4746C35.3859 45.0304 35.772 44.6861 36.2401 44.507C36.7083 44.3279 37.226 44.3264 37.6952 44.5028C38.1644 44.6792 38.5525 45.0212 38.7858 45.4641C39.0192 45.907 39.0818 46.4199 38.9615 46.9057Z" fill="#FFB6B6"/>
<path d="M33.3698 51.6081L26.693 59.0874L26.6388 59.0772C26.6162 59.0738 26.1097 58.9836 25.307 58.8369C22.4039 58.3066 15.6322 57.0418 13.9523 56.4562C12.9836 56.1303 12.1143 55.5629 11.4268 54.8078C11.6009 53.8612 11.7874 53.1527 11.9717 52.8074C12.1062 52.5558 12.0813 52.2275 12.087 51.8529C12.5278 51.5491 13.0416 51.3676 13.5758 51.3271C16.9164 51.0859 20.2675 51.6224 23.3648 52.8943L25.1262 53.6209L25.1985 53.5679L31.1472 49.2105L31.1879 49.1812L33.2341 51.4569L33.3698 51.6081Z" fill="#41C9E2"/>
<path d="M47.3044 94.8512C47.2151 94.8444 47.1269 94.8365 47.0376 94.8286C45.9173 94.735 44.8082 94.6026 43.7105 94.4314L42.5054 91.6311L41.9277 90.2884L44.1085 89.3531L45.5261 88.7461L46.1999 91.0568L46.4791 92.017L47.1393 94.2825L47.3044 94.8512Z" fill="#FFB6B6"/>
<path d="M22.875 81.8203V85.7535C23.5363 86.2409 24.2109 86.711 24.8986 87.1638V81.8203H22.875Z" fill="#CACACA"/>
<path d="M15.7656 79.3291C16.3343 79.9587 16.9199 80.5721 17.5224 81.1693C18.9406 82.5789 20.4464 83.8978 22.0308 85.1182H31.0522C31.2917 85.1183 31.5285 85.0673 31.7467 84.9686C31.9648 84.87 32.1594 84.7259 32.3173 84.5462L32.3184 84.5428C32.5065 84.331 32.6373 84.0746 32.6982 83.7982L32.6994 83.7959C32.7249 83.6773 32.7378 83.5562 32.7378 83.4349V81.0125C32.7375 80.5663 32.5599 80.1385 32.2439 79.8229C31.9278 79.5073 31.4993 79.3297 31.0522 79.3291H15.7656Z" fill="#3F3D56"/>
<path d="M12.0488 69.874L13.0267 74.0554C12.9311 74.6612 12.8993 75.2753 12.9317 75.8877C13.3953 76.5083 13.8735 77.1164 14.3663 77.7121C14.8208 78.2616 15.2873 78.8005 15.7659 79.3289C16.3346 79.9585 16.9202 80.5719 17.5227 81.1691C19.0918 81.6611 20.9413 81.8619 22.8745 81.8754C23.5415 81.8811 24.2187 81.863 24.8981 81.8269C27.6531 81.6825 26.1439 81.2414 28.4264 80.7833C29.0301 80.6637 29.5976 80.5418 30.1199 80.4234C31.109 80.2011 31.9366 79.9935 32.5357 79.8355C33.2107 79.6595 35.6465 78.4451 35.6465 78.4451L37.5684 82.6197L39.2641 86.5687L41.4972 91.5571C41.7844 91.5831 42.0719 91.6049 42.3598 91.6226C42.665 91.644 42.9706 91.6613 43.2766 91.6745C43.5185 91.6869 43.7593 91.6959 44.0024 91.7027L44.0849 91.7286L44.1528 91.7072L45.2426 91.3608L45.61 91.2446L46.9315 90.8249C46.9315 90.8249 46.6365 89.8974 46.1198 88.3506C45.9299 87.7831 44.5846 83.587 43.1771 79.9235C42.76 78.8359 42.3281 77.7324 41.8838 76.6346C41.5198 75.7331 41.149 74.835 40.7737 73.9493C40.1214 72.4138 36.9696 71.5856 33.2581 71.1512C33.0693 71.1298 32.8794 71.1084 32.6884 71.0881C30.797 70.8895 28.7904 70.7868 26.9138 70.7394C25.9743 70.7157 29.3636 70.7067 28.5202 70.7056C28.2478 70.7056 27.9828 70.7063 27.7255 70.7078H27.7243C27.0291 70.7112 26.3892 70.7214 25.8262 70.7327C25.7166 70.7349 25.6103 70.7383 25.5063 70.7406H25.5052C25.4351 70.7417 25.3661 70.7439 25.2983 70.7451C24.0672 70.7767 23.312 70.815 23.312 70.815L23.0192 68.5224L22.9593 68.0598L22.9027 67.6198V67.6186L22.896 67.5634L22.8496 67.5622L22.0357 67.5464L15.1939 67.4133L12.2797 67.29L12.0488 69.874Z" fill="#2F2E41"/>
<path d="M34.2901 78.3323C33.466 79.7381 32.8239 82.4031 31.9794 83.7231C30.3594 86.2572 29.4098 87.6394 28.2872 89.1986C27.1273 88.5679 25.9979 87.8895 24.8991 87.1632C24.3123 86.7774 23.7347 86.3776 23.166 85.9639L23.8387 84.4328L24.2208 83.6825L25.9369 80.3101L27.861 76.5293L28.5302 76.8407L34.2901 78.3323Z" fill="#2F2E41"/>
<path d="M92.1227 59.014C92.1551 58.9167 92.1663 58.8136 92.1554 58.7116C92.1445 58.6096 92.1119 58.5111 92.0597 58.4228C92.0075 58.3344 91.937 58.2583 91.8528 58.1994C91.7686 58.1405 91.6728 58.1004 91.5718 58.0816C91.5344 58.0736 91.4964 58.0689 91.4581 58.0675L86.8513 57.9488C86.7479 57.9477 86.6455 57.9683 86.5506 58.0092C86.4557 58.05 86.3704 58.1103 86.3003 58.186C86.2358 58.1723 86.17 58.1655 86.104 58.1657C85.9605 58.1619 85.8178 58.1865 85.6838 58.2379C85.5498 58.2892 85.4273 58.3665 85.3233 58.4651C85.2192 58.5638 85.1357 58.682 85.0774 58.8128C85.0192 58.9437 84.9873 59.0848 84.9837 59.228C84.9801 59.3712 85.0048 59.5137 85.0565 59.6473C85.1081 59.781 85.1856 59.9032 85.2845 60.0069C85.3835 60.1107 85.5019 60.1939 85.6331 60.252C85.7643 60.31 85.9057 60.3416 86.0492 60.3451C86.2142 60.3484 86.3779 60.3148 86.5283 60.2469L86.9521 64.7698C86.9929 64.9185 87.0808 65.05 87.2026 65.1447C87.3245 65.2394 87.4738 65.2922 87.6282 65.2952L90.6231 65.3721C90.7764 65.3749 90.9267 65.329 91.0523 65.2412C91.1778 65.1535 91.2723 65.0282 91.3221 64.8835L92.1227 59.014ZM86.0587 60.0332C85.852 60.0278 85.6558 59.9408 85.5133 59.7912C85.3707 59.6417 85.2933 59.4418 85.2982 59.2355C85.303 59.0291 85.3896 58.8331 85.5391 58.6904C85.6885 58.5477 85.8886 58.4699 86.0953 58.4742C86.11 58.4742 86.1229 58.4812 86.1375 58.4812C86.1047 58.6061 86.1055 58.7374 86.1398 58.8619L86.4414 59.9398C86.3247 60.005 86.1924 60.0373 86.0587 60.0332Z" fill="#CCCCCC"/>
<path d="M91.5716 58.0817C91.4734 58.6418 90.37 59.0355 89.0431 58.9671C87.823 58.911 86.8254 58.4834 86.6426 57.9766C86.7102 57.9567 86.7806 57.9473 86.8511 57.9489L91.4579 58.0676C91.4961 58.069 91.5342 58.0737 91.5716 58.0817Z" fill="white"/>
<path d="M62.7295 52.1629V63.7344H70.8521V52.1629C70.8523 52.0796 70.8257 51.9986 70.7762 51.9315C70.7268 51.8645 70.6571 51.8151 70.5774 51.7905C70.5399 51.7782 70.5005 51.7721 70.461 51.7725H63.1218C63.0703 51.7724 63.0194 51.7824 62.9718 51.802C62.9242 51.8215 62.881 51.8503 62.8446 51.8865C62.8081 51.9228 62.7792 51.9659 62.7595 52.0133C62.7397 52.0607 62.7295 52.1115 62.7295 52.1629ZM65.8994 56.1389C65.9015 55.9107 65.9938 55.6926 66.1562 55.5321C66.3185 55.3715 66.5379 55.2814 66.7665 55.2814C66.9951 55.2814 67.2145 55.3715 67.3768 55.5321C67.5392 55.6926 67.6315 55.9107 67.6336 56.1389V57.4815C67.6325 57.7103 67.5407 57.9294 67.3782 58.0908C67.2157 58.2522 66.9958 58.3428 66.7665 58.3428C66.5372 58.3428 66.3173 58.2522 66.1548 58.0908C65.9923 57.9294 65.9005 57.7103 65.8994 57.4815V56.1389Z" fill="#CCCCCC"/>
<path d="M62.7041 63.3643V64.4801C62.7043 64.5379 62.7273 64.5933 62.7681 64.6343C62.809 64.6753 62.8644 64.6985 62.9223 64.699H70.6583C70.7163 64.6987 70.7718 64.6755 70.8127 64.6345C70.8535 64.5935 70.8765 64.538 70.8765 64.4801V63.3643H62.7041Z" fill="#3F3D56"/>
<path d="M49.9512 34.7292V55.8571C49.9514 56.1264 50.0586 56.3845 50.2494 56.5749C50.4402 56.7653 50.6988 56.8723 50.9686 56.8726H82.34C82.6098 56.8724 82.8684 56.7653 83.0592 56.5749C83.25 56.3845 83.3572 56.1264 83.3574 55.8571V34.7292C83.3568 34.4602 83.2494 34.2024 83.0587 34.0122C82.868 33.8221 82.6095 33.7152 82.34 33.7148H50.9686C50.6991 33.7152 50.4407 33.8221 50.25 34.0122C50.0592 34.2024 49.9518 34.4602 49.9512 34.7292Z" fill="#CCCCCC"/>
<path d="M50.6875 34.9921V55.5965C50.6877 55.7404 50.7451 55.8783 50.847 55.98C50.949 56.0817 51.0871 56.139 51.2313 56.1392H82.0792C82.2233 56.139 82.3615 56.0817 82.4634 55.98C82.5654 55.8783 82.6227 55.7404 82.623 55.5965V34.9921C82.623 34.848 82.5657 34.7099 82.4638 34.6079C82.3618 34.506 82.2235 34.4486 82.0792 34.4482H51.2313C51.0869 34.4486 50.9487 34.506 50.8467 34.6079C50.7448 34.7099 50.6875 34.848 50.6875 34.9921Z" fill="white"/>
<path d="M57.072 64.6235C57.1034 64.6628 57.1433 64.6945 57.1888 64.7161C57.2342 64.7378 57.2839 64.749 57.3343 64.7487H75.6868C75.737 64.7487 75.7866 64.7374 75.8319 64.7159C75.8772 64.6943 75.9171 64.6629 75.9487 64.624C75.9803 64.5851 76.0028 64.5396 76.0146 64.491C76.0264 64.4423 76.0272 64.3916 76.0169 64.3425L75.7321 62.992C75.7202 62.9369 75.6948 62.8857 75.6581 62.8429C75.6214 62.8002 75.5745 62.7672 75.5218 62.7472C75.4836 62.7322 75.443 62.7246 75.4019 62.7246H57.6181C57.577 62.7246 57.5364 62.7322 57.4982 62.7472C57.4455 62.7672 57.3986 62.8002 57.3619 62.8429C57.3252 62.8857 57.2998 62.9369 57.288 62.992L57.0031 64.3425C56.9929 64.3915 56.9939 64.4422 57.0058 64.4908C57.0177 64.5394 57.0403 64.5847 57.072 64.6235Z" fill="#F2F2F2"/>
<path d="M81.0782 37.2862H52.2139C52.1838 37.2856 52.1553 37.2732 52.1343 37.2518C52.1133 37.2304 52.1016 37.2016 52.1016 37.1717C52.1016 37.1417 52.1133 37.113 52.1343 37.0916C52.1553 37.0701 52.1838 37.0578 52.2139 37.0571H81.0782C81.1082 37.0578 81.1367 37.0701 81.1577 37.0916C81.1787 37.113 81.1904 37.1417 81.1904 37.1717C81.1904 37.2016 81.1787 37.2304 81.1577 37.2518C81.1367 37.2732 81.1082 37.2856 81.0782 37.2862Z" fill="#3F3D56"/>
<path d="M54.1786 36.4723C54.5501 36.4723 54.8513 36.165 54.8513 35.7859C54.8513 35.4069 54.5501 35.0996 54.1786 35.0996C53.807 35.0996 53.5059 35.4069 53.5059 35.7859C53.5059 36.165 53.807 36.4723 54.1786 36.4723Z" fill="#3F3D56"/>
<path d="M56.5018 36.4723C56.8733 36.4723 57.1745 36.165 57.1745 35.7859C57.1745 35.4069 56.8733 35.0996 56.5018 35.0996C56.1303 35.0996 55.8291 35.4069 55.8291 35.7859C55.8291 36.165 56.1303 36.4723 56.5018 36.4723Z" fill="#3F3D56"/>
<path d="M58.826 36.4723C59.1975 36.4723 59.4987 36.165 59.4987 35.7859C59.4987 35.4069 59.1975 35.0996 58.826 35.0996C58.4545 35.0996 58.1533 35.4069 58.1533 35.7859C58.1533 36.165 58.4545 36.4723 58.826 36.4723Z" fill="#3F3D56"/>
<path d="M79.6789 35.2695H78.0284C77.9957 35.2703 77.9647 35.2837 77.9418 35.307C77.919 35.3303 77.9062 35.3616 77.9063 35.3942C77.9062 35.4268 77.919 35.4581 77.9418 35.4814C77.9647 35.5047 77.9957 35.5181 78.0284 35.5189H79.6789C79.7117 35.5184 79.7431 35.5051 79.7661 35.4818C79.7892 35.4584 79.8021 35.427 79.8021 35.3942C79.8021 35.3614 79.7892 35.33 79.7661 35.3066C79.7431 35.2833 79.7117 35.27 79.6789 35.2695Z" fill="#3F3D56"/>
<path d="M79.6789 35.7378H78.0283C77.9957 35.7385 77.9647 35.752 77.9418 35.7753C77.919 35.7986 77.9062 35.8299 77.9062 35.8625C77.9062 35.895 77.919 35.9263 77.9418 35.9496C77.9647 35.9729 77.9957 35.9864 78.0283 35.9871H79.6789C79.7117 35.9867 79.743 35.9733 79.7661 35.95C79.7891 35.9267 79.8021 35.8952 79.8021 35.8625C79.8021 35.8297 79.7891 35.7982 79.7661 35.7749C79.743 35.7516 79.7117 35.7382 79.6789 35.7378Z" fill="#3F3D56"/>
<path d="M79.6789 36.2061H78.0284C77.9957 36.2068 77.9647 36.2203 77.9418 36.2436C77.919 36.2669 77.9062 36.2981 77.9063 36.3307C77.9062 36.3633 77.919 36.3946 77.9418 36.4179C77.9647 36.4412 77.9957 36.4547 78.0284 36.4554H79.6789C79.7117 36.455 79.7431 36.4416 79.7661 36.4183C79.7892 36.395 79.8021 36.3635 79.8021 36.3307C79.8021 36.298 79.7892 36.2665 79.7661 36.2432C79.7431 36.2198 79.7117 36.2065 79.6789 36.2061Z" fill="#3F3D56"/>
<path d="M70.0325 43.5142H65.1602C64.9223 43.5142 64.7295 43.7066 64.7295 43.9441V44.308C64.7295 44.5454 64.9223 44.7378 65.1602 44.7378H70.0325C70.2704 44.7378 70.4633 44.5454 70.4633 44.308V43.9441C70.4633 43.7066 70.2704 43.5142 70.0325 43.5142Z" fill="#41C9E2"/>
<path d="M72.9444 45.9619H62.2481C62.0102 45.9619 61.8174 46.1544 61.8174 46.3918V46.7557C61.8174 46.9931 62.0102 47.1856 62.2481 47.1856H72.9444C73.1823 47.1856 73.3752 46.9931 73.3752 46.7557V46.3918C73.3752 46.1544 73.1823 45.9619 72.9444 45.9619Z" fill="#41C9E2"/>
<path d="M72.9444 48.4092H62.2481C62.0102 48.4092 61.8174 48.6016 61.8174 48.8391V49.203C61.8174 49.4404 62.0102 49.6329 62.2481 49.6329H72.9444C73.1823 49.6329 73.3752 49.4404 73.3752 49.203V48.8391C73.3752 48.6016 73.1823 48.4092 72.9444 48.4092Z" fill="#41C9E2"/>
<path d="M47.6869 65.4697C49.1542 65.4697 50.3436 65.0909 50.3436 64.6235C50.3436 64.1562 49.1542 63.7773 47.6869 63.7773C46.2197 63.7773 45.0303 64.1562 45.0303 64.6235C45.0303 65.0909 46.2197 65.4697 47.6869 65.4697Z" fill="#3F3D56"/>
<path d="M47.6869 64.9058C49.1542 64.9058 50.3436 64.5269 50.3436 64.0596C50.3436 63.5922 49.1542 63.2134 47.6869 63.2134C46.2197 63.2134 45.0303 63.5922 45.0303 64.0596C45.0303 64.5269 46.2197 64.9058 47.6869 64.9058Z" fill="#3F3D56"/>
<path d="M47.8847 64.6265L47.4888 64.6206L47.598 57.2429C47.6139 56.0391 47.3131 54.8522 46.7257 53.8007C46.1382 52.7492 45.2847 51.8699 44.2503 51.2505L36.6943 46.743L36.8974 46.4038L44.4534 50.9115C45.5474 51.5665 46.4501 52.4964 47.0713 53.6085C47.6926 54.7205 48.0107 55.9757 47.9939 57.2488L47.8847 64.6265Z" fill="#3F3D56"/>
<path d="M37.8515 43.1304C37.8515 42.6008 37.4213 42.1714 36.8906 42.1714C36.3599 42.1714 35.9297 42.6008 35.9297 43.1304V49.1102C35.9297 49.6399 36.3599 50.0693 36.8906 50.0693C37.4213 50.0693 37.8515 49.6399 37.8515 49.1102V43.1304Z" fill="#41C9E2"/>
<path d="M36.2177 51.7167C35.4586 51.7157 34.7304 51.4164 34.1906 50.8837C33.6509 50.3509 33.3429 49.6276 33.3334 48.87L33.3008 45.8402L33.6967 45.8359L33.7293 48.8659C33.7343 49.329 33.8692 49.7816 34.1187 50.1721C34.3682 50.5627 34.7224 50.8757 35.141 51.0756C35.5596 51.2756 36.026 51.3545 36.4873 51.3035C36.9486 51.2524 37.3863 51.0734 37.7509 50.7867L40.445 48.6686L40.6899 48.9791L37.9959 51.0972C37.4899 51.4976 36.8634 51.7159 36.2177 51.7167Z" fill="#3F3D56"/>
<path d="M33.8941 48.3201C34.5496 48.3201 35.0811 47.032 35.0811 45.443C35.0811 43.854 34.5496 42.5659 33.8941 42.5659C33.2385 42.5659 32.707 43.854 32.707 45.443C32.707 47.032 33.2385 48.3201 33.8941 48.3201Z" fill="#3F3D56"/>
<path d="M25.5241 60.9297C25.4212 60.2843 25.3523 59.5769 25.3071 58.8367C25.2008 57.1432 25.211 55.2759 25.1985 53.5677C25.1933 52.7914 25.1317 51.9437 25.0516 51.1566C24.9818 50.4396 24.7421 49.7495 24.3523 49.1432C23.9625 48.5368 23.4338 48.0317 22.8099 47.6695C22.3851 47.4244 22.0023 47.113 21.6759 46.7473C21.4995 46.551 21.478 46.0974 21.4554 45.6179C21.4283 45.0346 21.4 44.4299 21.0869 44.1185L21.0733 44.1049L21.0552 44.0981C19.7405 43.6615 17.519 43.9447 16.8588 44.097L16.8306 44.1038L16.8125 44.1264C16.54 44.4863 16.5547 45.0617 16.5694 45.6179C16.5819 46.1177 16.5943 46.5905 16.3727 46.7327C16.2009 46.8432 16.0358 46.9482 15.8764 47.0497C13.9218 48.2942 12.9405 48.9192 12.2215 50.9513C12.1256 51.2419 12.0801 51.5468 12.087 51.8527C12.0813 52.2273 12.1062 52.5557 11.9717 52.8073C11.7874 53.1525 11.6009 53.8611 11.4268 54.8077C10.5145 59.7822 9.97296 71.3492 12.2023 71.62C12.3764 71.6415 12.0214 71.9901 11.8993 72.165C11.7241 72.4166 11.5737 72.6332 11.6608 72.7991C11.7196 72.9119 11.8733 72.9649 12.1424 72.9649C13.1576 72.9649 23.5932 71.4361 23.8894 70.8855C23.9109 70.9171 23.9086 70.8494 23.8894 70.8855C28.7822 70.248 26.1922 65.1483 25.5241 60.9297Z" fill="#41C9E2"/>
<path d="M37.3011 65.912C37.0918 65.6952 36.8373 65.5268 36.5557 65.4187C36.274 65.3107 35.9721 65.2655 35.6711 65.2865C35.3701 65.3075 35.0774 65.3941 34.8136 65.5403C34.5497 65.6864 34.3212 65.8884 34.1441 66.1322L27.123 64.0156L28.2116 67.661L34.712 69.1121C35.1421 69.3819 35.6564 69.4849 36.1575 69.4015C36.6586 69.3181 37.1116 69.0542 37.4307 68.6598C37.7499 68.2653 37.913 67.7678 37.8891 67.2613C37.8652 66.7549 37.656 66.2748 37.3011 65.912Z" fill="#FFB6B6"/>
<path d="M28.8262 67.9995L19.1853 66.2336C19.1462 66.1329 15.2757 56.1337 14.7975 53.8876C14.4948 52.5334 14.6653 51.1167 15.2807 49.8726L15.2977 49.8428L15.3293 49.8292C15.9759 49.5541 16.6971 49.5071 17.374 49.696C18.0509 49.8848 18.6431 50.2983 19.053 50.8681C21.0172 53.63 22.3114 56.8096 22.8333 60.1561L23.128 62.0601L27.7223 63.3928L28.8262 67.9995Z" fill="#41C9E2"/>
<path d="M25.6673 40.9787C25.0718 42.0656 24.1231 42.9176 22.9776 43.3945C21.832 43.8714 20.5579 43.9447 19.365 43.6023C18.1721 43.26 17.1317 42.5224 16.4149 41.511C15.6982 40.4997 15.3479 39.2749 15.4218 38.0383C15.4957 36.8017 15.9894 35.6272 16.8215 34.708C17.6536 33.7888 18.7746 33.1799 19.9997 32.9815C21.2249 32.7831 22.4813 33.0071 23.5619 33.6165C24.6426 34.2259 25.483 35.1844 25.9449 36.3342C25.9699 36.3966 25.9924 36.459 26.0149 36.5239C26.276 37.2487 26.3801 38.0206 26.3201 38.7885C26.2602 39.5565 26.0377 40.303 25.6673 40.9787Z" fill="#FFB6B6"/>
<path d="M26.4525 36.5238C26.2175 35.8674 26.32 36.2093 26.0824 35.5554C26.2375 36.1344 25.9924 36.4589 26.0149 36.5238H19.5107V32.7503C21.4162 31.9966 23.2792 31.3552 24.4045 32.7503C25.4073 32.7503 26.3689 33.1479 27.078 33.8555C27.787 34.5632 28.1854 35.523 28.1855 36.5238L26.4525 36.5238Z" fill="#2F2E41"/>
<path d="M21.2074 46.9004C21.2024 46.8305 21.1949 46.7581 21.1849 46.6883C21.0975 46.1756 20.9558 45.6737 20.7623 45.1908C20.5747 44.6642 20.3847 44.1351 20.1946 43.6086C20.4394 44.5644 20.3647 45.5739 19.9821 46.4836C18.8843 45.6301 19.412 44.3453 18.1416 43.6784C14.7323 41.8889 13.5525 38.9969 14.5062 34.5551C14.8453 32.9756 16.8208 31.396 20.2717 31.396C23.7251 31.396 25.2645 33.1097 25.332 36.5537C21.0809 37.552 22.0101 46.551 21.2074 46.9004Z" fill="#2F2E41"/>
<path d="M14.8496 34.7196C16.096 34.7196 17.1064 33.7112 17.1064 32.4672C17.1064 31.2233 16.096 30.2148 14.8496 30.2148C13.6032 30.2148 12.5928 31.2233 12.5928 32.4672C12.5928 33.7112 13.6032 34.7196 14.8496 34.7196Z" fill="#2F2E41"/>
<path d="M13.7939 31.8128C13.409 32.26 12.8064 32.4338 12.2628 32.6665C11.3034 33.0866 10.4612 33.7339 9.80908 34.5523C9.157 35.3706 8.71478 36.3354 8.52076 37.3629C8.37047 38.1998 8.39013 39.0662 8.15274 39.8821C7.91676 40.698 7.33242 41.4985 6.49382 41.6401C5.92633 41.7369 5.35744 41.5182 4.82366 41.3023C4.53008 41.1845 4.23651 41.0663 3.94293 40.9476C4.24915 40.1807 4.5549 39.4139 4.86018 38.6471C4.36954 39.3708 3.79894 40.0371 3.15912 40.6336C2.10701 40.2102 1.05398 39.7868 0 39.3634C2.59304 39.3732 2.15056 36.861 2.73069 34.3404C3.04956 32.9553 5.76479 32.0175 6.29717 30.6997C6.58484 29.9849 7.07166 29.3673 7.70002 28.9201C8.32838 28.4728 9.07197 28.2146 9.84279 28.176C10.6136 28.1373 11.3794 28.3199 12.0495 28.7021C12.7196 29.0842 13.266 29.65 13.624 30.3324C14.1563 30.544 14.1718 31.3712 13.7939 31.8128Z" fill="#2F2E41"/>
<path d="M23.9 31.4812C24.1133 31.5523 24.2896 31.705 24.3901 31.9057C24.4906 32.1065 24.507 32.3389 24.4359 32.5518L22.4398 38.5217C22.4045 38.6271 22.3488 38.7245 22.2759 38.8085C22.2029 38.8924 22.114 38.9611 22.0144 39.0108C21.9148 39.0605 21.8064 39.0901 21.6953 39.0979C21.5843 39.1058 21.4727 39.0917 21.3671 39.0565C21.1538 38.9855 20.9775 38.8328 20.877 38.632C20.7765 38.4312 20.7601 38.1989 20.8312 37.986L22.8273 32.0161C22.8985 31.8032 23.0515 31.6272 23.2527 31.5269C23.4538 31.4266 23.6867 31.4102 23.9 31.4812Z" fill="white"/>
<path d="M21.1868 41.6747C22.4355 41.6747 23.4478 40.6644 23.4478 39.4182C23.4478 38.1719 22.4355 37.1616 21.1868 37.1616C19.9381 37.1616 18.9258 38.1719 18.9258 39.4182C18.9258 40.6644 19.9381 41.6747 21.1868 41.6747Z" fill="white"/>
<path d="M21.1873 39.9823C21.4995 39.9823 21.7526 39.7297 21.7526 39.4181C21.7526 39.1066 21.4995 38.854 21.1873 38.854C20.8751 38.854 20.6221 39.1066 20.6221 39.4181C20.6221 39.7297 20.8751 39.9823 21.1873 39.9823Z" fill="#41C9E2"/>
<path d="M53.8501 94.0164C53.9715 94.3101 54.1048 94.6038 54.2328 94.8988L54.1735 94.9028C54.1537 94.9028 54.1352 94.9054 54.1154 94.9067C53.1824 94.9647 52.2411 94.9954 51.2914 94.9989C51.2479 95.0002 51.2057 95.0002 51.1621 95.0002C51.1621 94.9976 51.1634 94.9963 51.1634 94.9936C51.261 94.998 51.3576 94.9724 51.4401 94.9202C51.5226 94.868 51.5871 94.7919 51.6248 94.7019C51.6625 94.612 51.6716 94.5127 51.651 94.4174C51.6303 94.3221 51.5808 94.2355 51.5092 94.1692C51.496 94.1205 51.4881 94.0862 51.4762 94.0388C51.48 94.0281 51.4844 94.0175 51.4894 94.0072C51.5877 93.7754 51.7526 93.5777 51.9631 93.4391C52.1737 93.3005 52.4206 93.2271 52.6728 93.228C52.9251 93.229 53.1714 93.3044 53.3809 93.4447C53.5903 93.5849 53.7536 93.7838 53.8501 94.0164Z" fill="#F2F2F2"/>
<path d="M62.5544 89.7149C62.553 89.7255 62.5517 89.7347 62.5504 89.7452C62.3831 89.8127 62.2205 89.891 62.0635 89.9796C61.9724 90.0297 61.884 90.0837 61.7982 90.1403C61.6899 90.2126 61.6059 90.3159 61.5574 90.4366C61.5089 90.5573 61.498 90.6899 61.5262 90.8169C61.5545 90.9439 61.6205 91.0594 61.7157 91.1483C61.8108 91.2372 61.9307 91.2953 62.0595 91.3151L62.0727 91.3177C62.082 91.319 62.0899 91.3203 62.0991 91.3217C61.6008 92.5225 60.7426 93.54 59.642 94.2349C59.5892 94.2454 59.5378 94.2546 59.485 94.2638C59.2184 94.3126 58.9532 94.3573 58.6866 94.3982C57.7602 94.5483 56.8246 94.6695 55.8798 94.7617C56.0691 93.8065 56.1645 92.8353 56.1648 91.8616C56.1655 91.3164 56.1351 90.7716 56.0738 90.2299C56.0237 89.786 55.955 89.3435 55.8653 88.9063C55.8204 88.685 55.7703 88.4642 55.7149 88.2438C55.4189 87.0724 54.9867 85.9395 54.4269 84.8684C53.9725 83.9979 53.4337 83.1739 52.8183 82.4082C52.0844 82.009 51.491 81.3943 51.1187 80.6474C50.983 80.3791 50.8875 80.0925 50.835 79.7966C50.9168 79.8084 51.0012 79.815 51.0844 79.8203C51.1094 79.8216 51.1371 79.8229 51.1635 79.8242H51.1728C51.2638 79.8285 51.3541 79.8063 51.4327 79.7605C51.5114 79.7146 51.5751 79.647 51.6161 79.5658C51.6571 79.4847 51.6737 79.3933 51.6639 79.303C51.6541 79.2126 51.6183 79.1269 51.5607 79.0564C51.5251 79.013 51.4895 78.9682 51.4538 78.9247C51.3997 78.8576 51.343 78.7904 51.2889 78.7232C51.2828 78.717 51.2771 78.7104 51.2717 78.7035C51.2097 78.6258 51.1464 78.5494 51.0844 78.473C51.1977 78.2962 51.3509 78.1482 51.5317 78.041C52.1572 77.6749 53.0202 77.9277 53.4728 78.4927C53.9255 79.0577 54.0112 79.8506 53.8542 80.5552C53.6994 81.1559 53.4432 81.726 53.0968 82.2409C53.1311 82.2844 53.1654 82.3252 53.1997 82.3687C53.7741 83.1056 54.2799 83.8934 54.7106 84.7222C54.7463 84.788 54.7806 84.8539 54.8136 84.921C54.7033 83.9112 54.8349 82.8898 55.1976 81.9407C55.5644 81.0569 56.2532 80.3115 56.8589 79.5477C57.5874 78.6297 59.0812 79.0301 59.2092 80.1943C59.2105 80.2049 59.2118 80.2167 59.2131 80.2272C59.1234 80.2786 59.035 80.3326 58.9492 80.3892C58.8408 80.4614 58.7568 80.5646 58.7081 80.6852C58.6595 80.8059 58.6485 80.9384 58.6766 81.0654C58.7047 81.1924 58.7705 81.3079 58.8656 81.3969C58.9606 81.4859 59.0804 81.5441 59.2092 81.564L59.2224 81.5666C59.1165 82.6384 58.7437 83.6667 58.1381 84.5581C57.5324 85.4494 56.713 86.1754 55.7544 86.67C55.7003 86.6977 55.6489 86.7253 55.5961 86.7504C55.7619 87.2153 55.9041 87.6883 56.0223 88.1675C56.0804 88.3913 56.1305 88.6166 56.1767 88.8431C56.3059 89.4695 56.3958 90.1033 56.4459 90.7409C56.5071 91.5437 56.5035 92.3501 56.4354 93.1523L56.4393 93.1247C56.6133 92.2324 57.09 91.4273 57.7893 90.8449C58.8291 89.9928 60.2965 89.6794 61.4182 88.9945C61.5372 88.9182 61.6757 88.8774 61.8172 88.877C61.9588 88.8766 62.0974 88.9167 62.2169 88.9924C62.3364 89.0682 62.4316 89.1764 62.4914 89.3045C62.5512 89.4325 62.573 89.5749 62.5544 89.7149Z" fill="#F2F2F2"/>
</g>
<defs>
<clipPath id="clip0_30_1435">
<rect width="96" height="95" fill="white"/>
</clipPath>
</defs>
</svg>
